{
.appVersion = "3133";
.formatVersion = 3;
DisplayStrings = (
b,
"",
"¹¬",
"7",
B,
"B¹",
"Bbẞ",
"ẞ"
);
customParameters = (
{
name = vendorID;
value = ADBE;
},
{
name = panose;
value = (
2,
2,
5,
2,
5,
5,
6,
2,
3,
1
);
},
{
name = unicodeRanges;
value = (
0,
1,
2,
3,
5,
7,
31,
32,
33,
35,
38,
45,
60,
62
);
},
{
name = codePageRanges;
value = (
"1252",
"1250",
"1253",
"1254",
"1257"
);
},
{
name = blueScale;
value = 0.04796;
},
{
name = glyphOrder;
value = (
.notdef,
space,
exclam,
quotedbl,
numbersign,
dollar,
percent,
ampersand,
quoteright,
parenleft,
parenright,
asterisk,
plus,
comma,
hyphen,
period,
slash,
zero,
one,
two,
three,
four,
five,
six,
seven,
eight,
nine,
colon,
semicolon,
less,
equal,
greater,
question,
at,
A,
B,
C,
D,
E,
F,
G,
H,
I,
J,
K,
L,
M,
N,
O,
P,
Q,
R,
S,
T,
U,
V,
W,
X,
Y,
Z,
bracketleft,
backslash,
bracketright,
asciicircum,
underscore,
quoteleft,
a,
b,
c,
d,
e,
f,
g,
h,
i,
j,
k,
l,
m,
n,
o,
p,
q,
r,
s,
t,
u,
v,
w,
x,
y,
z,
braceleft,
bar,
braceright,
asciitilde,
exclamdown,
cent,
sterling,
fraction,
yen,
florin,
section,
currency,
quotesingle,
quotedblleft,
guillemotleft,
guilsinglleft,
guilsinglright,
fi,
fl,
endash,
dagger,
daggerdbl,
periodcentered,
paragraph,
bullet,
quotesinglbase,
quotedblbase,
quotedblright,
guillemotright,
ellipsis,
perthousand,
questiondown,
grave,
acute,
circumflex,
tilde,
macron,
breve,
dotaccent,
dieresis,
ring,
cedilla,
hungarumlaut,
ogonek,
caron,
emdash,
AE,
ordfeminine,
Lslash,
Oslash,
OE,
ordmasculine,
ae,
dotlessi,
lslash,
oslash,
oe,
germandbls,
onesuperior,
logicalnot,
mu,
trademark,
Eth,
onehalf,
plusminus,
Thorn,
onequarter,
divide,
brokenbar,
degree,
thorn,
threequarters,
twosuperior,
registered,
minus,
eth,
multiply,
threesuperior,
copyright,
Aacute,
Acircumflex,
Adieresis,
Agrave,
Aring,
Atilde,
Ccedilla,
Eacute,
Ecircumflex,
Edieresis,
Egrave,
Iacute,
Icircumflex,
Idieresis,
Igrave,
Ntilde,
Oacute,
Ocircumflex,
Odieresis,
Ograve,
Otilde,
Scaron,
Uacute,
Ucircumflex,
Udieresis,
Ugrave,
Yacute,

glyphs = (
{
glyphname = .notdef;
layers = (
{
hints = (
{
horizontal = 1;
place = (0, 50);
place = (0, 50);
type = Stem;
},
{
horizontal = 1;
place = (305, 21);
target = up;
type = BottomGhost;
},
{
horizontal = 1;
place = (650, 50);
place = (650, 50);
type = Stem;
},
{
place = (0, 50);
place = (0, 50);
type = Stem;
},
{
place = (450, 50);
place = (450, 50);
type = Stem;
}
);
layerId = m01;
shapes = (
{
closed = 1;
nodes = (
(0,0,l),
(500,0,l),
(500,700,l),
(0,700,l)
);
},
{
closed = 1;
nodes = (
(250,395,l),
(80,650,l),
(420,650,l)
);
},
{
closed = 1;
nodes = (
(280,350,l),
(450,605,l),
(450,95,l)
);
},
{
closed = 1;
nodes = (
(80,50,l),
(250,305,l),
(420,50,l)
);
},
{
closed = 1;
nodes = (
(50,605,l),
(220,350,l),
(50,95,l)
);
}
);
width = 500;
}
);
note = ".notdef";
},
{
glyphname = exclam;
layers = (
{
hints = (
{
horizontal = 1;
place = (-17, 102);
place = (-17, 102);
type = Stem;
},
{
horizontal = 1;
place = (767, -20);
target = down;
type = TopGhost;
},
{
place = (110, 102);
place = (110, 102);
type = Stem;
}
);
layerId = m01;
shapes = (
{
closed = 1;
nodes = (
(143,206,ls),
(145,167,o),
(148,154,o),
(158,154,cs),
(168,154,o),
(169,172,o),
(170,186,cs),
(172,210,o),
(192,607,o),
(193,625,cs),
(198,699,o),
(208,750,o),
(208,757,cs),
(208,765,o),
(206,767,o),
(202,767,cs),
(198,767,o),
(195,766,o),
(187,762,cs),
(159,748,o),
(127,718,o),
(113,694,cs),
(110,689,o),
(108,685,o),
(108,680,cs),
(108,675,o),
(110,669,o),
(112,661,cs),
(120,630,o),
(126,487,o),
(127,472,cs)
);
},
{
closed = 1;
nodes = (
(191,-17,o),
(212,7,o),
(212,37,cs),
(212,66,o),
(190,85,o),
(161,85,cs),
(125,85,o),
(110,55,o),
(110,34,cs),
(110,11,o),
(125,-17,o),
(160,-17,cs)
);
}
);
width = 320;
}
);
note = exclam;
unicode = 33;
},
{
glyphname = quotedbl;
layers = (
{
hints = (
{
horizontal = 1;
place = (755, -20);
target = down;
type = TopGhost;
},
{
place = (58, 84);
place = (58, 84);
type = Stem;
},
{
place = (183, 84);
place = (183, 84);
type = Stem;
}
);
layerId = m01;
shapes = (
{
closed = 1;
nodes = (
(75,755,o),
(58,755,o),
(58,741,cs),
(58,725,o),
(80,675,o),
(89,565,cs),
(92,525,o),
(95,520,o),
(100,520,cs),
(105,520,o),
(108,525,o),
(111,565,cs),
(120,675,o),
(142,725,o),
(142,741,cs),
(142,755,o),
(125,755,o),
(100,755,cs)
);
},
{
closed = 1;
nodes = (
(200,755,o),
(183,755,o),
(183,741,cs),
(183,725,o),
(205,675,o),
(214,565,cs),
(217,525,o),
(220,520,o),
(225,520,cs),
(230,520,o),
(233,525,o),
(236,565,cs),
(245,675,o),
(267,725,o),
(267,741,cs),
(267,755,o),
(250,755,o),
(225,755,cs)
);
}
);
width = 325;
}
);
note = quotedbl;
unicode = 34;
},
{
glyphname = numbersign;
layers = (
{
hints = (
{
horizontal = 1;
place = (0, 21);
target = up;
type = BottomGhost;
},
{
horizontal = 1;
place = (240, 56);
place = (240, 56);
type = Stem;
},
{
horizontal = 1;
place = (460, 56);
place = (460, 56);
type = Stem;
},
{
horizontal = 1;
place = (754, -20);
target = down;
type = TopGhost;
},
{
place = (32, 507);
place = (32, 507);
type = Stem;
}
);
layerId = m01;
shapes = (
{
closed = 1;
nodes = (
(539,460,l),
(539,516,l),
(427,516,l),
(459,754,l),
(424,754,l),
(392,516,l),
(232,516,l),
(265,754,l),
(229,754,l),
(196,516,l),
(64,516,l),
(64,460,l),
(188,460,l),
(163,296,l),
(32,296,l),
(32,240,l),
(154,240,l),
(116,0,l),
(151,0,l),
(189,240,l),
(352,240,l),
(315,0,l),
(350,0,l),
(386,240,l),
(509,240,l),
(509,296,l),
(395,296,l),
(419,460,l)
);
},
{
closed = 1;
nodes = (
(384,460,l),
(360,296,l),
(199,296,l),
(224,460,l)
);
}
);
width = 571;
}
);
note = numbersign;
unicode = 35;
},
{
glyphname = dollar;
layers = (
{
hints = (
{
horizontal = 1;
place = (0, 38);
place = (0, 38);
type = Stem;
},
{
horizontal = 1;
place = (726, 33);
place = (726, 33);
type = Stem;
},
{
place = (108, 67);
place = (108, 67);
type = Stem;
},
{
place = (241, 35.5);
place = (241, 35.5);
type = Stem;
},
{
place = (322, 37);
place = (322, 37);
type = Stem;
},
{
place = (450, 20);
place = (450, 20);
type = Stem;
},
{
place = (420, 72);
place = (420, 72);
type = Stem;
},
{
place = (86, 27);
place = (86, 27);
type = Stem;
}
);
layerId = m01;
shapes = (
{
closed = 1;
nodes = (
(280,0,l),
(350,0,o),
(492,50,o),
(492,199,cs),
(492,311,o),
(412,366,o),
(317,428,c),
(346,726,l),
(370,726,o),
(404,713,o),
(421,697,cs),
(447,673,o),
(450,643,o),
(450,618,cs),
(450,606,o),
(453,603,o),
(458,603,cs),
(462,603,o),
(465,605,o),
(466,613,cs),
(468,630,o),
(470,710,o),
(470,730,cs),
(470,739,o),
(468,742,o),
(462,745,cs),
(444,752,o),
(399,759,o),
(350,759,c),
(359,850,ls),
(359,855,o),
(356,856,o),
(351,855,cs),
(328,848,ls),
(324,847,o),
(322,844,o),
(322,839,cs),
(315,759,l),
(229,759,o),
(108,702,o),
(108,579,cs),
(108,489,o),
(166,436,o),
(277,358,c),
(248,38,l),
(208,38,o),
(165,51,o),
(139,82,cs),
(114,111,o),
(112,140,o),
(113,175,cs),
(114,192,o),
(113,197,o),
(108,197,cs),
(103,197,o),
(99,190,o),
(97,178,cs),
(94,166,o),
(86,114,o),
(86,60,cs),
(86,39,o),
(89,35,o),
(114,24,cs),
(153,7,o),
(219,0,o),
(245,0,c),
(237,-85,ls),
(236,-93,o),
(238,-96,o),
(244,-95,c),
(263,-89,ls),
(268,-88,o),
(272,-86,o),
(273,-81,cs)
);
},
{
closed = 1;
nodes = (
(285,453,l),
(213,503,o),
(175,545,o),
(175,605,cs),
(175,706,o),
(276,726,o),
(311,726,c)
);
},
{
closed = 1;
nodes = (
(310,335,l),
(378,291,o),
(420,244,o),
(420,177,cs),
(420,96,o),
(369,42,o),
(284,38,c)
);
}
);
width = 571;
}
);
note = dollar;
unicode = 36;
},
{
glyphname = percent;
layers = (
{
hints = (
{
horizontal = 1;
place = (0, 28);
place = (0, 28);
type = Stem;
},
{
horizontal = 1;
place = (382, 28);
place = (382, 28);
type = Stem;
},
{
horizontal = 1;
place = (722, 28);
place = (722, 28);
type = Stem;
},
{
place = (50, 62);
place = (50, 62);
type = Stem;
},
{
place = (326, 62);
place = (326, 62);
type = Stem;
},
{
place = (481, 62);
place = (481, 62);
type = Stem;
},
{
place = (758, 62);
place = (758, 62);
type = Stem;
},
{
horizontal = 1;
place = (339, 28);
place = (339, 28);
type = Stem;
},
{
horizontal = 1;
place = (-12, 21);
target = up;
type = BottomGhost;
},
{
horizontal = 1;
place = (718, 32);
place = (718, 32);
type = Stem;
}
);
layerId = m01;
shapes = (
{
closed = 1;
nodes = (
(767,0,o),
(820,100,o),
(820,191,cs),
(820,270,o),
(768,367,o),
(654,367,cs),
(532,367,o),
(481,268,o),
(481,176,cs),
(481,98,o),
(531,0,o),
(647,0,cs)
);
},
{
closed = 1;
nodes = (
(578,28,o),
(543,112,o),
(543,190,cs),
(543,271,o),
(573,339,o),
(649,339,cs),
(720,339,o),
(758,255,o),
(758,177,cs),
(758,97,o),
(728,28,o),
(651,28,cs)
);
},
{
closed = 1;
nodes = (
(300,-4,ls),
(305,-3,o),
(306,-1,o),
(310,8,cs),
(604,740,ls),
(610,755,o),
(615,764,o),
(615,769,cs),
(615,772,o),
(612,773,o),
(608,773,cs),
(582,773,o),
(398,750,o),
(228,750,cs),
(107,750,o),
(50,651,o),
(50,558,cs),
(50,480,o),
(100,382,o),
(216,382,cs),
(334,382,o),
(388,482,o),
(388,573,cs),
(388,637,o),
(359,691,o),
(323,716,c),
(323,718,l),
(340,717,o),
(496,731,o),
(559,734,c),
(550,713,o),
(343,223,o),
(243,-1,cs),
(240,-7,o),
(243,-14,o),
(254,-12,cs)
);
},
{
closed = 1;
nodes = (
(147,410,o),
(112,494,o),
(112,572,cs),
(112,653,o),
(142,722,o),
(218,722,cs),
(289,722,o),
(326,637,o),
(326,559,cs),
(326,479,o),
(297,410,o),
(220,410,cs)
);
}
);
width = 870;
}
);
note = percent;
unicode = 37;
},
{
glyphname = ampersand;
layers = (
{
hints = (
{
horizontal = 1;
place = (-3, 14);
place = (-3, 14);
type = Stem;
},
{
horizontal = 1;
place = (398, 14);
place = (398, 14);
type = Stem;
},
{
horizontal = 1;
place = (733, 34);
place = (733, 34);
type = Stem;
},
{
place = (50, 78);
place = (50, 78);
type = Stem;
},
{
place = (480, 23);
place = (480, 23);
type = Stem;
},
{
place = (620, 74);
place = (620, 74);
type = Stem;
},
{
horizontal = 1;
place = (-17, 53);
place = (-17, 53);
type = Stem;
},
{
place = (154, 68);
place = (154, 68);
type = Stem;
}
);
layerId = m01;
shapes = (
{
closed = 1;
nodes = (
(441,-17,o),
(520,68,o),
(543,91,c),
(653,4,o),
(677,-3,o),
(751,-3,cs),
(849,-3,ls),
(858,-3,o),
(866,0,o),
(866,4,cs),
(866,10,o),
(861,11,o),
(852,11,cs),
(816,11,o),
(765,31,o),
(733,50,cs),
(705,66,o),
(661,93,o),
(595,149,c),
(639,203,o),
(694,304,o),
(694,385,cs),
(694,395,o),
(691,403,o),
(676,405,cs),
(620,411,o),
(580,412,o),
(556,412,cs),
(548,412,o),
(540,410,o),
(540,405,cs),
(540,400,o),
(546,398,o),
(552,398,cs),
(567,398,o),
(588,395,o),
(601,382,cs),
(616,367,o),
(620,348,o),
(620,333,cs),
(620,272,o),
(597,205,o),
(569,167,c),
(537,194,o),
(414,309,o),
(380,346,cs),
(276,459,o),
(222,524,o),
(222,602,cs),
(222,696,o),
(289,733,o),
(349,733,cs),
(393,733,o),
(427,712,o),
(449,689,cs),
(474,663,o),
(480,630,o),
(480,604,cs),
(480,589,o),
(481,585,o),
(486,585,cs),
(490,585,o),
(493,587,o),
(496,602,cs),
(499,617,o),
(503,687,o),
(503,717,cs),
(503,729,o),
(502,735,o),
(490,742,cs),
(463,757,o),
(420,767,o),
(369,767,cs),
(235,767,o),
(154,662,o),
(154,583,cs),
(154,538,o),
(166,497,o),
(203,445,c),
(125,399,o),
(50,321,o),
(50,204,cs),
(50,117,o),
(118,-17,o),
(293,-17,cs)
);
},
{
closed = 1;
nodes = (
(216,36,o),
(128,126,o),
(128,251,cs),
(128,331,o),
(166,385,o),
(218,419,c),
(246,378,o),
(310,307,o),
(336,279,cs),
(362,251,o),
(461,156,o),
(517,110,c),
(483,75,o),
(421,36,o),
(328,36,cs)
);
}
);
width = 775;
}
);
note = ampersand;
unicode = 38;
},
{
glyphname = quoteright;
kernLeft = quoteright;
kernRight = quoteright;
layers = (
{
hints = (
{
horizontal = 1;
place = (571, 249);
place = (571, 249);
type = Stem;
},
{
place = (85, 67);
place = (85, 67);
type = Stem;
}
);
layerId = m01;
shapes = (
{
closed = 1;
nodes = (
(85,675,o),
(67,621,o),
(52,589,cs),
(49,582,o),
(48,579,o),
(48,576,cs),
(48,573,o),
(51,571,o),
(53,571,cs),
(58,571,o),
(62,573,o),
(66,579,c),
(101,621,o),
(152,705,o),
(152,776,cs),
(152,791,o),
(147,796,o),
(135,802,cs),
(119,808,o),
(81,820,o),
(65,820,cs),
(61,820,o),
(56,817,o),
(56,814,cs),
(56,809,o),
(57,806,o),
(65,797,cs),
(72,789,o),
(85,763,o),
(85,732,cs)
);
}
);
width = 200;
}
);
note = quoteright;
unicode = 8217;
},
{
glyphname = parenleft;
kernRight = parenleft;
layers = (
{
hints = (
{
horizontal = 1;
place = (-124, 868);
place = (-124, 868);
type = Stem;
},
{
place = (62, 75);
place = (62, 75);
type = Stem;
}
);
layerId = m01;
shapes = (
{
closed = 1;
nodes = (
(137,522,o),
(232,677,o),
(280,725,cs),
(284,729,o),
(287,733,o),
(287,736,cs),
(287,740,o),
(284,744,o),
(280,744,cs),
(277,744,o),
(273,741,o),
(269,738,cs),
(207,694,o),
(62,519,o),
(62,306,cs),
(62,94,o),
(192,-61,o),
(270,-119,cs),
(274,-122,o),
(277,-124,o),
(279,-124,cs),
(283,-124,o),
(286,-121,o),
(286,-117,cs),
(286,-113,o),
(283,-110,o),
(279,-105,cs),
(196,-6,o),
(137,113,o),
(137,319,cs)
);
}
);
width = 360;
}
);
note = parenleft;
unicode = 40;
},
{
glyphname = parenright;
kernLeft = parenright;
layers = (
{
hints = (
{
horizontal = 1;
place = (-124, 868);
place = (-124, 868);
type = Stem;
},
{
place = (223, 75);
place = (223, 75);
type = Stem;
}
);
layerId = m01;
shapes = (
{
closed = 1;
nodes = (
(223,98,o),
(128,-57,o),
(80,-105,cs),
(76,-109,o),
(73,-113,o),
(73,-116,cs),
(73,-120,o),
(76,-124,o),
(80,-124,cs),
(83,-124,o),
(87,-121,o),
(91,-118,cs),
(153,-74,o),
(298,101,o),
(298,316,cs),
(298,526,o),
(168,681,o),
(90,739,cs),
(86,742,o),
(83,744,o),
(81,744,cs),
(77,744,o),
(74,741,o),
(74,737,cs),
(74,733,o),
(77,730,o),
(81,725,cs),
(164,626,o),
(223,507,o),
(223,301,cs)
);
}
);
width = 360;
}
);
note = parenright;
unicode = 41;
},
{
glyphname = asterisk;
layers = (
{
hints = (
{
horizontal = 1;
place = (656, 72);
place = (656, 72);
type = Stem;
},
{
place = (165, 15);
place = (165, 15);
type = Stem;
},
{
horizontal = 1;
place = (649, 14);
place = (649, 14);
type = Stem;
},
{
place = (155, 30);
place = (155, 30);
type = Stem;
}
);
layerId = m01;
shapes = (
{
closed = 1;
nodes = (
(207,805,o),
(204,808,o),
(199,808,cs),
(181,808,o),
(135,789,o),
(135,779,cs),
(135,777,o),
(137,772,o),
(139,768,cs),
(144,757,o),
(166,683,o),
(165,670,cs),
(165,667,o),
(165,665,o),
(164,663,c),
(161,662,o),
(159,662,o),
(156,664,cs),
(145,673,o),
(73,728,o),
(43,728,cs),
(37,728,o),
(33,725,o),
(33,720,cs),
(33,704,o),
(36,653,o),
(44,653,cs),
(46,653,o),
(50,656,o),
(56,656,cs),
(69,656,o),
(128,655,o),
(151,649,c),
(153,649,o),
(155,648,o),
(155,646,cs),
(155,644,o),
(154,642,o),
(152,640,cs),
(139,629,o),
(63,564,o),
(52,549,cs),
(46,541,o),
(45,537,o),
(45,533,cs),
(45,526,o),
(77,520,o),
(108,520,cs),
(116,520,o),
(120,522,o),
(120,525,cs),
(120,533,o),
(124,541,o),
(126,548,cs),
(131,562,o),
(159,623,o),
(164,631,c),
(165,634,o),
(167,634,o),
(168,634,cs),
(170,634,o),
(171,630,o),
(172,628,cs),
(180,603,o),
(204,545,o),
(215,525,cs),
(220,516,o),
(225,511,o),
(229,511,cs),
(244,511,o),
(280,545,o),
(280,561,cs),
(280,565,o),
(278,567,o),
(269,570,cs),
(257,574,o),
(197,620,o),
(185,640,cs),
(183,643,o),
(183,646,o),
(184,647,cs),
(186,648,o),
(187,649,o),
(190,649,cs),
(220,650,o),
(301,652,o),
(305,653,cs),
(314,655,o),
(317,657,o),
(317,662,cs),
(317,682,o),
(296,725,o),
(289,725,cs),
(286,725,o),
(284,722,o),
(279,718,c),
(271,709,o),
(230,675,o),
(185,663,cs),
(182,662,o),
(181,662,o),
(180,663,cs),
(179,665,o),
(179,668,o),
(180,670,cs),
(192,708,o),
(207,772,o),
(207,797,cs)
);
}
);
width = 350;
}
);
note = asterisk;
unicode = 42;
},
{
glyphname = plus;
layers = (
{
hints = (
{
horizontal = 1;
place = (243, 51);
place = (243, 51);
type = Stem;
},
{
place = (229, 52);
place = (229, 52);
type = Stem;
}
);
layerId = m01;
shapes = (
{
closed = 1;
nodes = (
(468,243,l),
(468,294,l),
(281,294,l),
(281,481,l),
(229,481,l),
(229,294,l),
(42,294,l),
(42,243,l),
(230,243,l),
(230,56,l),
(282,56,l),
(282,243,l)
);
}
);
width = 510;
}
);
note = plus;
unicode = 43;
},
{
glyphname = comma;
kernLeft = comma;
layers = (
{
hints = (
{
horizontal = 1;
place = (-94, 217);
place = (-94, 217);
type = Stem;
},
{
place = (77, 97);
place = (77, 97);
type = Stem;
},
{
place = (111, 63);
place = (111, 63);
type = Stem;
}
);
layerId = m01;
shapes = (
{
closed = 1;
nodes = (
(111,-21,o),
(104,-44,o),
(87,-73,cs),
(85,-77,o),
(80,-83,o),
(80,-87,cs),
(80,-91,o),
(84,-94,o),
(87,-94,cs),
(91,-94,o),
(96,-90,o),
(100,-85,cs),
(128,-54,o),
(154,-1,o),
(164,22,cs),
(169,35,o),
(174,53,o),
(174,61,cs),
(174,70,o),
(170,84,o),
(157,104,cs),
(147,120,o),
(144,123,o),
(139,123,cs),
(113,123,o),
(77,97,o),
(77,69,cs),
(77,57,o),
(111,44,o),
(111,-2,cs)
);
}
);
width = 250;
}
);
note = comma;
unicode = 44;
},
{
glyphname = hyphen;
kernLeft = hyphen;
layers = (
{
hints = (
{
horizontal = 1;
place = (246, 64);
place = (246, 64);
type = Stem;
},
{
place = (36, 319);
place = (36, 319);
type = Stem;
}
);
layerId = m01;
shapes = (
{
closed = 1;
nodes = (
(73,310,ls),
(57,310,o),
(53,309,o),
(51,302,cs),
(36,246,ls),
(34,237,o),
(35,231,o),
(41,231,cs),
(46,231,o),
(63,241,o),
(82,246,cs),
(116,255,o),
(293,279,o),
(320,283,cs),
(336,286,o),
(355,288,o),
(355,300,cs),
(355,308,o),
(342,310,o),
(325,310,cs)
);
}
);
width = 390;
}
);
note = hyphen;
unicode = 45;
},
{
glyphname = period;
kernLeft = comma;
layers = (
{
hints = (
{
horizontal = 1;
place = (0, 110);
place = (0, 110);
type = Stem;
},
{
place = (70, 110);
place = (70, 110);
type = Stem;
}
);
layerId = m01;
shapes = (
{
closed = 1;
nodes = (
(158,0,o),
(180,26,o),
(180,58,cs),
(180,90,o),
(156,110,o),
(125,110,cs),
(86,110,o),
(70,78,o),
(70,55,cs),
(70,30,o),
(86,0,o),
(124,0,cs)
);
}
);
width = 250;
}
);
note = period;
unicode = 46;
},
{
glyphname = slash;
layers = (
{
hints = (
{
horizontal = 1;
place = (-15, 21);
target = up;
type = BottomGhost;
},
{
place = (20, 512);
place = (20, 512);
type = Stem;
}
);
layerId = m01;
shapes = (
{
closed = 1;
nodes = (
(55,-15,ls),
(59,-17,o),
(63,-17,o),
(67,-10,cs),
(531,736,ls),
(533,739,o),
(533,743,o),
(529,746,cs),
(499,764,ls),
(492,768,o),
(489,766,o),
(485,760,cs),
(24,21,ls),
(19,13,o),
(19,8,o),
(23,6,cs)
);
}
);
width = 552;
}
);
note = slash;
unicode = 47;
},
{
glyphname = zero;
layers = (
{
hints = (
{
horizontal = 1;
place = (-17, 37);
place = (-17, 37);
type = Stem;
},
{
horizontal = 1;
place = (730, 37);
place = (730, 37);
type = Stem;
},
{
place = (42, 81);
place = (42, 81);
type = Stem;
},
{
place = (448, 81);
place = (448, 81);
type = Stem;
}
);
layerId = m01;
shapes = (
{
closed = 1;
nodes = (
(42,173,o),
(121,-17,o),
(277,-17,cs),
(440,-17,o),
(529,168,o),
(529,398,cs),
(529,529,o),
(476,767,o),
(293,767,cs),
(133,767,o),
(42,588,o),
(42,352,cs)
);
},
{
closed = 1;
nodes = (
(123,596,o),
(180,730,o),
(273,730,cs),
(386,730,o),
(448,545,o),
(448,355,cs),
(448,158,o),
(387,20,o),
(297,20,cs),
(174,20,o),
(123,218,o),
(123,393,cs)
);
}
);
width = 571;
}
);
note = zero;
unicode = 48;
},
{
glyphname = one;
layers = (
{
hints = (
{
horizontal = 1;
place = (-3, 15);
place = (-3, 15);
type = Stem;
},
{
horizontal = 1;
place = (767, -20);
target = down;
type = TopGhost;
},
{
place = (262, 84);
place = (262, 84);
type = Stem;
}
);
layerId = m01;
shapes = (
{
closed = 1;
nodes = (
(341,486,ls),
(342,639,o),
(346,738,o),
(346,746,cs),
(346,756,o),
(343,767,o),
(335,767,cs),
(328,767,o),
(320,761,o),
(311,755,cs),
(118,626,ls),
(114,623,o),
(111,619,o),
(111,616,cs),
(111,612,o),
(115,607,o),
(118,607,cs),
(122,607,o),
(125,608,o),
(130,611,cs),
(155,623,o),
(225,659,o),
(244,659,cs),
(260,659,o),
(262,648,o),
(262,628,cs),
(262,573,o),
(262,530,o),
(262,476,cs),
(262,301,ls),
(262,201,o),
(262,115,o),
(259,71,cs),
(257,40,o),
(250,25,o),
(217,19,cs),
(198,15,o),
(149,12,o),
(137,12,cs),
(133,12,o),
(129,8,o),
(129,4,cs),
(129,-1,o),
(135,-3,o),
(146,-3,cs),
(210,-3,o),
(294,0,o),
(299,0,cs),
(304,0,o),
(368,-3,o),
(443,-3,cs),
(455,-3,o),
(460,-1,o),
(460,4,cs),
(460,8,o),
(455,12,o),
(451,12,cs),
(442,12,o),
(400,15,o),
(385,18,cs),
(353,25,o),
(349,40,o),
(345,71,cs),
(340,115,o),
(339,201,o),
(340,301,cs)
);
}
);
width = 571;
}
);
note = one;
unicode = 49;
},
{
glyphname = two;
layers = (
{
hints = (
{
horizontal = 1;
place = (0, 60);
place = (0, 60);
type = Stem;
},
{
horizontal = 1;
place = (731, 36);
place = (731, 36);
type = Stem;
},
{
place = (78, 23);
place = (78, 23);
type = Stem;
},
{
place = (402, 88);
place = (402, 88);
type = Stem;
}
);
layerId = m01;
shapes = (
{
closed = 1;
nodes = (
(428,0,ls),
(470,0,o),
(485,3,o),
(493,30,cs),
(503,64,o),
(523,142,o),
(523,161,cs),
(523,167,o),
(522,176,o),
(517,176,cs),
(511,176,o),
(508,172,o),
(505,161,cs),
(493,108,o),
(461,72,o),
(388,65,cs),
(352,61,o),
(234,60,o),
(217,60,cs),
(144,60,ls),
(139,60,o),
(137,63,o),
(142,67,cs),
(266,173,o),
(490,358,o),
(490,565,cs),
(490,671,o),
(415,767,o),
(264,767,cs),
(183,767,o),
(125,749,o),
(88,732,c),
(79,726,o),
(78,723,o),
(78,717,cs),
(78,686,o),
(83,603,o),
(84,594,cs),
(85,585,o),
(88,581,o),
(92,581,cs),
(97,581,o),
(101,587,o),
(101,596,cs),
(101,635,o),
(112,670,o),
(136,693,cs),
(165,720,o),
(195,731,o),
(243,731,cs),
(310,731,o),
(402,689,o),
(402,546,cs),
(402,354,o),
(253,216,o),
(53,38,cs),
(45,31,o),
(35,22,o),
(35,14,cs),
(35,6,o),
(42,0,o),
(49,0,cs)
);
}
);
width = 571;
}
);
note = two;
unicode = 50;
},
{
glyphname = three;
layers = (
{
hints = (
{
horizontal = 1;
place = (-17, 43);
place = (-17, 43);
type = Stem;
},
{
horizontal = 1;
place = (731, 36);
place = (731, 36);
type = Stem;
},
{
place = (100, 21);
place = (100, 21);
type = Stem;
},
{
place = (420, 84);
place = (420, 84);
type = Stem;
},
{
place = (391, 82);
place = (391, 82);
type = Stem;
}
);
layerId = m01;
shapes = (
{
closed = 1;
nodes = (
(420,84,o),
(340,26,o),
(239,26,cs),
(134,26,o),
(96,84,o),
(89,161,cs),
(88,172,o),
(87,175,o),
(82,175,cs),
(77,175,o),
(75,170,o),
(74,160,cs),
(71,138,o),
(67,82,o),
(67,35,cs),
(67,23,o),
(69,16,o),
(83,7,cs),
(104,-5,o),
(164,-17,o),
(205,-17,cs),
(383,-17,o),
(504,100,o),
(504,240,cs),
(504,356,o),
(402,417,o),
(339,432,c),
(339,437,l),
(370,451,o),
(473,517,o),
(473,617,cs),
(473,667,o),
(438,767,o),
(275,767,cs),
(200,767,o),
(144,748,o),
(113,733,c),
(101,725,o),
(100,721,o),
(100,712,cs),
(100,689,o),
(103,644,o),
(107,612,cs),
(108,603,o),
(111,601,o),
(114,601,cs),
(117,601,o),
(121,603,o),
(121,613,cs),
(121,690,o),
(174,731,o),
(247,731,cs),
(365,731,o),
(391,638,o),
(391,596,cs),
(391,479,o),
(281,431,o),
(232,422,cs),
(219,420,o),
(209,417,o),
(209,410,cs),
(209,403,o),
(216,401,o),
(235,397,cs),
(300,384,o),
(420,337,o),
(420,203,cs)
);
}
);
width = 571;
}
);
note = three;
unicode = 51;
},
{
glyphname = four;
layers = (
{
hints = (
{
horizontal = 1;
place = (-3, 15);
place = (-3, 15);
type = Stem;
},
{
horizontal = 1;
place = (225, 54);
place = (225, 54);
type = Stem;
},
{
horizontal = 1;
place = (767, -20);
target = down;
type = TopGhost;
},
{
place = (340, 76);
place = (340, 76);
type = Stem;
}
);
layerId = m01;
shapes = (
{
closed = 1;
nodes = (
(416,600,ls),
(416,655,o),
(417,735,o),
(417,750,cs),
(417,760,o),
(414,767,o),
(407,767,cs),
(400,767,o),
(394,760,o),
(386,749,cs),
(354,705,o),
(29,265,o),
(23,258,cs),
(19,253,o),
(14,245,o),
(14,237,cs),
(14,228,o),
(23,225,o),
(35,225,cs),
(340,225,l),
(340,192,o),
(342,115,o),
(338,71,cs),
(335,41,o),
(328,20,o),
(295,15,cs),
(279,13,o),
(257,12,o),
(248,12,cs),
(243,12,o),
(240,8,o),
(240,4,cs),
(240,-1,o),
(245,-3,o),
(256,-3,cs),
(311,-3,o),
(365,0,o),
(372,0,cs),
(379,0,o),
(443,-3,o),
(498,-3,cs),
(509,-3,o),
(514,-1,o),
(514,4,cs),
(514,8,o),
(510,12,o),
(505,12,cs),
(495,12,o),
(475,13,o),
(461,16,cs),
(429,24,o),
(421,41,o),
(418,71,cs),
(414,115,o),
(416,192,o),
(416,225,c),
(508,225,ls),
(520,225,o),
(524,228,o),
(529,238,c),
(533,250,o),
(538,273,o),
(538,278,cs),
(538,283,o),
(538,290,o),
(533,290,cs),
(529,290,o),
(519,279,o),
(492,279,cs),
(416,279,l)
);
},
{
closed = 1;
nodes = (
(340,279,l),
(84,279,l),
(103,304,o),
(323,607,o),
(338,633,c),
(340,633,l)
);
}
);
width = 571;
}
);
note = four;
unicode = 52;
},
{
glyphname = five;
layers = (
{
hints = (
{
horizontal = 1;
place = (-17, 44);
place = (-17, 44);
type = Stem;
},
{
horizontal = 1;
place = (687, 63);
place = (687, 63);
type = Stem;
},
{
place = (77, 21);
place = (77, 21);
type = Stem;
},
{
place = (411, 77);
place = (411, 77);
type = Stem;
},
{
place = (467, 27);
place = (467, 27);
type = Stem;
},
{
horizontal = 1;
place = (757, -20);
target = down;
type = TopGhost;
}
);
layerId = m01;
shapes = (
{
closed = 1;
nodes = (
(190,687,l),
(379,687,ls),
(458,687,o),
(467,661,o),
(467,623,cs),
(467,616,o),
(469,610,o),
(473,610,cs),
(477,610,o),
(480,616,o),
(481,621,cs),
(491,694,o),
(494,738,o),
(494,747,cs),
(494,755,o),
(491,757,o),
(487,757,cs),
(484,757,o),
(478,755,o),
(466,754,cs),
(454,752,o),
(436,750,o),
(408,750,cs),
(173,750,ls),
(162,750,o),
(155,747,o),
(154,737,cs),
(131,482,ls),
(130,471,o),
(137,465,o),
(157,464,cs),
(234,460,o),
(411,382,o),
(411,221,cs),
(411,83,o),
(319,27,o),
(235,27,cs),
(162,27,o),
(98,49,o),
(98,156,cs),
(98,168,o),
(96,173,o),
(90,173,cs),
(86,173,o),
(83,165,o),
(81,155,cs),
(76,123,o),
(77,63,o),
(77,29,cs),
(77,19,o),
(79,10,o),
(96,1,cs),
(121,-13,o),
(158,-17,o),
(188,-17,cs),
(390,-17,o),
(488,130,o),
(488,259,cs),
(488,437,o),
(303,514,o),
(176,533,c)
);
}
);
width = 571;
}
);
note = five;
unicode = 53;
},
{
glyphname = six;
layers = (
{
hints = (
{
horizontal = 1;
place = (-17, 38);
place = (-17, 38);
type = Stem;
},
{
horizontal = 1;
place = (405, 38);
place = (405, 38);
type = Stem;
},
{
horizontal = 1;
place = (767, -20);
target = down;
type = TopGhost;
},
{
place = (49, 87);
place = (49, 87);
type = Stem;
},
{
place = (446, 83);
place = (446, 83);
type = Stem;
}
);
layerId = m01;
shapes = (
{
closed = 1;
nodes = (
(446,85,o),
(383,21,o),
(303,21,cs),
(188,21,o),
(136,154,o),
(136,271,cs),
(136,508,o),
(277,669,o),
(405,740,cs),
(415,746,o),
(424,750,o),
(424,758,cs),
(424,764,o),
(420,767,o),
(416,767,cs),
(412,767,o),
(404,764,o),
(395,760,cs),
(201,676,o),
(49,465,o),
(49,271,cs),
(49,89,o),
(144,-17,o),
(284,-17,cs),
(358,-17,o),
(410,5,o),
(457,50,cs),
(501,93,o),
(529,161,o),
(529,240,cs),
(529,329,o),
(467,443,o),
(328,443,cs),
(272,443,o),
(232,422,o),
(212,408,cs),
(206,404,o),
(203,401,o),
(203,396,cs),
(203,391,o),
(204,388,o),
(207,388,cs),
(210,388,o),
(217,391,o),
(220,392,cs),
(243,403,o),
(269,405,o),
(295,405,cs),
(356,405,o),
(446,334,o),
(446,195,cs)
);
}
);
width = 571;
}
);
note = six;
unicode = 54;
},
{
glyphname = seven;
layers = (
{
hints = (
{
horizontal = 1;
place = (-17, 21);
target = up;
type = BottomGhost;
},
{
horizontal = 1;
place = (687, 63);
place = (687, 63);
type = Stem;
},
{
place = (82, 462);
place = (82, 462);
type = Stem;
},
{
horizontal = 1;
place = (687, 73);
place = (687, 73);
type = Stem;
}
);
layerId = m01;
shapes = (
{
closed = 1;
nodes = (
(202,750,ls),
(137,750,o),
(113,760,o),
(107,760,cs),
(101,760,o),
(97,756,o),
(97,746,cs),
(97,736,o),
(82,619,o),
(82,587,cs),
(82,576,o),
(83,571,o),
(88,571,cs),
(93,571,o),
(96,576,o),
(97,585,cs),
(100,613,o),
(114,645,o),
(135,662,cs),
(159,682,o),
(199,687,o),
(228,687,cs),
(474,687,l),
(323,425,o),
(215,158,o),
(176,27,cs),
(173,18,o),
(170,3,o),
(170,-7,cs),
(170,-14,o),
(173,-17,o),
(179,-17,cs),
(199,-17,o),
(277,24,o),
(277,44,cs),
(277,55,o),
(275,62,o),
(277,79,cs),
(292,209,o),
(457,601,o),
(538,721,cs),
(543,729,o),
(544,736,o),
(544,740,cs),
(544,746,o),
(539,750,o),
(526,750,cs)
);
}
);
width = 571;
}
);
note = seven;
unicode = 55;
},
{
glyphname = eight;
layers = (
{
hints = (
{
horizontal = 1;
place = (-17, 38);
place = (-17, 38);
type = Stem;
},
{
horizontal = 1;
place = (733, 34);
place = (733, 34);
type = Stem;
},
{
place = (53, 77);
place = (53, 77);
type = Stem;
},
{
place = (441, 77);
place = (441, 77);
type = Stem;
},
{
place = (91, 71);
place = (91, 71);
type = Stem;
},
{
place = (417, 70);
place = (417, 70);
type = Stem;
}
);
layerId = m01;
shapes = (
{
closed = 1;
nodes = (
(53,56,o),
(155,-17,o),
(280,-17,cs),
(423,-17,o),
(518,87,o),
(518,203,cs),
(518,326,o),
(410,387,o),
(344,421,c),
(400,449,o),
(487,509,o),
(487,614,cs),
(487,712,o),
(408,767,o),
(304,767,cs),
(158,767,o),
(91,664,o),
(91,588,cs),
(91,499,o),
(153,446,o),
(231,400,c),
(140,364,o),
(53,289,o),
(53,177,cs)
);
},
{
closed = 1;
nodes = (
(195,21,o),
(130,98,o),
(130,187,cs),
(130,287,o),
(191,348,o),
(265,384,c),
(355,337,o),
(441,289,o),
(441,180,cs),
(441,91,o),
(380,21,o),
(288,21,cs)
);
},
{
closed = 1;
nodes = (
(369,733,o),
(417,678,o),
(417,602,cs),
(417,500,o),
(349,460,o),
(310,437,c),
(228,481,o),
(162,523,o),
(162,607,cs),
(162,662,o),
(202,733,o),
(292,733,cs)
);
}
);
width = 571;
}
);
note = eight;
unicode = 56;
},
{
glyphname = nine;
layers = (
{
hints = (
{
horizontal = 1;
place = (341, 37);
place = (341, 37);
type = Stem;
},
{
horizontal = 1;
place = (730, 37);
place = (730, 37);
type = Stem;
},
{
place = (49, 78);
place = (49, 78);
type = Stem;
},
{
place = (429, 88);
place = (429, 88);
type = Stem;
}
);
layerId = m01;
shapes = (
{
closed = 1;
nodes = (
(150,767,o),
(49,672,o),
(49,534,cs),
(49,450,o),
(109,341,o),
(251,341,cs),
(291,341,o),
(342,356,o),
(371,387,cs),
(374,390,o),
(375,392,o),
(375,395,cs),
(375,398,o),
(373,402,o),
(370,402,cs),
(367,402,o),
(363,400,o),
(357,396,cs),
(344,388,o),
(324,378,o),
(277,378,cs),
(250,378,o),
(127,411,o),
(127,577,cs),
(127,656,o),
(174,730,o),
(264,730,cs),
(352,730,o),
(429,641,o),
(429,466,cs),
(429,231,o),
(275,65,o),
(157,0,cs),
(151,-3,o),
(147,-8,o),
(147,-14,cs),
(147,-20,o),
(151,-24,o),
(155,-24,cs),
(159,-24,o),
(165,-23,o),
(171,-20,cs),
(293,41,o),
(517,214,o),
(517,495,cs),
(517,647,o),
(429,767,o),
(288,767,cs)
);
}
);
width = 571;
}
);
note = nine;
unicode = 57;
},
{
glyphname = colon;
kernLeft = colon;
layers = (
{
hints = (
{
horizontal = 1;
place = (30, 110);
place = (30, 110);
type = Stem;
},
{
horizontal = 1;
place = (368, 110);
place = (368, 110);
type = Stem;
},
{
place = (70, 110);
place = (70, 110);
type = Stem;
}
);
layerId = m01;
shapes = (
{
closed = 1;
nodes = (
(158,30,o),
(180,56,o),
(180,88,cs),
(180,120,o),
(156,140,o),
(125,140,cs),
(86,140,o),
(70,108,o),
(70,85,cs),
(70,60,o),
(86,30,o),
(124,30,cs)
);
},
{
closed = 1;
nodes = (
(158,368,o),
(180,394,o),
(180,426,cs),
(180,458,o),
(156,478,o),
(125,478,cs),
(86,478,o),
(70,446,o),
(70,423,cs),
(70,398,o),
(86,368,o),
(124,368,cs)
);
}
);
width = 250;
}
);
note = colon;
unicode = 58;
},
{
glyphname = semicolon;
kernLeft = colon;
layers = (
{
hints = (
{
horizontal = 1;
place = (368, 110);
place = (368, 110);
type = Stem;
},
{
place = (70, 110);
place = (70, 110);
type = Stem;
},
{
place = (116, 63);
place = (116, 63);
type = Stem;
}
);
layerId = m01;
shapes = (
{
closed = 1;
nodes = (
(116,-21,o),
(109,-44,o),
(92,-73,cs),
(90,-77,o),
(85,-83,o),
(85,-87,cs),
(85,-91,o),
(89,-94,o),
(92,-94,cs),
(96,-94,o),
(101,-90,o),
(105,-85,cs),
(133,-54,o),
(159,-1,o),
(169,22,cs),
(174,35,o),
(179,53,o),
(179,61,cs),
(179,70,o),
(175,84,o),
(162,104,cs),
(152,120,o),
(149,123,o),
(144,123,cs),
(118,123,o),
(82,97,o),
(82,69,cs),
(82,57,o),
(116,44,o),
(116,-2,cs)
);
},
{
closed = 1;
nodes = (
(158,368,o),
(180,394,o),
(180,426,cs),
(180,458,o),
(156,478,o),
(125,478,cs),
(86,478,o),
(70,446,o),
(70,423,cs),
(70,398,o),
(86,368,o),
(124,368,cs)
);
}
);
width = 250;
}
);
note = semicolon;
unicode = 59;
},
{
glyphname = less;
layers = (
{
hints = (
{
horizontal = 1;
place = (39, 447);
place = (39, 447);
type = Stem;
},
{
place = (25, 55);
place = (25, 55);
type = Stem;
}
);
layerId = m01;
shapes = (
{
closed = 1;
nodes = (
(25,237,l),
(451,39,l),
(451,92,l),
(80,263,l),
(451,433,l),
(451,486,l),
(25,290,l)
);
}
);
width = 510;
}
);
note = less;
unicode = 60;
},
{
glyphname = equal;
layers = (
{
hints = (
{
horizontal = 1;
place = (153, 51);
place = (153, 51);
type = Stem;
},
{
horizontal = 1;
place = (329, 51);
place = (329, 51);
type = Stem;
},
{
place = (42, 426);
place = (42, 426);
type = Stem;
}
);
layerId = m01;
shapes = (
{
closed = 1;
nodes = (
(468,329,l),
(468,380,l),
(42,380,l),
(42,329,l)
);
},
{
closed = 1;
nodes = (
(468,153,l),
(468,204,l),
(42,204,l),
(42,153,l)
);
}
);
width = 510;
}
);
note = equal;
unicode = 61;
},
{
glyphname = greater;
layers = (
{
hints = (
{
horizontal = 1;
place = (39, 447);
place = (39, 447);
type = Stem;
},
{
place = (414, 54);
place = (414, 54);
type = Stem;
}
);
layerId = m01;
shapes = (
{
closed = 1;
nodes = (
(468,237,l),
(468,290,l),
(42,486,l),
(42,433,l),
(414,263,l),
(42,92,l),
(42,39,l)
);
}
);
width = 510;
}
);
note = greater;
unicode = 62;
},
{
glyphname = question;
layers = (
{
hints = (
{
horizontal = 1;
place = (-17, 102);
place = (-17, 102);
type = Stem;
},
{
horizontal = 1;
place = (733, 34);
place = (733, 34);
type = Stem;
},
{
place = (174, 102);
place = (174, 102);
type = Stem;
},
{
place = (340, 88);
place = (340, 88);
type = Stem;
},
{
place = (161, 54);
place = (161, 54);
type = Stem;
}
);
layerId = m01;
shapes = (
{
closed = 1;
nodes = (
(314,733,o),
(340,653,o),
(340,604,cs),
(340,538,o),
(322,483,o),
(252,394,cs),
(230,366,o),
(206,341,o),
(183,311,cs),
(168,292,o),
(161,275,o),
(161,261,cs),
(161,243,o),
(170,227,o),
(190,202,cs),
(202,187,o),
(223,167,o),
(232,167,cs),
(236,167,o),
(243,172,o),
(243,176,cs),
(243,179,o),
(241,184,o),
(234,193,cs),
(220,212,o),
(215,229,o),
(215,244,cs),
(215,261,o),
(219,277,o),
(256,324,cs),
(352,443,o),
(428,494,o),
(428,611,cs),
(428,683,o),
(379,767,o),
(247,767,cs),
(170,767,o),
(111,745,o),
(81,727,cs),
(71,721,o),
(70,717,o),
(70,711,cs),
(70,672,o),
(71,608,o),
(74,594,cs),
(75,587,o),
(77,584,o),
(82,584,cs),
(87,584,o),
(89,591,o),
(90,601,cs),
(93,635,o),
(101,665,o),
(125,694,cs),
(141,714,o),
(174,733,o),
(223,733,cs)
);
},
{
closed = 1;
nodes = (
(255,-17,o),
(276,7,o),
(276,37,cs),
(276,66,o),
(254,85,o),
(225,85,cs),
(189,85,o),
(174,55,o),
(174,34,cs),
(174,11,o),
(189,-17,o),
(224,-17,cs)
);
}
);
width = 488;
}
);
note = question;
unicode = 63;
},
{
glyphname = at;
layers = (
{
hints = (
{
horizontal = 1;
place = (-108, 37);
place = (-108, 37);
type = Stem;
},
{
horizontal = 1;
place = (97, 42);
place = (97, 42);
type = Stem;
},
{
horizontal = 1;
place = (455, 35);
place = (455, 35);
type = Stem;
},
{
horizontal = 1;
place = (649, 25);
place = (649, 25);
type = Stem;
},
{
place = (66, 67);
place = (66, 67);
type = Stem;
},
{
place = (267, 73);
place = (267, 73);
type = Stem;
},
{
place = (505, 69);
place = (505, 69);
type = Stem;
},
{
place = (794, 46);
place = (794, 46);
type = Stem;
},
{
horizontal = 1;
place = (101, 57);
place = (101, 57);
type = Stem;
}
);
layerId = m01;
shapes = (
{
closed = 1;
nodes = (
(840,556,o),
(735,674,o),
(516,674,cs),
(274,674,o),
(66,461,o),
(66,219,cs),
(66,-5,o),
(218,-108,o),
(397,-108,cs),
(531,-108,o),
(641,-51,o),
(693,0,cs),
(708,15,o),
(711,23,o),
(709,27,cs),
(707,32,o),
(698,33,o),
(682,20,cs),
(615,-34,o),
(552,-71,o),
(419,-71,cs),
(252,-71,o),
(133,39,o),
(133,227,cs),
(133,465,o),
(275,649,o),
(509,649,cs),
(697,649,o),
(794,533,o),
(794,388,cs),
(794,235,o),
(717,139,o),
(637,139,cs),
(569,139,o),
(568,206,o),
(574,277,cs),
(577,317,o),
(589,393,o),
(600,430,cs),
(612,472,o),
(632,502,o),
(637,510,c),
(639,516,o),
(635,523,o),
(629,521,cs),
(610,515,o),
(580,489,o),
(571,478,c),
(562,482,o),
(545,490,o),
(515,490,cs),
(483,490,o),
(430,467,o),
(386,434,cs),
(357,412,o),
(267,338,o),
(267,196,cs),
(267,144,o),
(291,101,o),
(320,101,cs),
(362,101,o),
(436,150,o),
(502,249,c),
(505,248,l),
(502,196,o),
(503,177,o),
(511,148,cs),
(520,116,o),
(550,97,o),
(581,97,cs),
(622,97,o),
(664,111,o),
(706,139,cs),
(789,194,o),
(840,287,o),
(840,391,cs)
);
},
{
closed = 1;
nodes = (
(526,382,o),
(521,357,o),
(509,299,c),
(474,241,o),
(400,158,o),
(364,158,cs),
(348,158,o),
(340,194,o),
(340,219,cs),
(340,263,o),
(351,318,o),
(370,363,cs),
(398,427,o),
(435,455,o),
(484,455,cs),
(505,455,o),
(535,443,o),
(545,437,c)
);
}
);
width = 906;
}
);
note = at;
unicode = 64;
},
{
glyphname = A;
kernLeft = A;
kernRight = A;
layers = (
{
hints = (
{
horizontal = 1;
place = (-3, 14);
place = (-3, 14);
type = Stem;
},
{
horizontal = 1;
place = (292, 36);
place = (292, 36);
type = Stem;
},
{
horizontal = 1;
place = (767, -20);
target = down;
type = TopGhost;
},
{
place = (-27, 762);
place = (-27, 762);
type = Stem;
}
);
layerId = m01;
shapes = (
{
closed = 1;
nodes = (
(95,107,ls),
(77,57,o),
(57,19,o),
(11,13,cs),
(3,12,o),
(-11,11,o),
(-18,11,cs),
(-23,11,o),
(-27,9,o),
(-27,5,cs),
(-27,-1,o),
(-21,-3,o),
(-8,-3,cs),
(39,-3,o),
(94,0,o),
(105,0,cs),
(116,0,o),
(159,-3,o),
(183,-3,cs),
(192,-3,o),
(198,-1,o),
(198,5,cs),
(198,9,o),
(195,11,o),
(188,11,cs),
(178,11,ls),
(161,11,o),
(140,20,o),
(140,40,cs),
(140,58,o),
(145,82,o),
(154,107,cs),
(214,284,ls),
(216,289,o),
(219,292,o),
(224,292,cs),
(439,292,ls),
(444,292,o),
(446,290,o),
(448,286,cs),
(541,40,ls),
(547,24,o),
(541,15,o),
(535,13,cs),
(531,12,o),
(528,10,o),
(528,6,cs),
(528,0,o),
(539,0,o),
(558,-1,cs),
(627,-3,o),
(700,-3,o),
(715,-3,cs),
(726,-3,o),
(735,-1,o),
(735,5,cs),
(735,10,o),
(731,11,o),
(725,11,cs),
(715,11,o),
(700,12,o),
(685,17,cs),
(664,23,o),
(635,39,o),
(599,128,cs),
(538,280,o),
(381,693,o),
(366,731,cs),
(354,762,o),
(350,767,o),
(344,767,cs),
(338,767,o),
(334,761,o),
(322,728,cs)
);
},
{
closed = 1;
nodes = (
(235,328,ls),
(232,328,o),
(230,330,o),
(232,335,cs),
(320,605,ls),
(325,620,o),
(330,620,o),
(335,605,cs),
(430,335,ls),
(431,331,o),
(431,328,o),
(426,328,cs)
);
}
);
width = 700;
}
);
note = A;
unicode = 65;
},
{
glyphname = B;
kernLeft = B;
kernRight = B;
layers = (
{
hints = (
{
horizontal = 1;
place = (-6, 32);
place = (-6, 32);
type = Stem;
},
{
horizontal = 1;
place = (399, 27);
place = (399, 27);
type = Stem;
},
{
horizontal = 1;
place = (725, 28);
place = (725, 28);
type = Stem;
},
{
place = (178, 80);
place = (178, 80);
type = Stem;
},
{
place = (522, 86);
place = (522, 86);
type = Stem;
},
{
horizontal = 1;
place = (-6, 21);
target = up;
type = BottomGhost;
},
{
horizontal = 1;
place = (-3, 14);
place = (-3, 14);
type = Stem;
},
{
horizontal = 1;
place = (0, 21);
target = up;
type = BottomGhost;
},
{
place = (453, 76);
place = (453, 76);
type = Stem;
},
{
horizontal = 1;
place = (739, 14);
place = (739, 14);
type = Stem;
}
);
layerId = m01;
shapes = (
{
closed = 1;
nodes = (
(178,287,ls),
(178,191,o),
(178,112,o),
(173,70,cs),
(169,41,o),
(164,19,o),
(144,15,cs),
(135,13,o),
(123,11,o),
(114,11,cs),
(108,11,o),
(106,8,o),
(106,5,cs),
(106,-1,o),
(111,-3,o),
(122,-3,cs),
(137,-3,o),
(160,-1,o),
(180,-1,cs),
(201,0,o),
(218,0,o),
(220,0,cs),
(224,0,o),
(252,-1,o),
(281,-3,cs),
(310,-4,o),
(342,-6,o),
(353,-6,cs),
(524,-6,o),
(608,105,o),
(608,212,cs),
(608,329,o),
(509,400,o),
(435,423,c),
(482,472,o),
(529,521,o),
(529,603,cs),
(529,653,o),
(493,753,o),
(329,753,cs),
(283,753,o),
(244,750,o),
(220,750,cs),
(215,750,o),
(152,753,o),
(107,753,cs),
(96,753,o),
(91,751,o),
(91,745,cs),
(91,741,o),
(95,739,o),
(99,739,cs),
(108,739,o),
(125,738,o),
(133,736,cs),
(166,729,o),
(174,713,o),
(176,679,cs),
(178,647,o),
(178,619,o),
(178,463,cs)
);
},
{
closed = 1;
nodes = (
(258,709,ls),
(258,715,o),
(261,718,o),
(270,720,cs),
(286,724,o),
(307,725,o),
(318,725,cs),
(416,725,o),
(453,636,o),
(453,553,cs),
(453,512,o),
(438,476,o),
(417,452,cs),
(396,428,o),
(382,426,o),
(326,426,cs),
(289,426,o),
(271,429,o),
(265,430,c),
(260,432,o),
(258,434,o),
(258,441,cs)
);
},
{
closed = 1;
nodes = (
(258,392,ls),
(258,397,o),
(260,399,o),
(264,399,cs),
(279,399,o),
(329,399,o),
(342,397,cs),
(366,394,o),
(391,391,o),
(425,368,cs),
(502,315,o),
(522,228,o),
(522,168,cs),
(522,55,o),
(435,26,o),
(381,26,cs),
(363,26,o),
(320,28,o),
(293,41,cs),
(262,56,o),
(262,70,o),
(259,119,cs),
(258,134,o),
(258,258,o),
(258,335,cs)
);
}
);
width = 687;
}
);
note = B;
unicode = 66;
},
{
glyphname = C;
kernLeft = C;
kernRight = C;
layers = (
{
hints = (
{
horizontal = 1;
place = (-17, 46);
place = (-17, 46);
type = Stem;
},
{
horizontal = 1;
place = (729, 38);
place = (729, 38);
type = Stem;
},
{
place = (64, 90);
place = (64, 90);
type = Stem;
},
{
place = (716, 20);
place = (716, 20);
type = Stem;
}
);
layerId = m01;
shapes = (
{
closed = 1;
nodes = (
(579,-17,o),
(655,-10,o),
(695,6,cs),
(713,14,o),
(715,16,o),
(721,35,cs),
(731,69,o),
(743,156,o),
(743,163,cs),
(743,171,o),
(741,178,o),
(736,178,cs),
(730,178,o),
(728,174,o),
(726,163,cs),
(723,145,o),
(710,101,o),
(689,79,cs),
(649,38,o),
(590,29,o),
(515,29,cs),
(301,29,o),
(154,204,o),
(154,395,cs),
(154,497,o),
(171,586,o),
(244,656,cs),
(279,690,o),
(341,729,o),
(474,729,cs),
(562,729,o),
(639,702,o),
(674,672,cs),
(700,650,o),
(716,609,o),
(716,570,cs),
(716,556,o),
(717,549,o),
(724,549,cs),
(730,549,o),
(732,555,o),
(733,570,cs),
(734,585,o),
(734,640,o),
(736,673,cs),
(738,709,o),
(741,721,o),
(741,729,cs),
(741,735,o),
(739,739,o),
(728,740,cs),
(696,742,o),
(664,748,o),
(626,755,cs),
(577,764,o),
(521,767,o),
(481,767,cs),
(327,767,o),
(236,720,o),
(176,660,cs),
(87,571,o),
(64,454,o),
(64,387,cs),
(64,292,o),
(88,178,o),
(185,91,cs),
(264,20,o),
(365,-17,o),
(515,-17,cs)
);
}
);
width = 805;
}
);
note = C;
unicode = 67;
},
{
glyphname = D;
kernLeft = B;
kernRight = D;
layers = (
{
hints = (
{
horizontal = 1;
place = (-12, 34);
place = (-12, 34);
type = Stem;
},
{
horizontal = 1;
place = (739, 14);
place = (739, 14);
type = Stem;
},
{
place = (178, 84);
place = (178, 84);
type = Stem;
},
{
place = (763, 90);
place = (763, 90);
type = Stem;
},
{
horizontal = 1;
place = (-3, 14);
place = (-3, 14);
type = Stem;
},
{
horizontal = 1;
place = (0, 21);
target = up;
type = BottomGhost;
},
{
horizontal = 1;
place = (719, 34);
place = (719, 34);
type = Stem;
}
);
layerId = m01;
shapes = (
{
closed = 1;
nodes = (
(178,287,ls),
(178,191,o),
(178,112,o),
(173,70,cs),
(169,41,o),
(164,19,o),
(144,15,cs),
(135,13,o),
(123,11,o),
(114,11,cs),
(108,11,o),
(106,8,o),
(106,5,cs),
(106,-1,o),
(111,-3,o),
(122,-3,cs),
(137,-3,o),
(160,-1,o),
(180,-1,cs),
(201,0,o),
(218,0,o),
(220,0,cs),
(225,0,o),
(259,-3,o),
(303,-6,cs),
(346,-9,o),
(399,-12,o),
(442,-12,cs),
(612,-12,o),
(702,58,o),
(745,103,cs),
(801,162,o),
(853,259,o),
(853,385,cs),
(853,504,o),
(806,587,o),
(756,639,cs),
(637,762,o),
(454,753,o),
(355,753,cs),
(295,753,o),
(232,750,o),
(220,750,cs),
(215,750,o),
(152,753,o),
(107,753,cs),
(96,753,o),
(91,751,o),
(91,745,cs),
(91,741,o),
(95,739,o),
(99,739,cs),
(108,739,o),
(125,738,o),
(133,736,cs),
(166,729,o),
(174,713,o),
(176,679,cs),
(178,647,o),
(178,619,o),
(178,463,cs)
);
},
{
closed = 1;
nodes = (
(262,479,ls),
(262,556,o),
(262,658,o),
(263,692,cs),
(263,703,o),
(266,708,o),
(275,712,cs),
(283,716,o),
(320,719,o),
(340,719,cs),
(459,719,o),
(573,705,o),
(667,606,cs),
(708,563,o),
(763,481,o),
(763,354,cs),
(763,262,o),
(735,166,o),
(683,115,cs),
(624,56,o),
(538,22,o),
(445,22,cs),
(327,22,o),
(288,43,o),
(275,62,cs),
(267,73,o),
(265,113,o),
(264,138,cs),
(263,157,o),
(262,249,o),
(262,355,cs)
);
}
);
width = 917;
}
);
note = D;
unicode = 68;
},
{
glyphname = E;
kernLeft = B;
kernRight = E;
layers = (
{
hints = (
{
horizontal = 1;
place = (-6, 40);
place = (-6, 40);
type = Stem;
},
{
horizontal = 1;
place = (300, 21);
target = up;
type = BottomGhost;
},
{
horizontal = 1;
place = (382, 36);
place = (382, 36);
type = Stem;
},
{
horizontal = 1;
place = (714, 36);
place = (714, 36);
type = Stem;
},
{
place = (178, 84);
place = (178, 84);
type = Stem;
},
{
place = (468, 14);
place = (468, 14);
type = Stem;
},
{
horizontal = 1;
place = (-6, 21);
target = up;
type = BottomGhost;
},
{
horizontal = 1;
place = (-3, 14);
place = (-3, 14);
type = Stem;
},
{
horizontal = 1;
place = (0, 21);
target = up;
type = BottomGhost;
},
{
horizontal = 1;
place = (761, -20);
target = down;
type = TopGhost;
},
{
horizontal = 1;
place = (739, 14);
place = (739, 14);
type = Stem;
}
);
layerId = m01;
shapes = (
{
closed = 1;
nodes = (
(178,287,ls),
(178,191,o),
(178,112,o),
(173,70,cs),
(169,41,o),
(164,19,o),
(144,15,cs),
(135,13,o),
(123,11,o),
(114,11,cs),
(108,11,o),
(106,8,o),
(106,5,cs),
(106,-1,o),
(111,-3,o),
(122,-3,cs),
(137,-3,o),
(160,-1,o),
(180,-1,cs),
(201,0,o),
(218,0,o),
(220,0,cs),
(235,0,o),
(259,-1,o),
(298,-3,cs),
(337,-4,o),
(392,-6,o),
(467,-6,cs),
(506,-6,o),
(514,-6,o),
(521,20,cs),
(526,41,o),
(534,109,o),
(534,117,cs),
(534,124,o),
(534,132,o),
(528,132,cs),
(523,132,o),
(521,128,o),
(519,117,cs),
(512,76,o),
(500,56,o),
(474,45,cs),
(448,34,o),
(404,34,o),
(378,34,cs),
(280,34,o),
(265,47,o),
(262,116,cs),
(261,137,o),
(262,253,o),
(262,287,cs),
(262,375,ls),
(262,379,o),
(264,382,o),
(269,382,cs),
(286,382,o),
(385,380,o),
(412,377,cs),
(451,373,o),
(460,356,o),
(464,342,cs),
(468,329,o),
(468,319,o),
(468,309,cs),
(468,304,o),
(470,300,o),
(475,300,cs),
(482,300,o),
(482,311,o),
(482,319,cs),
(482,326,o),
(484,363,o),
(486,383,cs),
(489,416,o),
(494,433,o),
(494,439,cs),
(494,445,o),
(492,447,o),
(489,447,cs),
(485,447,o),
(481,442,o),
(474,434,cs),
(465,424,o),
(451,422,o),
(427,420,cs),
(404,418,o),
(281,418,o),
(268,418,cs),
(263,418,o),
(262,421,o),
(262,428,cs),
(262,704,ls),
(262,711,o),
(264,714,o),
(268,714,cs),
(279,714,o),
(388,713,o),
(405,711,cs),
(459,705,o),
(469,693,o),
(476,677,cs),
(481,665,o),
(482,648,o),
(482,641,cs),
(482,633,o),
(484,628,o),
(490,628,cs),
(494,628,o),
(496,634,o),
(497,639,cs),
(499,651,o),
(501,695,o),
(502,705,cs),
(505,733,o),
(510,745,o),
(510,752,cs),
(510,757,o),
(509,761,o),
(506,761,cs),
(501,761,o),
(497,757,o),
(492,756,cs),
(484,754,o),
(468,752,o),
(449,751,cs),
(426,750,o),
(227,750,o),
(220,750,cs),
(179,752,ls),
(157,753,o),
(130,753,o),
(107,753,cs),
(96,753,o),
(91,751,o),
(91,745,cs),
(91,741,o),
(95,739,o),
(99,739,cs),
(108,739,o),
(125,738,o),
(133,736,cs),
(166,729,o),
(174,713,o),
(176,679,cs),
(178,647,o),
(178,619,o),
(178,463,cs)
);
}
);
width = 610;
}
);
note = E;
unicode = 69;
},
{
glyphname = F;
kernLeft = B;
kernRight = F;
layers = (
{
hints = (
{
horizontal = 1;
place = (-3, 14);
place = (-3, 14);
type = Stem;
},
{
horizontal = 1;
place = (381, 37);
place = (381, 37);
type = Stem;
},
{
horizontal = 1;
place = (713, 38);
place = (713, 38);
type = Stem;
},
{
place = (178, 84);
place = (178, 84);
type = Stem;
},
{
place = (478, 14);
place = (478, 14);
type = Stem;
},
{
horizontal = 1;
place = (761, -20);
target = down;
type = TopGhost;
},
{
horizontal = 1;
place = (739, 14);
place = (739, 14);
type = Stem;
}
);
layerId = m01;
shapes = (
{
closed = 1;
nodes = (
(178,287,ls),
(178,191,o),
(178,112,o),
(173,70,cs),
(169,41,o),
(164,19,o),
(144,15,cs),
(135,13,o),
(123,11,o),
(114,11,cs),
(108,11,o),
(106,8,o),
(106,5,cs),
(106,-1,o),
(111,-3,o),
(122,-3,cs),
(152,-3,o),
(215,0,o),
(220,0,cs),
(225,0,o),
(288,-3,o),
(343,-3,cs),
(354,-3,o),
(359,0,o),
(359,5,cs),
(359,8,o),
(357,11,o),
(351,11,cs),
(342,11,o),
(320,13,o),
(306,15,cs),
(276,19,o),
(270,41,o),
(267,70,cs),
(262,112,o),
(262,191,o),
(262,287,cs),
(262,372,ls),
(262,379,o),
(264,381,o),
(269,381,cs),
(286,381,o),
(395,381,o),
(420,378,cs),
(451,374,o),
(467,356,o),
(472,342,cs),
(476,330,o),
(477,316,o),
(478,306,cs),
(478,301,o),
(480,297,o),
(485,297,cs),
(492,297,o),
(492,307,o),
(492,316,cs),
(492,323,o),
(494,363,o),
(496,383,cs),
(499,416,o),
(504,433,o),
(504,439,cs),
(504,444,o),
(503,447,o),
(499,447,cs),
(495,447,o),
(492,442,o),
(488,437,cs),
(479,424,o),
(466,421,o),
(442,419,cs),
(428,418,o),
(414,418,o),
(397,418,cs),
(269,417,ls),
(263,417,o),
(262,420,o),
(262,426,cs),
(262,702,ls),
(262,710,o),
(265,713,o),
(271,713,cs),
(425,710,ls),
(464,709,o),
(487,691,o),
(493,678,cs),
(499,665,o),
(502,648,o),
(502,640,cs),
(502,633,o),
(504,628,o),
(509,628,cs),
(514,628,o),
(516,634,o),
(517,639,cs),
(519,651,o),
(521,695,o),
(522,705,cs),
(525,733,o),
(530,745,o),
(530,752,cs),
(530,757,o),
(528,761,o),
(524,761,cs),
(520,761,o),
(516,757,o),
(510,755,cs),
(501,752,o),
(485,752,o),
(466,751,cs),
(443,750,o),
(240,749,o),
(220,750,cs),
(179,752,ls),
(157,753,o),
(130,753,o),
(107,753,cs),
(96,753,o),
(91,751,o),
(91,745,cs),
(91,741,o),
(95,739,o),
(99,739,cs),
(108,739,o),
(125,738,o),
(133,736,cs),
(166,729,o),
(174,713,o),
(176,679,cs),
(178,647,o),
(178,619,o),
(178,463,cs)
);
}
);
width = 592;
}
);
note = F;
unicode = 70;
},
{
glyphname = G;
kernLeft = G;
layers = (
{
hints = (
{
horizontal = 1;
place = (-17, 43);
place = (-17, 43);
type = Stem;
},
{
horizontal = 1;
place = (358, 14);
place = (358, 14);
type = Stem;
},
{
horizontal = 1;
place = (730, 37);
place = (730, 37);
type = Stem;
},
{
place = (64, 87);
place = (64, 87);
type = Stem;
},
{
place = (653, 84);
place = (653, 84);
type = Stem;
}
);
layerId = m01;
shapes = (
{
closed = 1;
nodes = (
(653,82,ls),
(653,65,o),
(646,54,o),
(633,47,cs),
(607,32,o),
(555,26,o),
(519,26,cs),
(427,26,o),
(336,56,o),
(257,133,cs),
(222,167,o),
(151,269,o),
(151,410,cs),
(151,527,o),
(192,618,o),
(250,664,cs),
(326,724,o),
(401,730,o),
(464,730,cs),
(593,730,o),
(674,687,o),
(699,649,cs),
(714,625,o),
(719,597,o),
(720,583,cs),
(721,574,o),
(722,568,o),
(727,568,cs),
(734,568,o),
(736,573,o),
(736,589,cs),
(736,689,o),
(743,717,o),
(743,731,cs),
(743,735,o),
(741,739,o),
(731,740,cs),
(706,741,o),
(671,745,o),
(650,750,cs),
(631,754,o),
(560,767,o),
(497,767,cs),
(420,767,o),
(321,760,o),
(231,704,cs),
(142,648,o),
(64,535,o),
(64,375,cs),
(64,250,o),
(122,143,o),
(183,90,cs),
(294,-7,o),
(436,-17,o),
(512,-17,cs),
(570,-17,o),
(660,-6,o),
(724,28,cs),
(736,35,o),
(737,37,o),
(737,82,cs),
(737,194,ls),
(737,236,o),
(737,266,o),
(739,298,cs),
(741,333,o),
(749,350,o),
(776,355,cs),
(788,357,o),
(794,358,o),
(801,358,cs),
(805,358,o),
(809,360,o),
(809,364,cs),
(809,370,o),
(804,372,o),
(793,372,cs),
(763,372,o),
(700,369,o),
(695,369,cs),
(690,369,o),
(627,372,o),
(582,372,cs),
(571,372,o),
(566,370,o),
(566,364,cs),
(566,360,o),
(570,358,o),
(574,358,cs),
(583,358,o),
(600,357,o),
(608,355,cs),
(648,344,o),
(653,333,o),
(653,252,cs)
);
}
);
width = 862;
}
);
note = G;
unicode = 71;
},
{
glyphname = H;
kernLeft = B;
kernRight = H;
layers = (
{
hints = (
{
horizontal = 1;
place = (-3, 14);
place = (-3, 14);
type = Stem;
},
{
horizontal = 1;
place = (398, 38);
place = (398, 38);
type = Stem;
},
{
horizontal = 1;
place = (739, 14);
place = (739, 14);
type = Stem;
},
{
place = (178, 84);
place = (178, 84);
type = Stem;
},
{
place = (698, 84);
place = (698, 84);
type = Stem;
}
);
layerId = m01;
shapes = (
{
closed = 1;
nodes = (
(782,463,ls),
(782,619,o),
(782,647,o),
(784,679,cs),
(786,714,o),
(794,731,o),
(821,736,cs),
(833,738,o),
(839,739,o),
(846,739,cs),
(850,739,o),
(854,741,o),
(854,745,cs),
(854,751,o),
(849,753,o),
(838,753,cs),
(808,753,o),
(745,750,o),
(740,750,cs),
(735,750,o),
(672,753,o),
(627,753,cs),
(616,753,o),
(611,751,o),
(611,745,cs),
(611,741,o),
(615,739,o),
(619,739,cs),
(628,739,o),
(645,738,o),
(653,736,cs),
(686,729,o),
(694,713,o),
(696,679,cs),
(698,647,o),
(698,619,o),
(698,463,cs),
(698,442,ls),
(698,437,o),
(695,436,o),
(692,436,cs),
(268,436,ls),
(265,436,o),
(262,437,o),
(262,442,cs),
(262,463,ls),
(262,619,o),
(262,647,o),
(264,679,cs),
(266,714,o),
(274,731,o),
(301,736,cs),
(313,738,o),
(319,739,o),
(326,739,cs),
(330,739,o),
(334,741,o),
(334,745,cs),
(334,751,o),
(329,753,o),
(318,753,cs),
(288,753,o),
(225,750,o),
(220,750,cs),
(215,750,o),
(152,753,o),
(107,753,cs),
(96,753,o),
(91,751,o),
(91,745,cs),
(91,741,o),
(95,739,o),
(99,739,cs),
(108,739,o),
(125,738,o),
(133,736,cs),
(166,729,o),
(174,713,o),
(176,679,cs),
(178,647,o),
(178,619,o),
(178,463,cs),
(178,287,ls),
(178,191,o),
(178,112,o),
(173,70,cs),
(169,41,o),
(164,19,o),
(144,15,cs),
(135,13,o),
(123,11,o),
(114,11,cs),
(108,11,o),
(106,8,o),
(106,5,cs),
(106,-1,o),
(111,-3,o),
(122,-3,cs),
(152,-3,o),
(215,0,o),
(220,0,cs),
(225,0,o),
(288,-3,o),
(343,-3,cs),
(354,-3,o),
(359,0,o),
(359,5,cs),
(359,8,o),
(357,11,o),
(351,11,cs),
(342,11,o),
(320,13,o),
(306,15,cs),
(276,19,o),
(270,41,o),
(267,70,cs),
(262,112,o),
(262,191,o),
(262,287,cs),
(262,392,ls),
(262,397,o),
(265,398,o),
(268,398,cs),
(692,398,ls),
(695,398,o),
(698,396,o),
(698,392,cs),
(698,287,ls),
(698,191,o),
(698,112,o),
(693,70,cs),
(689,41,o),
(684,19,o),
(664,15,cs),
(655,13,o),
(643,11,o),
(634,11,cs),
(628,11,o),
(626,8,o),
(626,5,cs),
(626,-1,o),
(631,-3,o),
(642,-3,cs),
(672,-3,o),
(735,0,o),
(740,0,cs),
(745,0,o),
(808,-3,o),
(863,-3,cs),
(874,-3,o),
(879,0,o),
(879,5,cs),
(879,8,o),
(877,11,o),
(871,11,cs),
(862,11,o),
(840,13,o),
(826,15,cs),
(796,19,o),
(790,41,o),
(787,70,cs),
(782,112,o),
(782,191,o),
(782,287,cs)
);
}
);
width = 960;
}
);
note = H;
unicode = 72;
},
{
glyphname = I;
kernLeft = B;
kernRight = H;
layers = (
{
hints = (
{
horizontal = 1;
place = (-3, 14);
place = (-3, 14);
type = Stem;
},
{
horizontal = 1;
place = (739, 14);
place = (739, 14);
type = Stem;
},
{
place = (178, 84);
place = (178, 84);
type = Stem;
}
);
layerId = m01;
shapes = (
{
closed = 1;
nodes = (
(262,463,ls),
(262,619,o),
(262,647,o),
(264,679,cs),
(266,714,o),
(274,731,o),
(301,736,cs),
(313,738,o),
(319,739,o),
(326,739,cs),
(330,739,o),
(334,741,o),
(334,745,cs),
(334,751,o),
(329,753,o),
(318,753,cs),
(288,753,o),
(225,750,o),
(220,750,cs),
(215,750,o),
(152,753,o),
(119,753,cs),
(108,753,o),
(103,751,o),
(103,745,cs),
(103,741,o),
(107,739,o),
(111,739,cs),
(118,739,o),
(131,738,o),
(142,735,cs),
(164,730,o),
(174,713,o),
(176,679,cs),
(178,647,o),
(178,619,o),
(178,463,cs),
(178,287,ls),
(178,191,o),
(178,112,o),
(173,70,cs),
(169,41,o),
(164,19,o),
(144,15,cs),
(135,13,o),
(123,11,o),
(114,11,cs),
(108,11,o),
(106,8,o),
(106,5,cs),
(106,-1,o),
(111,-3,o),
(122,-3,cs),
(152,-3,o),
(215,0,o),
(220,0,cs),
(225,0,o),
(288,-3,o),
(343,-3,cs),
(354,-3,o),
(359,0,o),
(359,5,cs),
(359,8,o),
(357,11,o),
(351,11,cs),
(342,11,o),
(320,13,o),
(306,15,cs),
(276,19,o),
(270,41,o),
(267,70,cs),
(262,112,o),
(262,191,o),
(262,287,cs)
);
}
);
width = 440;
}
);
note = I;
unicode = 73;
},
{
glyphname = J;
kernLeft = J;
kernRight = J;
layers = (
{
hints = (
{
horizontal = 1;
place = (-252, 21);
target = up;
type = BottomGhost;
},
{
horizontal = 1;
place = (739, 14);
place = (739, 14);
type = Stem;
},
{
place = (178, 84);
place = (178, 84);
type = Stem;
}
);
layerId = m01;
shapes = (
{
closed = 1;
nodes = (
(262,463,ls),
(262,619,o),
(262,647,o),
(264,679,cs),
(266,714,o),
(274,731,o),
(301,736,cs),
(313,738,o),
(319,739,o),
(326,739,cs),
(330,739,o),
(334,741,o),
(334,745,cs),
(334,751,o),
(329,753,o),
(318,753,cs),
(288,753,o),
(225,750,o),
(220,750,cs),
(215,750,o),
(152,753,o),
(107,753,cs),
(96,753,o),
(91,751,o),
(91,745,cs),
(91,741,o),
(95,739,o),
(99,739,cs),
(108,739,o),
(125,738,o),
(133,736,cs),
(166,729,o),
(174,713,o),
(176,679,cs),
(178,647,o),
(178,619,o),
(178,463,cs),
(178,174,ls),
(178,-84,o),
(147,-137,o),
(82,-203,cs),
(73,-212,o),
(59,-224,o),
(47,-231,cs),
(38,-237,o),
(33,-240,o),
(33,-246,cs),
(33,-250,o),
(37,-252,o),
(40,-252,cs),
(43,-252,o),
(45,-251,o),
(47,-250,cs),
(57,-245,o),
(73,-234,o),
(86,-225,cs),
(167,-169,o),
(211,-122,o),
(232,-72,cs),
(262,-1,o),
(262,61,o),
(262,223,cs)
);
}
);
width = 414;
}
);
note = J;
unicode = 74;
},
{
glyphname = K;
kernLeft = B;
kernRight = K;
layers = (
{
hints = (
{
horizontal = 1;
place = (-3, 14);
place = (-3, 14);
type = Stem;
},
{
horizontal = 1;
place = (385, 18);
place = (385, 18);
type = Stem;
},
{
horizontal = 1;
place = (739, 14);
place = (739, 14);
type = Stem;
},
{
place = (178, 80);
place = (178, 80);
type = Stem;
}
);
layerId = m01;
shapes = (
{
closed = 1;
nodes = (
(178,287,ls),
(178,191,o),
(178,112,o),
(173,70,cs),
(169,41,o),
(164,19,o),
(144,15,cs),
(135,13,o),
(123,11,o),
(114,11,cs),
(108,11,o),
(106,8,o),
(106,5,cs),
(106,-1,o),
(111,-3,o),
(122,-3,cs),
(152,-3,o),
(210,0,o),
(218,0,cs),
(226,0,o),
(284,-3,o),
(333,-3,cs),
(344,-3,o),
(349,0,o),
(349,5,cs),
(349,8,o),
(347,11,o),
(341,11,cs),
(332,11,o),
(316,13,o),
(302,15,cs),
(272,19,o),
(266,41,o),
(263,70,cs),
(258,112,o),
(258,191,o),
(258,287,cs),
(258,385,l),
(263,385,l),
(311,326,o),
(523,97,o),
(568,60,cs),
(611,26,o),
(636,4,o),
(689,-1,cs),
(711,-3,o),
(730,-3,o),
(758,-3,cs),
(809,-3,ls),
(826,-3,o),
(831,0,o),
(831,5,cs),
(831,9,o),
(825,11,o),
(818,11,cs),
(811,11,o),
(782,13,o),
(756,24,cs),
(708,44,o),
(691,60,o),
(607,138,cs),
(566,176,o),
(358,391,o),
(332,420,c),
(353,445,o),
(527,615,o),
(552,639,cs),
(597,682,o),
(619,707,o),
(660,725,cs),
(680,734,o),
(701,739,o),
(716,739,cs),
(724,739,o),
(726,741,o),
(726,746,cs),
(726,751,o),
(722,753,o),
(711,753,cs),
(686,753,o),
(620,750,o),
(615,750,cs),
(591,750,o),
(560,753,o),
(540,753,cs),
(533,753,o),
(528,751,o),
(528,746,cs),
(528,742,o),
(532,740,o),
(537,738,cs),
(545,735,o),
(550,729,o),
(550,717,cs),
(550,700,o),
(524,674,o),
(496,645,cs),
(460,606,o),
(279,422,o),
(262,403,c),
(258,403,l),
(258,463,ls),
(258,619,o),
(258,647,o),
(260,679,cs),
(262,714,o),
(270,731,o),
(297,736,cs),
(309,738,o),
(315,739,o),
(322,739,cs),
(326,739,o),
(330,741,o),
(330,745,cs),
(330,751,o),
(325,753,o),
(314,753,cs),
(284,753,o),
(226,750,o),
(217,750,cs),
(211,750,o),
(152,753,o),
(107,753,cs),
(96,753,o),
(91,751,o),
(91,745,cs),
(91,741,o),
(95,739,o),
(99,739,cs),
(108,739,o),
(125,738,o),
(133,736,cs),
(166,729,o),
(174,713,o),
(176,679,cs),
(178,647,o),
(178,619,o),
(178,463,cs)
);
}
);
width = 752;
}
);
note = K;
unicode = 75;
},
{
glyphname = L;
kernLeft = B;
kernRight = L;
layers = (
{
hints = (
{
horizontal = 1;
place = (-6, 39);
place = (-6, 39);
type = Stem;
},
{
horizontal = 1;
place = (739, 14);
place = (739, 14);
type = Stem;
},
{
place = (178, 84);
place = (178, 84);
type = Stem;
},
{
horizontal = 1;
place = (-6, 21);
target = up;
type = BottomGhost;
},
{
horizontal = 1;
place = (-3, 14);
place = (-3, 14);
type = Stem;
},
{
horizontal = 1;
place = (0, 21);
target = up;
type = BottomGhost;
}
);
layerId = m01;
shapes = (
{
closed = 1;
nodes = (
(262,463,ls),
(262,619,o),
(262,647,o),
(264,679,cs),
(266,714,o),
(274,731,o),
(303,736,cs),
(315,738,o),
(329,739,o),
(336,739,cs),
(340,739,o),
(344,741,o),
(344,745,cs),
(344,751,o),
(339,753,o),
(328,753,cs),
(298,753,o),
(225,750,o),
(220,750,cs),
(215,750,o),
(152,753,o),
(107,753,cs),
(96,753,o),
(91,751,o),
(91,745,cs),
(91,741,o),
(95,739,o),
(99,739,cs),
(108,739,o),
(125,738,o),
(133,736,cs),
(166,729,o),
(174,713,o),
(176,679,cs),
(178,647,o),
(178,619,o),
(178,463,cs),
(178,287,ls),
(178,191,o),
(178,112,o),
(173,70,cs),
(169,41,o),
(164,19,o),
(144,15,cs),
(135,13,o),
(123,11,o),
(114,11,cs),
(108,11,o),
(106,8,o),
(106,5,cs),
(106,-1,o),
(111,-3,o),
(122,-3,cs),
(137,-3,o),
(159,-2,o),
(179,-1,cs),
(199,-1,o),
(216,0,o),
(220,0,cs),
(249,0,o),
(280,-1,o),
(322,-3,cs),
(364,-4,o),
(416,-6,o),
(488,-6,cs),
(541,-6,o),
(544,-2,o),
(551,21,cs),
(559,50,o),
(566,110,o),
(566,121,cs),
(566,132,o),
(565,136,o),
(560,136,cs),
(554,136,o),
(552,131,o),
(551,123,cs),
(548,104,o),
(538,79,o),
(525,63,cs),
(501,34,o),
(457,33,o),
(404,33,cs),
(326,33,o),
(300,40,o),
(284,56,cs),
(266,74,o),
(262,138,o),
(262,285,cs)
);
}
);
width = 592;
}
);
note = L;
unicode = 76;
},
{
glyphname = M;
kernLeft = M;
kernRight = M;
layers = (
{
hints = (
{
horizontal = 1;
place = (-3, 14);
place = (-3, 14);
type = Stem;
},
{
horizontal = 1;
place = (767, -20);
target = down;
type = TopGhost;
},
{
place = (50, 999);
place = (50, 999);
type = Stem;
}
);
layerId = m01;
shapes = (
{
closed = 1;
nodes = (
(855,740,ls),
(853,759,o),
(850,767,o),
(843,767,cs),
(836,767,o),
(832,760,o),
(828,751,cs),
(534,123,l),
(228,752,ls),
(223,763,o),
(219,767,o),
(213,767,cs),
(207,767,o),
(203,760,o),
(202,749,cs),
(130,97,ls),
(126,59,o),
(123,20,o),
(90,14,cs),
(75,11,o),
(68,11,o),
(60,11,cs),
(55,11,o),
(50,9,o),
(50,6,cs),
(50,-1,o),
(57,-3,o),
(67,-3,cs),
(94,-3,o),
(142,0,o),
(151,0,cs),
(159,0,o),
(207,-3,o),
(244,-3,cs),
(256,-3,o),
(262,-1,o),
(262,6,cs),
(262,9,o),
(258,11,o),
(254,11,cs),
(248,11,o),
(233,12,o),
(216,16,cs),
(201,19,o),
(190,32,o),
(190,47,cs),
(190,64,o),
(190,82,o),
(191,98,cs),
(231,562,l),
(235,562,l),
(246,535,o),
(358,295,o),
(367,277,cs),
(372,267,o),
(458,94,o),
(484,45,cs),
(503,9,o),
(508,-1,o),
(515,-1,cs),
(524,-1,o),
(527,8,o),
(548,52,cs),
(793,572,l),
(796,572,l),
(844,56,ls),
(846,38,o),
(845,21,o),
(840,20,cs),
(835,19,o),
(833,17,o),
(833,13,cs),
(833,8,o),
(838,5,o),
(861,3,cs),
(898,0,o),
(1006,-3,o),
(1028,-3,cs),
(1040,-3,o),
(1049,0,o),
(1049,6,cs),
(1049,10,o),
(1046,11,o),
(1041,11,cs),
(1031,11,o),
(1005,11,o),
(976,20,cs),
(933,34,o),
(926,90,o),
(922,126,cs)
);
}
);
width = 1050;
}
);
note = M;
unicode = 77;
},
{
glyphname = N;
kernLeft = B;
kernRight = H;
layers = (
{
hints = (
{
horizontal = 1;
place = (-3, 14);
place = (-3, 14);
type = Stem;
},
{
horizontal = 1;
place = (739, 14);
place = (739, 14);
type = Stem;
},
{
place = (145, 53.5);
place = (145, 53.5);
type = Stem;
},
{
place = (744.5, 51.5);
place = (744.5, 51.5);
type = Stem;
},
{
horizontal = 1;
place = (-10, 21);
target = up;
type = BottomGhost;
},
{
horizontal = 1;
place = (767, -20);
target = down;
type = TopGhost;
}
);
layerId = m01;
shapes = (
{
closed = 1;
nodes = (
(192,612,l),
(224,576,o),
(337,450,o),
(453,325,cs),
(559,211,o),
(703,64,o),
(714,54,cs),
(767,1,o),
(779,-10,o),
(787,-10,cs),
(794,-10,o),
(796,-5,o),
(796,61,cs),
(798,647,ls),
(798,707,o),
(802,729,o),
(835,736,cs),
(847,739,o),
(854,739,o),
(859,739,cs),
(866,739,o),
(870,742,o),
(870,746,cs),
(870,752,o),
(863,753,o),
(852,753,cs),
(811,753,o),
(778,750,o),
(767,750,cs),
(756,750,o),
(708,753,o),
(663,753,cs),
(651,753,o),
(643,752,o),
(643,746,cs),
(643,742,o),
(644,739,o),
(651,739,cs),
(659,739,o),
(682,738,o),
(700,734,cs),
(731,726,o),
(738,704,o),
(739,639,cs),
(750,131,l),
(718,164,o),
(609,286,o),
(510,392,cs),
(356,557,o),
(207,718,o),
(192,735,cs),
(182,745,o),
(165,767,o),
(157,767,cs),
(149,767,o),
(146,756,o),
(146,717,cs),
(145,144,ls),
(145,53,o),
(140,24,o),
(115,17,cs),
(100,12,o),
(82,11,o),
(74,11,cs),
(69,11,o),
(66,9,o),
(66,5,cs),
(66,-2,o),
(72,-3,o),
(82,-3,cs),
(127,-3,o),
(169,0,o),
(178,0,cs),
(187,0,o),
(227,-3,o),
(284,-3,cs),
(296,-3,o),
(302,-1,o),
(302,5,cs),
(302,9,o),
(299,11,o),
(294,11,cs),
(285,11,o),
(263,12,o),
(244,17,cs),
(217,25,o),
(207,51,o),
(205,133,cs)
);
}
);
width = 947;
}
);
note = N;
unicode = 78;
},
{
glyphname = O;
kernLeft = O;
kernRight = O;
layers = (
{
hints = (
{
horizontal = 1;
place = (-17, 38);
place = (-17, 38);
type = Stem;
},
{
horizontal = 1;
place = (733, 34);
place = (733, 34);
type = Stem;
},
{
place = (64, 95);
place = (64, 95);
type = Stem;
},
{
place = (755, 96);
place = (755, 96);
type = Stem;
}
);
layerId = m01;
shapes = (
{
closed = 1;
nodes = (
(64,196,o),
(178,-17,o),
(452,-17,cs),
(693,-17,o),
(851,168,o),
(851,392,cs),
(851,625,o),
(683,767,o),
(458,767,cs),
(182,767,o),
(64,538,o),
(64,376,cs)
);
},
{
closed = 1;
nodes = (
(159,623,o),
(284,733,o),
(451,733,cs),
(609,733,o),
(755,604,o),
(755,364,cs),
(755,73,o),
(569,21,o),
(479,21,cs),
(299,21,o),
(159,171,o),
(159,404,cs)
);
}
);
width = 915;
}
);
note = O;
unicode = 79;
},
{
glyphname = P;
kernLeft = B;
kernRight = P;
layers = (
{
hints = (
{
horizontal = 1;
place = (-3, 14);
place = (-3, 14);
type = Stem;
},
{
horizontal = 1;
place = (339, 17);
place = (339, 17);
type = Stem;
},
{
horizontal = 1;
place = (739, 14);
place = (739, 14);
type = Stem;
},
{
place = (178, 82);
place = (178, 82);
type = Stem;
},
{
place = (504, 78);
place = (504, 78);
type = Stem;
},
{
horizontal = 1;
place = (723, 30);
place = (723, 30);
type = Stem;
}
);
layerId = m01;
shapes = (
{
closed = 1;
nodes = (
(178,287,ls),
(178,191,o),
(178,112,o),
(173,70,cs),
(169,41,o),
(164,19,o),
(144,15,cs),
(135,13,o),
(123,11,o),
(114,11,cs),
(108,11,o),
(106,8,o),
(106,5,cs),
(106,-1,o),
(111,-3,o),
(122,-3,cs),
(152,-3,o),
(215,0,o),
(218,0,cs),
(223,0,o),
(286,-3,o),
(341,-3,cs),
(352,-3,o),
(357,0,o),
(357,5,cs),
(357,8,o),
(355,11,o),
(349,11,cs),
(340,11,o),
(318,13,o),
(304,15,cs),
(274,19,o),
(268,41,o),
(265,70,cs),
(260,112,o),
(260,191,o),
(260,287,cs),
(260,698,ls),
(260,708,o),
(262,715,o),
(268,717,cs),
(277,721,o),
(294,723,o),
(311,723,cs),
(334,723,o),
(395,727,o),
(448,673,cs),
(501,619,o),
(504,552,o),
(504,519,cs),
(504,427,o),
(428,356,o),
(331,356,cs),
(310,356,o),
(304,355,o),
(304,347,cs),
(304,342,o),
(310,340,o),
(315,340,cs),
(320,339,o),
(331,339,o),
(336,339,cs),
(478,339,o),
(582,435,o),
(582,577,cs),
(582,630,o),
(554,675,o),
(532,696,cs),
(516,711,o),
(471,753,o),
(346,753,cs),
(300,753,o),
(242,750,o),
(220,750,cs),
(212,750,o),
(152,753,o),
(107,753,cs),
(96,753,o),
(91,751,o),
(91,745,cs),
(91,741,o),
(95,739,o),
(99,739,cs),
(108,739,o),
(125,738,o),
(133,736,cs),
(166,729,o),
(174,713,o),
(176,679,cs),
(178,647,o),
(178,619,o),
(178,463,cs)
);
}
);
width = 642;
}
);
note = P;
unicode = 80;
},
{
glyphname = Q;
kernLeft = Q;
kernRight = Q;
layers = (
{
hints = (
{
horizontal = 1;
place = (-210, 42);
place = (-210, 42);
type = Stem;
},
{
horizontal = 1;
place = (-17, 38);
place = (-17, 38);
type = Stem;
},
{
horizontal = 1;
place = (733, 34);
place = (733, 34);
type = Stem;
},
{
place = (64, 95);
place = (64, 95);
type = Stem;
},
{
place = (755, 96);
place = (755, 96);
type = Stem;
}
);
layerId = m01;
shapes = (
{
closed = 1;
nodes = (
(780,-76,ls),
(942,-166,o),
(1071,-210,o),
(1192,-210,cs),
(1340,-210,o),
(1452,-167,o),
(1509,-141,cs),
(1515,-138,o),
(1517,-135,o),
(1517,-131,cs),
(1517,-128,o),
(1515,-125,o),
(1511,-125,cs),
(1508,-125,o),
(1503,-127,o),
(1497,-129,cs),
(1428,-157,o),
(1350,-168,o),
(1300,-168,cs),
(1250,-168,o),
(1098,-163,o),
(879,-50,cs),
(674,56,l),
(740,99,o),
(851,216,o),
(851,392,cs),
(851,624,o),
(683,767,o),
(458,767,cs),
(182,767,o),
(64,538,o),
(64,376,cs),
(64,196,o),
(178,-17,o),
(455,-17,cs),
(508,-17,o),
(576,-2,o),
(612,17,c)
);
},
{
closed = 1;
nodes = (
(159,623,o),
(284,733,o),
(451,733,cs),
(609,733,o),
(755,604,o),
(755,364,cs),
(755,73,o),
(569,21,o),
(479,21,cs),
(299,21,o),
(159,171,o),
(159,404,cs)
);
}
);
width = 920;
}
);
note = Q;
unicode = 81;
},
{
glyphname = R;
kernLeft = B;
kernRight = R;
layers = (
{
hints = (
{
horizontal = 1;
place = (-3, 14);
place = (-3, 14);
type = Stem;
},
{
horizontal = 1;
place = (317, 31);
place = (317, 31);
type = Stem;
},
{
horizontal = 1;
place = (739, 14);
place = (739, 14);
type = Stem;
},
{
place = (178, 80);
place = (178, 80);
type = Stem;
},
{
place = (506, 84);
place = (506, 84);
type = Stem;
},
{
horizontal = 1;
place = (721, 32);
place = (721, 32);
type = Stem;
}
);
layerId = m01;
shapes = (
{
closed = 1;
nodes = (
(178,287,ls),
(178,191,o),
(178,112,o),
(173,70,cs),
(169,41,o),
(164,19,o),
(144,15,cs),
(135,13,o),
(123,11,o),
(114,11,cs),
(108,11,o),
(106,8,o),
(106,5,cs),
(106,-1,o),
(111,-3,o),
(122,-3,cs),
(152,-3,o),
(215,0,o),
(216,0,cs),
(221,0,o),
(284,-3,o),
(339,-3,cs),
(350,-3,o),
(355,0,o),
(355,5,cs),
(355,8,o),
(353,11,o),
(347,11,cs),
(338,11,o),
(316,13,o),
(302,15,cs),
(272,19,o),
(266,41,o),
(263,70,cs),
(258,112,o),
(258,191,o),
(258,287,cs),
(258,311,ls),
(258,316,o),
(260,319,o),
(265,319,cs),
(388,317,ls),
(394,317,o),
(397,315,o),
(401,311,c),
(421,285,o),
(468,218,o),
(510,163,cs),
(567,88,o),
(602,39,o),
(645,16,cs),
(671,2,o),
(696,-3,o),
(752,-3,cs),
(823,-3,ls),
(841,-3,o),
(847,-1,o),
(847,5,cs),
(847,8,o),
(843,11,o),
(838,11,cs),
(832,11,o),
(818,11,o),
(799,14,cs),
(774,18,o),
(731,29,o),
(677,86,cs),
(619,148,o),
(551,237,o),
(469,342,c),
(559,425,o),
(590,499,o),
(590,573,cs),
(590,642,o),
(546,691,o),
(521,709,cs),
(468,747,o),
(401,753,o),
(338,753,cs),
(307,753,o),
(231,750,o),
(220,750,cs),
(215,750,o),
(152,753,o),
(107,753,cs),
(96,753,o),
(91,751,o),
(91,745,cs),
(91,741,o),
(95,739,o),
(99,739,cs),
(108,739,o),
(125,738,o),
(133,736,cs),
(166,729,o),
(174,713,o),
(176,679,cs),
(178,647,o),
(178,619,o),
(178,463,cs)
);
},
{
closed = 1;
nodes = (
(258,703,ls),
(258,709,o),
(261,713,o),
(266,715,cs),
(276,718,o),
(303,721,o),
(333,721,cs),
(440,721,o),
(506,646,o),
(506,521,cs),
(506,445,o),
(480,391,o),
(445,367,cs),
(422,351,o),
(394,348,o),
(370,348,cs),
(326,348,o),
(280,355,o),
(265,364,cs),
(260,367,o),
(258,371,o),
(258,376,cs)
);
}
);
width = 754;
}
);
note = R;
unicode = 82;
},
{
glyphname = S;
kernLeft = S;
kernRight = S;
layers = (
{
hints = (
{
horizontal = 1;
place = (-17, 37);
place = (-17, 37);
type = Stem;
},
{
horizontal = 1;
place = (732, 35);
place = (732, 35);
type = Stem;
},
{
place = (99, 20);
place = (99, 20);
type = Stem;
},
{
place = (413, 71);
place = (413, 71);
type = Stem;
},
{
place = (123, 65);
place = (123, 65);
type = Stem;
},
{
horizontal = 1;
place = (732, 20);
place = (732, 20);
type = Stem;
}
);
layerId = m01;
shapes = (
{
closed = 1;
nodes = (
(302,-17,o),
(356,-5,o),
(399,25,cs),
(468,74,o),
(484,150,o),
(484,191,cs),
(484,271,o),
(456,333,o),
(338,426,cs),
(310,448,ls),
(214,523,o),
(188,559,o),
(188,616,cs),
(188,689,o),
(242,732,o),
(311,732,cs),
(403,732,o),
(430,690,o),
(436,679,cs),
(442,668,o),
(448,641,o),
(449,629,cs),
(450,621,o),
(451,616,o),
(457,616,cs),
(462,616,o),
(464,623,o),
(464,639,cs),
(464,707,o),
(468,740,o),
(468,745,cs),
(468,750,o),
(466,752,o),
(458,752,cs),
(450,752,o),
(442,753,o),
(423,757,cs),
(398,763,o),
(369,767,o),
(330,767,cs),
(203,767,o),
(123,694,o),
(123,587,cs),
(123,519,o),
(147,457,o),
(253,370,cs),
(298,333,ls),
(384,262,o),
(413,222,o),
(413,153,cs),
(413,89,o),
(366,20,o),
(270,20,cs),
(203,20,o),
(137,48,o),
(122,122,cs),
(119,136,o),
(119,150,o),
(119,159,cs),
(119,167,o),
(118,170,o),
(112,170,cs),
(107,170,o),
(105,165,o),
(104,154,cs),
(103,138,o),
(99,98,o),
(99,48,cs),
(99,21,o),
(100,17,o),
(114,10,cs),
(155,-10,o),
(201,-17,o),
(248,-17,cs)
);
}
);
width = 570;
}
);
note = S;
unicode = 83;
},
{
glyphname = T;
kernLeft = T;
kernRight = T;
layers = (
{
hints = (
{
horizontal = 1;
place = (-3, 14);
place = (-3, 14);
type = Stem;
},
{
horizontal = 1;
place = (709, 41);
place = (709, 41);
type = Stem;
},
{
place = (307, 84);
place = (307, 84);
type = Stem;
},
{
place = (640.5, 18.5);
place = (640.5, 18.5);
type = Stem;
},
{
horizontal = 1;
place = (760, -20);
target = down;
type = TopGhost;
},
{
horizontal = 1;
place = (767, -20);
target = down;
type = TopGhost;
}
);
layerId = m01;
shapes = (
{
closed = 1;
nodes = (
(391,710,l),
(517,708,ls),
(613,706,o),
(637,683,o),
(640,653,cs),
(641,642,ls),
(642,628,o),
(644,625,o),
(649,625,cs),
(653,625,o),
(656,629,o),
(656,638,cs),
(656,649,o),
(659,718,o),
(659,748,cs),
(659,754,o),
(659,760,o),
(654,760,cs),
(650,760,o),
(641,757,o),
(626,755,cs),
(610,752,o),
(587,750,o),
(555,750,cs),
(180,750,ls),
(168,750,o),
(130,752,o),
(101,755,cs),
(74,757,o),
(64,767,o),
(57,767,cs),
(53,767,o),
(49,754,o),
(47,748,cs),
(45,740,o),
(25,654,o),
(25,644,cs),
(25,638,o),
(27,635,o),
(30,635,cs),
(34,635,o),
(37,637,o),
(40,645,cs),
(43,652,o),
(46,659,o),
(57,676,cs),
(73,700,o),
(97,707,o),
(159,708,cs),
(307,710,l),
(307,287,ls),
(307,191,o),
(307,112,o),
(302,70,cs),
(298,41,o),
(293,19,o),
(273,15,cs),
(264,13,o),
(252,11,o),
(243,11,cs),
(237,11,o),
(235,8,o),
(235,5,cs),
(235,-1,o),
(240,-3,o),
(251,-3,cs),
(281,-3,o),
(344,0,o),
(349,0,cs),
(354,0,o),
(417,-3,o),
(472,-3,cs),
(483,-3,o),
(488,0,o),
(488,5,cs),
(488,8,o),
(486,11,o),
(480,11,cs),
(471,11,o),
(449,13,o),
(435,15,cs),
(405,19,o),
(399,41,o),
(396,70,cs),
(391,112,o),
(391,191,o),
(391,287,cs)
);
}
);
width = 691;
}
);
note = T;
unicode = 84;
},
{
glyphname = U;
kernLeft = U;
kernRight = U;
layers = (
{
hints = (
{
horizontal = 1;
place = (-17, 38);
place = (-17, 38);
type = Stem;
},
{
horizontal = 1;
place = (739, 14);
place = (739, 14);
type = Stem;
},
{
place = (120, 87);
place = (120, 87);
type = Stem;
},
{
place = (648, 63);
place = (648, 63);
type = Stem;
}
);
layerId = m01;
shapes = (
{
closed = 1;
nodes = (
(120,317,ls),
(120,171,o),
(158,101,o),
(207,54,cs),
(278,-13,o),
(379,-17,o),
(413,-17,cs),
(472,-17,o),
(547,-7,o),
(619,57,cs),
(699,128,o),
(711,248,o),
(711,356,cs),
(711,463,ls),
(711,619,o),
(711,647,o),
(713,679,cs),
(715,714,o),
(723,730,o),
(750,736,cs),
(762,738,o),
(768,739,o),
(775,739,cs),
(779,739,o),
(783,741,o),
(783,745,cs),
(783,751,o),
(778,753,o),
(767,753,cs),
(737,753,o),
(690,750,o),
(683,750,cs),
(677,750,o),
(622,753,o),
(577,753,cs),
(566,753,o),
(561,751,o),
(561,745,cs),
(561,741,o),
(565,739,o),
(569,739,cs),
(578,739,o),
(595,738,o),
(603,736,cs),
(636,729,o),
(644,713,o),
(646,679,cs),
(648,647,o),
(648,619,o),
(648,463,cs),
(648,338,ls),
(648,235,o),
(636,150,o),
(590,93,cs),
(554,50,o),
(494,21,o),
(433,21,cs),
(376,21,o),
(331,30,o),
(282,76,cs),
(239,117,o),
(207,179,o),
(207,323,cs),
(207,463,ls),
(207,619,o),
(207,647,o),
(209,679,cs),
(211,714,o),
(219,732,o),
(246,736,cs),
(258,738,o),
(264,739,o),
(271,739,cs),
(275,739,o),
(279,741,o),
(279,745,cs),
(279,751,o),
(274,753,o),
(263,753,cs),
(233,753,o),
(173,750,o),
(164,750,cs),
(155,750,o),
(94,753,o),
(49,753,cs),
(38,753,o),
(33,751,o),
(33,745,cs),
(33,741,o),
(37,739,o),
(41,739,cs),
(50,739,o),
(67,738,o),
(75,736,cs),
(108,729,o),
(116,713,o),
(118,679,cs),
(120,647,o),
(120,619,o),
(120,463,cs)
);
}
);
width = 830;
}
);
note = U;
unicode = 85;
},
{
glyphname = V;
kernLeft = V;
kernRight = V;
layers = (
{
hints = (
{
horizontal = 1;
place = (-17, 21);
target = up;
type = BottomGhost;
},
{
horizontal = 1;
place = (739, 14);
place = (739, 14);
type = Stem;
},
{
place = (-26, 797);
place = (-26, 797);
type = Stem;
}
);
layerId = m01;
shapes = (
{
closed = 1;
nodes = (
(203,631,ls),
(188,670,o),
(176,701,o),
(176,714,cs),
(176,721,o),
(178,729,o),
(189,734,cs),
(198,738,o),
(216,739,o),
(227,739,cs),
(234,739,o),
(237,741,o),
(237,746,cs),
(237,751,o),
(228,753,o),
(210,753,cs),
(172,753,o),
(127,750,o),
(117,750,cs),
(105,750,o),
(48,753,o),
(0,753,cs),
(-16,753,o),
(-26,752,o),
(-26,746,cs),
(-26,742,o),
(-24,739,o),
(-18,739,cs),
(-12,739,o),
(5,739,o),
(20,735,cs),
(55,725,o),
(70,714,o),
(92,658,cs),
(337,45,ls),
(356,-3,o),
(361,-17,o),
(373,-17,cs),
(383,-17,o),
(387,-1,o),
(415,59,cs),
(438,108,o),
(483,216,o),
(544,362,cs),
(595,485,o),
(645,605,o),
(656,633,cs),
(683,701,o),
(698,718,o),
(711,727,cs),
(730,739,o),
(752,739,o),
(759,739,cs),
(767,739,o),
(771,741,o),
(771,746,cs),
(771,751,o),
(765,753,o),
(754,753,cs),
(725,753,o),
(682,750,o),
(676,750,cs),
(664,750,o),
(618,753,o),
(578,753,cs),
(562,753,o),
(556,751,o),
(556,745,cs),
(556,740,o),
(561,739,o),
(567,739,cs),
(578,739,o),
(593,739,o),
(605,735,c),
(615,730,o),
(618,720,o),
(618,712,cs),
(618,703,o),
(614,689,o),
(609,674,cs),
(587,602,o),
(453,253,o),
(395,119,c)
);
}
);
width = 742;
}
);
note = V;
unicode = 86;
},
{
glyphname = W;
kernLeft = W;
kernRight = W;
layers = (
{
hints = (
{
horizontal = 1;
place = (-17, 21);
target = up;
type = BottomGhost;
},
{
horizontal = 1;
place = (739, 14);
place = (739, 14);
type = Stem;
},
{
place = (-11, 1126);
place = (-11, 1126);
type = Stem;
},
{
horizontal = 1;
place = (749, -20);
target = down;
type = TopGhost;
}
);
layerId = m01;
shapes = (
{
closed = 1;
nodes = (
(599,702,ls),
(587,736,o),
(581,749,o),
(574,749,cs),
(568,749,o),
(564,744,o),
(549,703,cs),
(337,133,l),
(335,133,l),
(320,186,o),
(216,553,o),
(201,617,cs),
(191,661,o),
(182,696,o),
(182,709,cs),
(182,722,o),
(189,730,o),
(195,733,cs),
(207,739,o),
(226,739,o),
(234,739,cs),
(239,739,o),
(244,740,o),
(244,746,cs),
(244,750,o),
(240,753,o),
(226,753,cs),
(176,753,o),
(132,750,o),
(123,750,cs),
(112,750,o),
(57,753,o),
(5,753,cs),
(-5,753,o),
(-11,751,o),
(-11,746,cs),
(-11,740,o),
(-7,739,o),
(-2,739,cs),
(5,739,o),
(30,738,o),
(43,733,cs),
(69,723,o),
(82,708,o),
(98,655,cs),
(276,62,ls),
(296,-6,o),
(301,-17,o),
(311,-17,cs),
(323,-17,o),
(328,-6,o),
(344,36,cs),
(380,129,o),
(517,495,o),
(553,591,c),
(555,591,l),
(751,35,ls),
(765,-4,o),
(771,-17,o),
(781,-17,cs),
(792,-17,o),
(797,-5,o),
(823,69,cs),
(862,181,o),
(963,499,o),
(1007,626,cs),
(1026,681,o),
(1042,723,o),
(1072,734,cs),
(1083,738,o),
(1102,739,o),
(1106,739,cs),
(1112,739,o),
(1115,742,o),
(1115,747,cs),
(1115,751,o),
(1110,753,o),
(1101,753,cs),
(1070,753,o),
(1027,750,o),
(1020,750,cs),
(1011,750,o),
(969,753,o),
(918,753,cs),
(906,753,o),
(901,751,o),
(901,746,cs),
(901,742,o),
(905,739,o),
(910,739,cs),
(956,739,o),
(967,727,o),
(967,709,cs),
(967,696,o),
(966,682,o),
(956,645,cs),
(921,517,o),
(829,227,o),
(802,135,c),
(798,135,l)
);
}
);
width = 1100;
}
);
note = W;
unicode = 87;
},
{
glyphname = X;
kernLeft = X;
kernRight = X;
layers = (
{
hints = (
{
horizontal = 1;
place = (-3, 14);
place = (-3, 14);
type = Stem;
},
{
horizontal = 1;
place = (739, 14);
place = (739, 14);
type = Stem;
},
{
place = (-5, 701);
place = (-5, 701);
type = Stem;
}
);
layerId = m01;
shapes = (
{
closed = 1;
nodes = (
(124,97,ls),
(92,46,o),
(71,24,o),
(41,16,cs),
(26,12,o),
(11,11,o),
(3,11,cs),
(-2,11,o),
(-5,8,o),
(-5,4,cs),
(-5,0,o),
(-3,-3,o),
(5,-3,cs),
(38,-3,o),
(87,0,o),
(96,0,cs),
(105,0,o),
(168,-3,o),
(192,-3,cs),
(199,-3,o),
(204,-1,o),
(204,4,cs),
(204,8,o),
(201,11,o),
(196,11,cs),
(191,11,o),
(183,12,o),
(177,13,cs),
(168,15,o),
(161,22,o),
(161,32,cs),
(161,42,o),
(165,60,o),
(174,76,cs),
(330,341,l),
(390,240,o),
(448,141,o),
(502,43,cs),
(511,27,o),
(502,17,o),
(497,15,cs),
(493,14,o),
(491,11,o),
(491,7,cs),
(491,2,o),
(496,0,o),
(522,-1,cs),
(573,-3,o),
(621,-3,o),
(682,-3,cs),
(691,-3,o),
(696,0,o),
(696,5,cs),
(696,9,o),
(693,11,o),
(688,11,cs),
(682,11,o),
(667,13,o),
(653,17,cs),
(624,26,o),
(610,41,o),
(594,62,cs),
(573,89,o),
(402,380,o),
(383,411,c),
(544,653,ls),
(573,696,o),
(592,725,o),
(621,734,cs),
(632,738,o),
(647,739,o),
(654,739,cs),
(661,739,o),
(665,742,o),
(665,746,cs),
(665,750,o),
(660,753,o),
(649,753,cs),
(615,753,o),
(574,750,o),
(565,750,cs),
(556,750,o),
(514,753,o),
(476,753,cs),
(464,753,o),
(459,750,o),
(459,746,cs),
(459,741,o),
(462,739,o),
(468,739,cs),
(474,739,o),
(488,739,o),
(498,736,cs),
(508,733,o),
(515,725,o),
(515,718,cs),
(515,706,o),
(512,697,o),
(505,682,cs),
(495,661,o),
(388,490,o),
(358,447,c),
(306,533,o),
(265,607,o),
(223,686,cs),
(217,697,o),
(213,709,o),
(213,719,cs),
(213,726,o),
(216,733,o),
(225,736,cs),
(233,739,o),
(246,739,o),
(252,739,cs),
(258,739,o),
(261,741,o),
(261,746,cs),
(261,751,o),
(258,753,o),
(244,753,cs),
(210,753,o),
(159,750,o),
(150,750,cs),
(142,750,o),
(61,753,o),
(33,753,cs),
(20,753,o),
(16,751,o),
(16,746,cs),
(16,742,o),
(19,739,o),
(25,739,cs),
(31,739,o),
(51,737,o),
(67,732,cs),
(101,720,o),
(122,691,o),
(145,652,cs),
(305,383,l)
);
}
);
width = 694;
}
);
note = X;
unicode = 88;
},
{
glyphname = Y;
kernLeft = Y;
kernRight = Y;
layers = (
{
hints = (
{
horizontal = 1;
place = (-3, 14);
place = (-3, 14);
type = Stem;
},
{
horizontal = 1;
place = (739, 14);
place = (739, 14);
type = Stem;
},
{
place = (289, 84);
place = (289, 84);
type = Stem;
}
);
layerId = m01;
shapes = (
{
closed = 1;
nodes = (
(289,170,ls),
(289,154,o),
(289,112,o),
(286,70,cs),
(284,41,o),
(275,19,o),
(255,15,cs),
(246,13,o),
(234,11,o),
(225,11,cs),
(219,11,o),
(217,8,o),
(217,5,cs),
(217,-1,o),
(222,-3,o),
(233,-3,cs),
(263,-3,o),
(326,0,o),
(331,0,cs),
(336,0,o),
(399,-3,o),
(454,-3,cs),
(465,-3,o),
(470,0,o),
(470,5,cs),
(470,8,o),
(468,11,o),
(462,11,cs),
(453,11,o),
(431,13,o),
(417,15,cs),
(387,19,o),
(378,41,o),
(376,70,cs),
(373,112,o),
(373,154,o),
(373,170,cs),
(373,256,ls),
(373,289,o),
(373,320,o),
(388,356,cs),
(406,399,o),
(546,634,o),
(579,674,cs),
(601,701,o),
(612,713,o),
(632,725,cs),
(648,735,o),
(667,739,o),
(678,739,cs),
(686,739,o),
(691,742,o),
(691,747,cs),
(691,751,o),
(685,753,o),
(678,753,cs),
(659,753,o),
(587,750,o),
(581,750,cs),
(573,750,o),
(541,753,o),
(515,753,cs),
(505,753,o),
(499,751,o),
(499,747,cs),
(499,742,o),
(505,740,o),
(514,737,cs),
(526,734,o),
(530,723,o),
(530,709,cs),
(530,696,o),
(526,679,o),
(513,658,cs),
(493,625,o),
(366,406,o),
(347,364,c),
(329,393,o),
(179,651,o),
(163,680,cs),
(155,695,o),
(150,707,o),
(150,719,cs),
(150,727,o),
(155,733,o),
(163,737,cs),
(172,741,o),
(178,742,o),
(178,746,cs),
(178,750,o),
(176,753,o),
(165,753,cs),
(126,753,o),
(88,750,o),
(81,750,cs),
(76,750,o),
(1,753,o),
(-18,753,cs),
(-27,753,o),
(-31,750,o),
(-31,746,cs),
(-31,741,o),
(-26,739,o),
(-21,739,cs),
(-12,739,o),
(7,733,o),
(22,723,cs),
(40,711,o),
(65,686,o),
(90,649,cs),
(125,597,o),
(259,377,o),
(266,361,cs),
(279,332,o),
(289,310,o),
(289,256,cs)
);
}
);
width = 654;
}
);
note = Y;
unicode = 89;
},
{
glyphname = Z;
kernRight = Z;
layers = (
{
hints = (
{
horizontal = 1;
place = (-5, 45);
place = (-5, 45);
type = Stem;
},
{
horizontal = 1;
place = (712, 38);
place = (712, 38);
type = Stem;
},
{
place = (73, 578);
place = (73, 578);
type = Stem;
},
{
horizontal = 1;
place = (760, -20);
target = down;
type = TopGhost;
},
{
horizontal = 1;
place = (0, 40);
place = (0, 40);
type = Stem;
}
);
layerId = m01;
shapes = (
{
closed = 1;
nodes = (
(184,40,l),
(336,270,o),
(487,500,o),
(632,730,cs),
(636,736,o),
(636,738,o),
(636,742,cs),
(636,748,o),
(631,750,o),
(616,750,cs),
(337,750,ls),
(306,750,o),
(258,749,o),
(163,753,cs),
(136,754,o),
(130,760,o),
(121,760,cs),
(115,760,o),
(113,755,o),
(111,741,cs),
(106,711,o),
(91,620,o),
(91,608,cs),
(91,600,o),
(92,595,o),
(97,595,cs),
(102,595,o),
(106,598,o),
(108,613,cs),
(111,636,o),
(129,673,o),
(165,692,cs),
(197,709,o),
(258,712,o),
(309,712,cs),
(526,712,l),
(387,486,o),
(236,261,o),
(87,36,cs),
(75,18,o),
(73,13,o),
(73,8,cs),
(73,1,o),
(79,0,o),
(91,0,cs),
(266,0,o),
(434,-5,o),
(601,-5,cs),
(624,-5,o),
(625,-3,o),
(631,21,cs),
(637,46,o),
(651,105,o),
(651,136,cs),
(651,155,o),
(649,159,o),
(643,159,cs),
(638,159,o),
(636,153,o),
(634,143,cs),
(632,129,o),
(623,102,o),
(614,89,cs),
(593,59,o),
(561,40,o),
(456,40,cs)
);
}
);
width = 692;
}
);
note = Z;
unicode = 90;
},
{
glyphname = bracketleft;
kernRight = parenleft;
layers = (
{
hints = (
{
horizontal = 1;
place = (-124, 36);
place = (-124, 36);
type = Stem;
},
{
horizontal = 1;
place = (708, 36);
place = (708, 36);
type = Stem;
},
{
place = (97, 66);
place = (97, 66);
type = Stem;
}
);
layerId = m01;
shapes = (
{
closed = 1;
nodes = (
(97,-108,ls),
(97,-123,o),
(98,-124,o),
(113,-124,cs),
(283,-124,ls),
(291,-124,o),
(295,-122,o),
(295,-117,cs),
(295,-112,o),
(290,-110,o),
(278,-109,cs),
(248,-106,o),
(200,-102,o),
(170,-88,c),
(165,-67,o),
(163,-37,o),
(163,5,cs),
(163,615,ls),
(163,657,o),
(165,687,o),
(170,708,c),
(201,722,o),
(249,726,o),
(279,729,cs),
(291,730,o),
(296,733,o),
(296,737,cs),
(296,742,o),
(292,744,o),
(284,744,cs),
(114,744,ls),
(99,744,o),
(97,742,o),
(97,731,cs)
);
}
);
width = 360;
}
);
note = bracketleft;
unicode = 91;
},
{
glyphname = backslash;
layers = (
{
hints = (
{
horizontal = 1;
place = (-14, 21);
target = up;
type = BottomGhost;
},
{
place = (20, 486);
place = (20, 486);
type = Stem;
}
);
layerId = m01;
shapes = (
{
closed = 1;
nodes = (
(503,6,ls),
(507,8,o),
(508,12,o),
(503,20,cs),
(65,722,ls),
(61,728,o),
(58,730,o),
(51,726,cs),
(23,709,ls),
(19,706,o),
(19,702,o),
(21,699,cs),
(462,-10,ls),
(466,-17,o),
(469,-16,o),
(473,-14,cs)
);
}
);
width = 524;
}
);
note = backslash;
unicode = 92;
},
{
glyphname = bracketright;
kernLeft = parenright;
layers = (
{
hints = (
{
horizontal = 1;
place = (-124, 36);
place = (-124, 36);
type = Stem;
},
{
horizontal = 1;
place = (708, 36);
place = (708, 36);
type = Stem;
},
{
place = (197, 66);
place = (197, 66);
type = Stem;
}
);
layerId = m01;
shapes = (
{
closed = 1;
nodes = (
(263,728,ls),
(263,743,o),
(262,744,o),
(247,744,cs),
(77,744,ls),
(69,744,o),
(65,742,o),
(65,737,cs),
(65,732,o),
(70,730,o),
(82,729,cs),
(112,726,o),
(160,722,o),
(190,708,c),
(195,687,o),
(197,657,o),
(197,615,cs),
(197,5,ls),
(197,-37,o),
(195,-67,o),
(190,-88,c),
(159,-102,o),
(111,-106,o),
(81,-109,cs),
(69,-110,o),
(64,-113,o),
(64,-117,cs),
(64,-122,o),
(68,-124,o),
(76,-124,cs),
(246,-124,ls),
(261,-124,o),
(263,-122,o),
(263,-111,cs)
);
}
);
width = 360;
}
);
note = bracketright;
unicode = 93;
},
{
glyphname = asciicircum;
layers = (
{
hints = (
{
horizontal = 1;
place = (751, -20);
target = down;
type = TopGhost;
},
{
place = (30, 450);
place = (30, 450);
type = Stem;
},
{
horizontal = 1;
place = (696, 55);
place = (696, 55);
type = Stem;
}
);
layerId = m01;
shapes = (
{
closed = 1;
nodes = (
(229,751,l),
(30,325,l),
(84,325,l),
(255,696,l),
(426,325,l),
(480,325,l),
(281,751,l)
);
}
);
width = 510;
}
);
note = asciicircum;
unicode = 94;
},
{
glyphname = underscore;
layers = (
{
hints = (
{
horizontal = 1;
place = (-125, 50);
place = (-125, 50);
type = Stem;
},
{
place = (0, 500);
place = (0, 500);
type = Stem;
}
);
layerId = m01;
shapes = (
{
closed = 1;
nodes = (
(0,-75,l),
(0,-125,l),
(500,-125,l),
(500,-75,l)
);
}
);
width = 500;
}
);
note = underscore;
unicode = 95;
},
{
glyphname = quoteleft;
kernLeft = quoteleft;
kernRight = quoteleft;
layers = (
{
hints = (
{
horizontal = 1;
place = (571, 249);
place = (571, 249);
type = Stem;
},
{
place = (48, 67);
place = (48, 67);
type = Stem;
}
);
layerId = m01;
shapes = (
{
closed = 1;
nodes = (
(115,716,o),
(133,770,o),
(148,802,cs),
(151,809,o),
(152,812,o),
(152,815,cs),
(152,818,o),
(149,820,o),
(147,820,cs),
(142,820,o),
(138,818,o),
(134,812,c),
(99,770,o),
(48,686,o),
(48,615,cs),
(48,600,o),
(53,595,o),
(65,589,cs),
(81,583,o),
(119,571,o),
(135,571,cs),
(139,571,o),
(144,574,o),
(144,577,cs),
(144,582,o),
(143,585,o),
(135,594,cs),
(128,602,o),
(115,628,o),
(115,659,cs)
);
}
);
width = 200;
}
);
note = quoteleft;
unicode = 8216;
},
{
glyphname = a;
kernLeft = a;
kernRight = a;
layers = (
{
hints = (
{
horizontal = 1;
place = (-3, 14);
place = (-3, 14);
type = Stem;
},
{
horizontal = 1;
place = (234, 35);
place = (234, 35);
type = Stem;
},
{
horizontal = 1;
place = (656, -20);
target = down;
type = TopGhost;
},
{
place = (-26, 689);
place = (-26, 689);
type = Stem;
}
);
layerId = m01;
shapes = (
{
closed = 1;
nodes = (
(82,91,ls),
(65,48,o),
(48,18,o),
(8,13,cs),
(1,12,o),
(-12,11,o),
(-18,11,cs),
(-22,11,o),
(-26,8,o),
(-26,4,cs),
(-26,-1,o),
(-20,-3,o),
(-9,-3,cs),
(27,-3,o),
(71,0,o),
(80,0,cs),
(90,0,o),
(138,-3,o),
(159,-3,cs),
(167,-3,o),
(172,-1,o),
(172,4,cs),
(172,8,o),
(170,11,o),
(163,11,cs),
(155,11,ls),
(140,11,o),
(125,17,o),
(125,34,cs),
(125,49,o),
(130,70,o),
(138,91,cs),
(188,227,ls),
(190,232,o),
(193,234,o),
(197,234,cs),
(400,234,ls),
(405,234,o),
(406,233,o),
(408,229,cs),
(487,34,ls),
(493,20,o),
(484,13,o),
(479,11,cs),
(475,9,o),
(473,9,o),
(473,5,cs),
(473,0,o),
(487,0,o),
(504,-1,cs),
(565,-3,o),
(630,-3,o),
(643,-3,cs),
(653,-3,o),
(663,-1,o),
(663,4,cs),
(663,9,o),
(657,11,o),
(652,11,cs),
(643,11,o),
(630,12,o),
(617,16,cs),
(598,22,o),
(574,33,o),
(542,109,cs),
(488,238,o),
(347,589,o),
(331,625,cs),
(322,644,o),
(319,656,o),
(310,656,cs),
(304,656,o),
(300,651,o),
(289,623,cs)
);
},
{
closed = 1;
nodes = (
(209,269,ls),
(206,269,o),
(205,271,o),
(206,275,cs),
(288,508,ls),
(293,521,o),
(298,521,o),
(303,508,cs),
(390,275,ls),
(391,271,o),
(391,269,o),
(387,269,cs)
);
}
);
width = 624;
}
);
note = a;
unicode = 97;
},
{
glyphname = b;
kernLeft = b;
kernRight = b;
layers = (
{
hints = (
{
horizontal = 1;
place = (-3, 12);
place = (-3, 12);
type = Stem;
},
{
horizontal = 1;
place = (335, 28);
place = (335, 28);
type = Stem;
},
{
horizontal = 1;
place = (613, 27);
place = (613, 27);
type = Stem;
},
{
place = (155, 76);
place = (155, 76);
type = Stem;
},
{
place = (468, 82);
place = (468, 82);
type = Stem;
},
{
horizontal = 1;
place = (0, 21);
target = up;
type = BottomGhost;
},
{
place = (411, 73);
place = (411, 73);
type = Stem;
},
{
horizontal = 1;
place = (628, 12);
place = (628, 12);
type = Stem;
},
{
horizontal = 1;
place = (-5, 30);
place = (-5, 30);
type = Stem;
}
);
layerId = m01;
shapes = (
{
closed = 1;
nodes = (
(155,244,ls),
(155,162,o),
(155,95,o),
(150,60,cs),
(146,35,o),
(144,16,o),
(127,13,cs),
(119,12,o),
(108,9,o),
(100,9,cs),
(95,9,o),
(93,7,o),
(93,4,cs),
(93,-1,o),
(98,-3,o),
(107,-3,cs),
(121,-3,o),
(142,-2,o),
(160,-1,cs),
(178,-1,o),
(194,0,o),
(196,0,cs),
(200,0,o),
(225,-1,o),
(253,-2,cs),
(281,-4,o),
(313,-5,o),
(329,-5,cs),
(479,-5,o),
(550,89,o),
(550,184,cs),
(550,280,o),
(462,341,o),
(395,361,c),
(440,401,o),
(484,443,o),
(484,510,cs),
(484,555,o),
(446,640,o),
(299,640,cs),
(258,640,o),
(217,638,o),
(196,638,cs),
(191,638,o),
(134,640,o),
(94,640,cs),
(84,640,o),
(80,638,o),
(80,633,cs),
(80,630,o),
(84,628,o),
(87,628,cs),
(95,628,o),
(110,627,o),
(117,626,cs),
(146,622,o),
(151,606,o),
(153,577,cs),
(155,550,o),
(155,526,o),
(155,394,cs)
);
},
{
closed = 1;
nodes = (
(231,600,ls),
(231,605,o),
(234,607,o),
(242,609,cs),
(256,612,o),
(277,613,o),
(287,613,cs),
(375,613,o),
(411,541,o),
(411,476,cs),
(411,435,o),
(396,406,o),
(377,385,cs),
(359,365,o),
(340,363,o),
(291,363,cs),
(258,363,o),
(242,366,o),
(237,367,cs),
(233,368,o),
(231,370,o),
(231,376,cs)
);
},
{
closed = 1;
nodes = (
(231,329,ls),
(231,333,o),
(233,335,o),
(236,335,cs),
(250,335,o),
(294,335,o),
(305,333,cs),
(326,329,o),
(354,330,o),
(384,311,cs),
(453,267,o),
(468,194,o),
(468,156,cs),
(468,47,o),
(397,25,o),
(339,25,cs),
(323,25,o),
(286,26,o),
(262,37,cs),
(235,50,o),
(235,60,o),
(232,101,cs),
(231,114,o),
(231,216,o),
(231,282,cs)
);
}
);
width = 614;
}
);
note = b;
unicode = 98;
},
{
glyphname = c;
kernLeft = c;
kernRight = c;
layers = (
{
hints = (
{
horizontal = 1;
place = (-14, 42);
place = (-14, 42);
type = Stem;
},
{
horizontal = 1;
place = (617, 35);
place = (617, 35);
type = Stem;
},
{
place = (55, 86);
place = (55, 86);
type = Stem;
},
{
place = (628, 19);
place = (628, 19);
type = Stem;
}
);
layerId = m01;
shapes = (
{
closed = 1;
nodes = (
(509,-14,o),
(575,-9,o),
(611,5,cs),
(626,11,o),
(628,14,o),
(633,30,cs),
(642,59,o),
(654,133,o),
(654,139,cs),
(654,145,o),
(650,151,o),
(646,151,cs),
(640,151,o),
(639,148,o),
(637,139,cs),
(634,123,o),
(622,87,o),
(603,68,cs),
(568,33,o),
(524,28,o),
(458,28,cs),
(270,28,o),
(141,173,o),
(141,336,cs),
(141,422,o),
(155,498,o),
(220,558,cs),
(251,587,o),
(305,617,o),
(418,617,cs),
(496,617,o),
(560,596,o),
(591,570,cs),
(614,552,o),
(628,518,o),
(628,485,cs),
(628,473,o),
(629,467,o),
(635,467,cs),
(640,467,o),
(644,472,o),
(645,485,cs),
(646,497,o),
(646,544,o),
(647,572,cs),
(649,603,o),
(651,613,o),
(651,620,cs),
(651,625,o),
(649,629,o),
(640,629,cs),
(611,630,o),
(583,636,o),
(550,642,cs),
(507,649,o),
(457,652,o),
(422,652,cs),
(287,652,o),
(207,612,o),
(154,561,cs),
(76,485,o),
(55,386,o),
(55,329,cs),
(55,248,o),
(76,151,o),
(162,77,cs),
(231,17,o),
(320,-14,o),
(452,-14,cs)
);
}
);
width = 708;
}
);
note = c;
unicode = 99;
},
{
glyphname = d;
kernLeft = b;
kernRight = d;
layers = (
{
hints = (
{
horizontal = 1;
place = (-10, 32);
place = (-10, 32);
type = Stem;
},
{
horizontal = 1;
place = (609, 31);
place = (609, 31);
type = Stem;
},
{
place = (155, 80);
place = (155, 80);
type = Stem;
},
{
place = (667, 86);
place = (667, 86);
type = Stem;
},
{
horizontal = 1;
place = (-3, 14);
place = (-3, 14);
type = Stem;
},
{
horizontal = 1;
place = (0, 21);
target = up;
type = BottomGhost;
},
{
horizontal = 1;
place = (626, 14);
place = (626, 14);
type = Stem;
}
);
layerId = m01;
shapes = (
{
closed = 1;
nodes = (
(155,244,ls),
(155,162,o),
(155,95,o),
(150,60,cs),
(146,35,o),
(144,19,o),
(127,15,cs),
(119,13,o),
(108,11,o),
(100,11,cs),
(95,11,o),
(93,7,o),
(93,4,cs),
(93,-1,o),
(98,-3,o),
(107,-3,cs),
(121,-3,o),
(142,-2,o),
(160,-1,cs),
(178,-1,o),
(194,0,o),
(196,0,cs),
(200,0,o),
(230,-2,o),
(268,-5,cs),
(306,-7,o),
(353,-10,o),
(391,-10,cs),
(541,-10,o),
(620,49,o),
(658,88,cs),
(707,138,o),
(753,220,o),
(753,327,cs),
(753,428,o),
(711,499,o),
(667,543,cs),
(563,648,o),
(402,640,o),
(314,640,cs),
(262,640,o),
(206,638,o),
(196,638,cs),
(191,638,o),
(134,640,o),
(94,640,cs),
(84,640,o),
(80,638,o),
(80,633,cs),
(80,630,o),
(84,626,o),
(87,626,cs),
(95,626,o),
(110,625,o),
(117,624,cs),
(146,620,o),
(151,606,o),
(153,577,cs),
(155,550,o),
(155,526,o),
(155,394,cs)
);
},
{
closed = 1;
nodes = (
(235,586,ls),
(235,596,o),
(238,600,o),
(246,603,cs),
(254,606,o),
(282,609,o),
(299,609,cs),
(404,609,o),
(501,598,o),
(584,514,cs),
(620,478,o),
(667,409,o),
(667,301,cs),
(667,223,o),
(644,142,o),
(598,99,cs),
(545,49,o),
(473,22,o),
(392,22,cs),
(288,22,o),
(257,40,o),
(246,56,cs),
(239,65,o),
(237,96,o),
(236,117,cs),
(235,133,o),
(235,212,o),
(235,302,cs)
);
}
);
width = 809;
}
);
note = d;
unicode = 100;
},
{
glyphname = e;
kernLeft = b;
kernRight = e;
layers = (
{
hints = (
{
horizontal = 1;
place = (-5, 36);
place = (-5, 36);
type = Stem;
},
{
horizontal = 1;
place = (321, 34);
place = (321, 34);
type = Stem;
},
{
horizontal = 1;
place = (604, 34);
place = (604, 34);
type = Stem;
},
{
place = (155, 80);
place = (155, 80);
type = Stem;
},
{
place = (423, 14);
place = (423, 14);
type = Stem;
},
{
horizontal = 1;
place = (-5, 20);
place = (-5, 20);
type = Stem;
},
{
horizontal = 1;
place = (-3, 14);
place = (-3, 14);
type = Stem;
},
{
horizontal = 1;
place = (0, 21);
target = up;
type = BottomGhost;
},
{
horizontal = 1;
place = (647, -20);
target = down;
type = TopGhost;
},
{
horizontal = 1;
place = (626, 14);
place = (626, 14);
type = Stem;
}
);
layerId = m01;
shapes = (
{
closed = 1;
nodes = (
(155,244,ls),
(155,162,o),
(155,95,o),
(150,60,cs),
(146,35,o),
(144,18,o),
(127,15,cs),
(119,14,o),
(108,11,o),
(100,11,cs),
(95,11,o),
(93,7,o),
(93,4,cs),
(93,-1,o),
(98,-3,o),
(107,-3,cs),
(121,-3,o),
(141,-2,o),
(158,-1,cs),
(177,0,o),
(194,0,o),
(196,0,cs),
(209,0,o),
(232,0,o),
(269,-2,cs),
(305,-3,o),
(356,-5,o),
(422,-5,cs),
(456,-5,o),
(465,-5,o),
(471,17,cs),
(476,35,o),
(483,93,o),
(483,99,cs),
(483,105,o),
(482,112,o),
(477,112,cs),
(472,112,o),
(470,109,o),
(468,99,cs),
(463,65,o),
(451,50,o),
(428,40,cs),
(405,31,o),
(363,31,o),
(340,31,cs),
(253,31,o),
(237,42,o),
(235,99,cs),
(234,116,o),
(235,215,o),
(235,244,cs),
(235,315,ls),
(235,318,o),
(236,321,o),
(241,321,cs),
(256,321,o),
(350,320,o),
(374,317,cs),
(408,313,o),
(416,303,o),
(419,291,cs),
(423,280,o),
(423,271,o),
(423,263,cs),
(423,258,o),
(425,255,o),
(429,255,cs),
(435,255,o),
(437,264,o),
(437,271,cs),
(437,277,o),
(439,309,o),
(441,326,cs),
(443,354,o),
(448,368,o),
(448,373,cs),
(448,378,o),
(446,380,o),
(443,380,cs),
(440,380,o),
(436,375,o),
(430,369,cs),
(421,360,o),
(408,359,o),
(387,357,cs),
(367,355,o),
(251,355,o),
(240,355,cs),
(235,355,o),
(235,358,o),
(235,364,cs),
(235,595,ls),
(235,601,o),
(236,604,o),
(240,604,cs),
(250,604,o),
(352,603,o),
(367,601,cs),
(415,595,o),
(424,589,o),
(430,575,cs),
(434,565,o),
(435,551,o),
(435,545,cs),
(435,538,o),
(437,534,o),
(442,534,cs),
(446,534,o),
(449,539,o),
(450,543,cs),
(452,553,o),
(454,591,o),
(455,599,cs),
(457,623,o),
(462,633,o),
(462,639,cs),
(462,643,o),
(461,647,o),
(458,647,cs),
(454,647,o),
(450,644,o),
(446,643,cs),
(439,642,o),
(423,639,o),
(406,638,cs),
(386,637,o),
(202,638,o),
(196,638,cs),
(191,638,o),
(134,640,o),
(94,640,cs),
(84,640,o),
(80,638,o),
(80,633,cs),
(80,630,o),
(84,626,o),
(87,626,cs),
(95,626,o),
(110,625,o),
(117,624,cs),
(146,620,o),
(151,606,o),
(153,577,cs),
(155,550,o),
(155,526,o),
(155,394,cs)
);
}
);
width = 551;
}
);
note = e;
unicode = 101;
},
{
glyphname = f;
kernLeft = b;
kernRight = f;
layers = (
{
hints = (
{
horizontal = 1;
place = (-3, 14);
place = (-3, 14);
type = Stem;
},
{
horizontal = 1;
place = (320, 35);
place = (320, 35);
type = Stem;
},
{
horizontal = 1;
place = (601, 37);
place = (601, 37);
type = Stem;
},
{
place = (155, 80);
place = (155, 80);
type = Stem;
},
{
place = (433, 14);
place = (433, 14);
type = Stem;
},
{
horizontal = 1;
place = (647, -20);
target = down;
type = TopGhost;
},
{
horizontal = 1;
place = (626, 14);
place = (626, 14);
type = Stem;
}
);
layerId = m01;
shapes = (
{
closed = 1;
nodes = (
(155,244,ls),
(155,162,o),
(155,95,o),
(150,60,cs),
(146,35,o),
(144,18,o),
(127,15,cs),
(119,14,o),
(108,11,o),
(100,11,cs),
(95,11,o),
(93,7,o),
(93,4,cs),
(93,-1,o),
(98,-3,o),
(107,-3,cs),
(134,-3,o),
(189,0,o),
(194,0,cs),
(198,0,o),
(255,-3,o),
(304,-3,cs),
(314,-3,o),
(318,0,o),
(318,4,cs),
(318,7,o),
(316,11,o),
(311,11,cs),
(303,11,o),
(284,13,o),
(271,15,cs),
(247,19,o),
(242,35,o),
(239,60,cs),
(235,93,o),
(235,160,o),
(235,244,cs),
(235,312,ls),
(235,318,o),
(236,320,o),
(241,320,cs),
(256,320,o),
(360,321,o),
(382,318,cs),
(409,314,o),
(423,303,o),
(427,291,cs),
(431,281,o),
(432,269,o),
(433,260,cs),
(433,256,o),
(434,252,o),
(439,252,cs),
(445,252,o),
(447,261,o),
(447,269,cs),
(447,275,o),
(448,309,o),
(450,326,cs),
(452,354,o),
(458,368,o),
(458,373,cs),
(458,377,o),
(457,380,o),
(453,380,cs),
(450,380,o),
(446,376,o),
(442,371,cs),
(434,361,o),
(422,358,o),
(401,356,cs),
(389,355,o),
(376,355,o),
(361,355,cs),
(241,354,ls),
(235,354,o),
(235,357,o),
(235,362,cs),
(235,594,ls),
(235,601,o),
(237,603,o),
(242,603,cs),
(386,601,ls),
(420,601,o),
(441,587,o),
(446,576,cs),
(451,565,o),
(454,551,o),
(454,544,cs),
(454,538,o),
(457,534,o),
(461,534,cs),
(465,534,o),
(468,539,o),
(469,543,cs),
(471,553,o),
(472,591,o),
(473,599,cs),
(476,623,o),
(480,633,o),
(480,639,cs),
(480,643,o),
(478,647,o),
(474,647,cs),
(471,647,o),
(467,643,o),
(462,642,cs),
(454,639,o),
(439,639,o),
(422,638,cs),
(402,637,o),
(211,638,o),
(194,638,cs),
(189,638,o),
(134,640,o),
(94,640,cs),
(84,640,o),
(80,638,o),
(80,633,cs),
(80,630,o),
(84,626,o),
(87,626,cs),
(95,626,o),
(110,625,o),
(117,624,cs),
(146,620,o),
(151,606,o),
(153,577,cs),
(155,550,o),
(155,526,o),
(155,394,cs)
);
}
);
width = 535;
}
);
note = f;
unicode = 102;
},
{
glyphname = g;
kernLeft = c;
layers = (
{
hints = (
{
horizontal = 1;
place = (-14, 39);
place = (-14, 39);
type = Stem;
},
{
horizontal = 1;
place = (302, 14);
place = (302, 14);
type = Stem;
},
{
horizontal = 1;
place = (618, 34);
place = (618, 34);
type = Stem;
},
{
place = (55, 83);
place = (55, 83);
type = Stem;
},
{
place = (569, 80);
place = (569, 80);
type = Stem;
},
{
place = (632, 16);
place = (632, 16);
type = Stem;
}
);
layerId = m01;
shapes = (
{
closed = 1;
nodes = (
(569,67,ls),
(569,51,o),
(562,47,o),
(551,41,cs),
(528,28,o),
(487,25,o),
(456,25,cs),
(375,25,o),
(301,49,o),
(231,114,cs),
(200,143,o),
(138,229,o),
(138,349,cs),
(138,448,o),
(174,524,o),
(225,563,cs),
(292,614,o),
(356,618,o),
(409,618,cs),
(523,618,o),
(590,584,o),
(612,552,cs),
(626,532,o),
(631,507,o),
(632,496,cs),
(632,488,o),
(633,483,o),
(638,483,cs),
(644,483,o),
(648,487,o),
(648,501,cs),
(648,586,o),
(653,609,o),
(653,621,cs),
(653,625,o),
(651,629,o),
(642,629,cs),
(620,629,o),
(589,634,o),
(571,638,cs),
(554,642,o),
(492,652,o),
(436,652,cs),
(369,652,o),
(281,646,o),
(202,598,cs),
(124,551,o),
(55,455,o),
(55,319,cs),
(55,213,o),
(106,122,o),
(160,77,cs),
(258,-6,o),
(383,-14,o),
(450,-14,cs),
(501,-14,o),
(581,-5,o),
(637,24,cs),
(648,30,o),
(649,31,o),
(649,70,cs),
(649,165,ls),
(649,201,o),
(649,226,o),
(650,253,cs),
(652,283,o),
(659,296,o),
(683,300,cs),
(693,302,o),
(699,302,o),
(705,302,cs),
(708,302,o),
(712,306,o),
(712,309,cs),
(712,315,o),
(708,316,o),
(698,316,cs),
(671,316,o),
(616,314,o),
(612,314,cs),
(607,314,o),
(548,316,o),
(508,316,cs),
(498,316,o),
(494,315,o),
(494,309,cs),
(494,306,o),
(498,302,o),
(501,302,cs),
(509,302,o),
(524,301,o),
(531,300,cs),
(567,293,o),
(569,283,o),
(569,214,cs)
);
}
);
width = 759;
}
);
note = g;
unicode = 103;
},
{
glyphname = h;
kernLeft = b;
kernRight = h;
layers = (
{
hints = (
{
horizontal = 1;
place = (-3, 14);
place = (-3, 14);
type = Stem;
},
{
horizontal = 1;
place = (332, 37);
place = (332, 37);
type = Stem;
},
{
horizontal = 1;
place = (626, 14);
place = (626, 14);
type = Stem;
},
{
place = (155, 80);
place = (155, 80);
type = Stem;
},
{
place = (612, 80);
place = (612, 80);
type = Stem;
}
);
layerId = m01;
shapes = (
{
closed = 1;
nodes = (
(692,394,ls),
(692,526,o),
(692,550,o),
(694,577,cs),
(696,607,o),
(701,619,o),
(724,624,cs),
(735,626,o),
(740,626,o),
(746,626,cs),
(750,626,o),
(754,630,o),
(754,633,cs),
(754,638,o),
(749,640,o),
(739,640,cs),
(713,640,o),
(657,638,o),
(652,638,cs),
(648,638,o),
(591,640,o),
(552,640,cs),
(542,640,o),
(538,638,o),
(538,633,cs),
(538,630,o),
(541,626,o),
(545,626,cs),
(553,626,o),
(568,625,o),
(575,624,cs),
(604,620,o),
(608,606,o),
(610,577,cs),
(611,550,o),
(612,524,o),
(612,392,cs),
(612,374,ls),
(612,369,o),
(610,369,o),
(607,369,cs),
(240,369,ls),
(237,369,o),
(235,369,o),
(235,374,cs),
(235,392,ls),
(235,524,o),
(235,550,o),
(236,577,cs),
(238,607,o),
(243,619,o),
(267,624,cs),
(277,626,o),
(283,626,o),
(289,626,cs),
(292,626,o),
(296,630,o),
(296,633,cs),
(296,638,o),
(292,640,o),
(282,640,cs),
(255,640,o),
(199,638,o),
(195,638,cs),
(190,638,o),
(134,640,o),
(94,640,cs),
(84,640,o),
(80,638,o),
(80,633,cs),
(80,630,o),
(84,626,o),
(87,626,cs),
(95,626,o),
(110,625,o),
(117,624,cs),
(146,620,o),
(151,606,o),
(153,577,cs),
(155,550,o),
(155,526,o),
(155,394,cs),
(155,244,ls),
(155,162,o),
(155,95,o),
(150,60,cs),
(146,35,o),
(144,19,o),
(127,15,cs),
(119,13,o),
(108,11,o),
(100,11,cs),
(95,11,o),
(93,7,o),
(93,4,cs),
(93,-1,o),
(98,-3,o),
(107,-3,cs),
(134,-3,o),
(190,0,o),
(195,0,cs),
(199,0,o),
(255,-3,o),
(304,-3,cs),
(314,-3,o),
(318,0,o),
(318,4,cs),
(318,7,o),
(316,11,o),
(311,11,cs),
(303,11,o),
(284,13,o),
(271,15,cs),
(245,19,o),
(242,35,o),
(239,60,cs),
(235,95,o),
(235,160,o),
(235,242,cs),
(235,327,ls),
(235,331,o),
(237,332,o),
(240,332,cs),
(607,332,ls),
(610,332,o),
(612,331,o),
(612,327,cs),
(612,242,ls),
(612,160,o),
(612,96,o),
(608,61,cs),
(605,36,o),
(602,19,o),
(584,15,cs),
(576,13,o),
(566,11,o),
(558,11,cs),
(553,11,o),
(551,7,o),
(551,4,cs),
(551,-1,o),
(555,-3,o),
(565,-3,cs),
(591,-3,o),
(648,0,o),
(652,0,cs),
(657,0,o),
(713,-3,o),
(761,-3,cs),
(771,-3,o),
(776,0,o),
(776,4,cs),
(776,7,o),
(774,11,o),
(768,11,cs),
(761,11,o),
(741,13,o),
(729,15,cs),
(702,19,o),
(700,35,o),
(697,60,cs),
(693,95,o),
(692,162,o),
(692,244,cs)
);
}
);
width = 847;
}
);
note = h;
unicode = 104;
},
{
glyphname = i;
kernLeft = b;
kernRight = h;
layers = (
{
hints = (
{
horizontal = 1;
place = (-3, 14);
place = (-3, 14);
type = Stem;
},
{
horizontal = 1;
place = (626, 14);
place = (626, 14);
type = Stem;
},
{
place = (155, 80);
place = (155, 80);
type = Stem;
}
);
layerId = m01;
shapes = (
{
closed = 1;
nodes = (
(235,394,ls),
(235,526,o),
(235,550,o),
(236,577,cs),
(238,607,o),
(243,619,o),
(267,624,cs),
(277,626,o),
(283,626,o),
(289,626,cs),
(292,626,o),
(296,630,o),
(296,633,cs),
(296,638,o),
(292,640,o),
(282,640,cs),
(255,640,o),
(198,638,o),
(194,638,cs),
(189,638,o),
(134,640,o),
(105,640,cs),
(95,640,o),
(91,638,o),
(91,633,cs),
(91,630,o),
(94,626,o),
(98,626,cs),
(104,626,o),
(115,625,o),
(125,623,cs),
(144,619,o),
(151,606,o),
(153,577,cs),
(155,550,o),
(155,526,o),
(155,394,cs),
(155,244,ls),
(155,162,o),
(154,95,o),
(150,60,cs),
(147,35,o),
(144,19,o),
(127,15,cs),
(119,13,o),
(108,11,o),
(100,11,cs),
(95,11,o),
(93,7,o),
(93,4,cs),
(93,-1,o),
(98,-3,o),
(107,-3,cs),
(134,-3,o),
(189,0,o),
(194,0,cs),
(198,0,o),
(255,-3,o),
(304,-3,cs),
(314,-3,o),
(318,0,o),
(318,4,cs),
(318,7,o),
(316,11,o),
(311,11,cs),
(303,11,o),
(284,13,o),
(271,15,cs),
(245,19,o),
(242,35,o),
(239,60,cs),
(235,95,o),
(235,162,o),
(235,244,cs)
);
}
);
width = 389;
}
);
note = i;
unicode = 105;
},
{
glyphname = j;
kernLeft = j;
kernRight = j;
layers = (
{
hints = (
{
horizontal = 1;
place = (-214, 21);
target = up;
type = BottomGhost;
},
{
horizontal = 1;
place = (626, 14);
place = (626, 14);
type = Stem;
},
{
place = (155, 80);
place = (155, 80);
type = Stem;
}
);
layerId = m01;
shapes = (
{
closed = 1;
nodes = (
(235,394,ls),
(235,526,o),
(235,550,o),
(236,577,cs),
(238,607,o),
(243,619,o),
(267,624,cs),
(277,626,o),
(283,626,o),
(289,626,cs),
(292,626,o),
(296,630,o),
(296,633,cs),
(296,638,o),
(292,640,o),
(282,640,cs),
(255,640,o),
(200,638,o),
(196,638,cs),
(191,638,o),
(134,640,o),
(94,640,cs),
(84,640,o),
(80,638,o),
(80,633,cs),
(80,630,o),
(84,626,o),
(87,626,cs),
(95,626,o),
(110,625,o),
(117,624,cs),
(146,620,o),
(151,606,o),
(153,577,cs),
(155,550,o),
(155,526,o),
(155,394,cs),
(155,148,ls),
(155,-71,o),
(128,-115,o),
(71,-172,cs),
(63,-179,o),
(51,-189,o),
(40,-195,cs),
(32,-200,o),
(29,-204,o),
(29,-209,cs),
(29,-213,o),
(33,-214,o),
(35,-214,cs),
(38,-214,o),
(40,-213,o),
(41,-213,c),
(50,-208,o),
(65,-199,o),
(77,-191,cs),
(148,-144,o),
(187,-104,o),
(206,-61,cs),
(232,-1,o),
(235,52,o),
(235,190,cs)
);
}
);
width = 369;
}
);
note = j;
unicode = 106;
},
{
glyphname = k;
kernLeft = b;
kernRight = k;
layers = (
{
hints = (
{
horizontal = 1;
place = (-3, 14);
place = (-3, 14);
type = Stem;
},
{
horizontal = 1;
place = (327, 16);
place = (327, 16);
type = Stem;
},
{
horizontal = 1;
place = (626, 14);
place = (626, 14);
type = Stem;
},
{
place = (155, 77);
place = (155, 77);
type = Stem;
}
);
layerId = m01;
shapes = (
{
closed = 1;
nodes = (
(155,244,ls),
(155,162,o),
(155,95,o),
(150,60,cs),
(146,35,o),
(144,19,o),
(127,15,cs),
(119,13,o),
(108,11,o),
(100,11,cs),
(95,11,o),
(93,7,o),
(93,4,cs),
(93,-1,o),
(98,-3,o),
(107,-3,cs),
(134,-3,o),
(187,0,o),
(194,0,cs),
(201,0,o),
(254,-3,o),
(297,-3,cs),
(307,-3,o),
(311,0,o),
(311,4,cs),
(311,7,o),
(309,11,o),
(304,11,cs),
(296,11,o),
(282,13,o),
(270,15,cs),
(243,19,o),
(239,35,o),
(236,60,cs),
(232,95,o),
(232,162,o),
(232,244,cs),
(232,327,l),
(236,327,l),
(278,277,o),
(463,82,o),
(503,51,cs),
(541,22,o),
(564,3,o),
(610,-1,cs),
(630,-3,o),
(646,-3,o),
(671,-3,cs),
(716,-3,ls),
(731,-3,o),
(735,0,o),
(735,4,cs),
(735,8,o),
(730,11,o),
(724,11,cs),
(718,11,o),
(693,14,o),
(670,23,cs),
(628,40,o),
(618,51,o),
(544,117,cs),
(508,150,o),
(325,333,o),
(302,358,c),
(321,379,o),
(471,523,o),
(493,543,cs),
(532,580,o),
(549,599,o),
(585,615,cs),
(602,622,o),
(621,627,o),
(634,627,cs),
(641,627,o),
(643,630,o),
(643,634,cs),
(643,638,o),
(639,640,o),
(630,640,cs),
(608,640,o),
(550,638,o),
(545,638,cs),
(524,638,o),
(497,640,o),
(479,640,cs),
(473,640,o),
(469,638,o),
(469,634,cs),
(469,631,o),
(472,627,o),
(477,626,cs),
(484,625,o),
(488,620,o),
(488,609,cs),
(488,595,o),
(465,573,o),
(440,548,cs),
(407,514,o),
(250,359,o),
(236,343,c),
(232,343,l),
(232,394,ls),
(232,526,o),
(232,550,o),
(234,577,cs),
(236,607,o),
(242,619,o),
(265,624,cs),
(276,626,o),
(281,626,o),
(287,626,cs),
(291,626,o),
(294,630,o),
(294,633,cs),
(294,638,o),
(290,640,o),
(280,640,cs),
(254,640,o),
(201,638,o),
(193,638,cs),
(188,638,o),
(134,640,o),
(94,640,cs),
(84,640,o),
(80,638,o),
(80,633,cs),
(80,630,o),
(84,626,o),
(87,626,cs),
(95,626,o),
(110,625,o),
(117,624,cs),
(146,620,o),
(151,606,o),
(153,577,cs),
(155,550,o),
(155,526,o),
(155,394,cs)
);
}
);
width = 666;
}
);
note = k;
unicode = 107;
},
{
glyphname = l;
kernLeft = b;
kernRight = l;
layers = (
{
hints = (
{
horizontal = 1;
place = (-5, 36);
place = (-5, 36);
type = Stem;
},
{
horizontal = 1;
place = (627, 13);
place = (627, 13);
type = Stem;
},
{
place = (155, 80);
place = (155, 80);
type = Stem;
},
{
horizontal = 1;
place = (-5, 20);
place = (-5, 20);
type = Stem;
},
{
horizontal = 1;
place = (-3, 14);
place = (-3, 14);
type = Stem;
},
{
horizontal = 1;
place = (0, 21);
target = up;
type = BottomGhost;
}
);
layerId = m01;
shapes = (
{
closed = 1;
nodes = (
(235,394,ls),
(235,526,o),
(235,550,o),
(236,577,cs),
(238,607,o),
(243,620,o),
(269,625,cs),
(279,626,o),
(292,627,o),
(298,627,cs),
(301,627,o),
(305,630,o),
(305,633,cs),
(305,638,o),
(300,640,o),
(291,640,cs),
(264,640,o),
(198,638,o),
(194,638,cs),
(189,638,o),
(134,640,o),
(94,640,cs),
(84,640,o),
(80,638,o),
(80,633,cs),
(80,630,o),
(84,626,o),
(87,626,cs),
(95,626,o),
(110,625,o),
(117,624,cs),
(146,620,o),
(151,606,o),
(153,577,cs),
(155,550,o),
(155,526,o),
(155,394,cs),
(155,244,ls),
(155,162,o),
(155,95,o),
(150,60,cs),
(146,35,o),
(144,19,o),
(127,15,cs),
(119,13,o),
(108,11,o),
(100,11,cs),
(95,11,o),
(93,7,o),
(93,4,cs),
(93,-1,o),
(98,-3,o),
(107,-3,cs),
(121,-3,o),
(140,-2,o),
(158,-1,cs),
(175,0,o),
(190,0,o),
(194,0,cs),
(220,0,o),
(250,-1,o),
(290,-2,cs),
(331,-4,o),
(380,-5,o),
(443,-5,cs),
(490,-5,o),
(493,-2,o),
(499,18,cs),
(506,43,o),
(512,94,o),
(512,103,cs),
(512,112,o),
(510,116,o),
(506,116,cs),
(501,116,o),
(498,111,o),
(497,105,cs),
(494,88,o),
(487,70,o),
(476,57,cs),
(455,32,o),
(416,31,o),
(370,31,cs),
(301,31,o),
(267,37,o),
(253,51,cs),
(237,66,o),
(235,117,o),
(235,242,cs)
);
}
);
width = 535;
}
);
note = l;
unicode = 108;
},
{
glyphname = m;
kernLeft = m;
kernRight = m;
layers = (
{
hints = (
{
horizontal = 1;
place = (-3, 14);
place = (-3, 14);
type = Stem;
},
{
horizontal = 1;
place = (652, -20);
target = down;
type = TopGhost;
},
{
place = (44, 879);
place = (44, 879);
type = Stem;
}
);
layerId = m01;
shapes = (
{
closed = 1;
nodes = (
(754,629,ls),
(752,645,o),
(747,652,o),
(741,652,cs),
(735,652,o),
(731,646,o),
(727,638,cs),
(471,111,l),
(205,639,ls),
(200,649,o),
(193,652,o),
(187,652,cs),
(182,652,o),
(178,646,o),
(177,637,cs),
(113,82,ls),
(109,50,o),
(108,19,o),
(79,14,cs),
(66,12,o),
(60,11,o),
(53,11,cs),
(48,11,o),
(44,8,o),
(44,5,cs),
(44,-1,o),
(50,-3,o),
(59,-3,cs),
(83,-3,o),
(125,0,o),
(133,0,cs),
(140,0,o),
(182,-3,o),
(215,-3,cs),
(225,-3,o),
(231,-1,o),
(231,5,cs),
(231,8,o),
(227,11,o),
(224,11,cs),
(218,11,o),
(205,12,o),
(190,16,cs),
(177,19,o),
(169,27,o),
(169,40,cs),
(169,54,o),
(169,70,o),
(170,83,cs),
(204,467,l),
(208,467,l),
(223,432,o),
(294,289,o),
(320,235,cs),
(342,189,o),
(400,80,o),
(423,38,cs),
(440,7,o),
(445,-1,o),
(453,-1,cs),
(461,-1,o),
(466,7,o),
(484,44,cs),
(696,478,l),
(698,478,l),
(740,48,ls),
(742,32,o),
(741,19,o),
(736,18,cs),
(732,17,o),
(730,14,o),
(730,11,cs),
(730,7,o),
(734,4,o),
(755,2,cs),
(787,-1,o),
(885,-3,o),
(905,-3,cs),
(915,-3,o),
(923,0,o),
(923,5,cs),
(923,9,o),
(920,11,o),
(916,11,cs),
(907,11,o),
(884,11,o),
(859,19,cs),
(823,31,o),
(817,77,o),
(814,107,cs)
);
}
);
width = 924;
}
);
note = m;
unicode = 109;
},
{
glyphname = n;
kernLeft = b;
kernRight = h;
layers = (
{
hints = (
{
horizontal = 1;
place = (-3, 14);
place = (-3, 14);
type = Stem;
},
{
horizontal = 1;
place = (626, 14);
place = (626, 14);
type = Stem;
},
{
place = (137, 50);
place = (137, 50);
type = Stem;
},
{
place = (664.5, 48.5);
place = (664.5, 48.5);
type = Stem;
},
{
horizontal = 1;
place = (-9, 20);
place = (-9, 20);
type = Stem;
},
{
horizontal = 1;
place = (652, -20);
target = down;
type = TopGhost;
}
);
layerId = m01;
shapes = (
{
closed = 1;
nodes = (
(182,514,l),
(209,484,o),
(308,380,o),
(410,273,cs),
(503,176,o),
(630,51,o),
(639,43,cs),
(688,-2,o),
(697,-9,o),
(706,-9,cs),
(712,-9,o),
(713,-4,o),
(713,52,cs),
(715,550,ls),
(715,601,o),
(717,618,o),
(746,624,cs),
(756,626,o),
(763,626,o),
(767,626,cs),
(773,626,o),
(777,631,o),
(777,634,cs),
(777,639,o),
(770,640,o),
(761,640,cs),
(725,640,o),
(696,638,o),
(686,638,cs),
(676,638,o),
(634,640,o),
(594,640,cs),
(584,640,o),
(577,639,o),
(577,634,cs),
(577,631,o),
(578,626,o),
(584,626,cs),
(591,626,o),
(611,625,o),
(627,622,cs),
(654,617,o),
(659,598,o),
(660,543,cs),
(669,117,l),
(642,145,o),
(548,246,o),
(461,336,cs),
(325,476,o),
(197,612,o),
(183,626,cs),
(174,635,o),
(159,652,o),
(149,652,cs),
(142,652,o),
(137,643,o),
(137,609,cs),
(137,122,ls),
(137,45,o),
(134,22,o),
(112,16,cs),
(99,12,o),
(83,11,o),
(76,11,cs),
(72,11,o),
(69,8,o),
(69,4,cs),
(69,-2,o),
(74,-3,o),
(83,-3,cs),
(123,-3,o),
(160,0,o),
(168,0,cs),
(176,0,o),
(211,-3,o),
(261,-3,cs),
(271,-3,o),
(277,-1,o),
(277,4,cs),
(277,8,o),
(274,11,o),
(270,11,cs),
(262,11,o),
(242,12,o),
(226,16,cs),
(202,22,o),
(194,43,o),
(192,113,cs)
);
}
);
width = 833;
}
);
note = n;
unicode = 110;
},
{
glyphname = o;
kernLeft = c;
kernRight = o;
layers = (
{
hints = (
{
horizontal = 1;
place = (-14, 35);
place = (-14, 35);
type = Stem;
},
{
horizontal = 1;
place = (620, 32);
place = (620, 32);
type = Stem;
},
{
place = (55, 91);
place = (55, 91);
type = Stem;
},
{
place = (662, 90);
place = (662, 90);
type = Stem;
}
);
layerId = m01;
shapes = (
{
closed = 1;
nodes = (
(55,167,o),
(158,-14,o),
(399,-14,cs),
(611,-14,o),
(752,143,o),
(752,333,cs),
(752,531,o),
(602,652,o),
(404,652,cs),
(161,652,o),
(55,457,o),
(55,320,cs)
);
},
{
closed = 1;
nodes = (
(146,528,o),
(252,620,o),
(399,620,cs),
(538,620,o),
(662,513,o),
(662,309,cs),
(662,63,o),
(503,21,o),
(424,21,cs),
(265,21,o),
(146,145,o),
(146,343,cs)
);
}
);
width = 808;
}
);
note = o;
unicode = 111;
},
{
glyphname = p;
kernLeft = b;
kernRight = p;
layers = (
{
hints = (
{
horizontal = 1;
place = (-3, 14);
place = (-3, 14);
type = Stem;
},
{
horizontal = 1;
place = (287, 18);
place = (287, 18);
type = Stem;
},
{
horizontal = 1;
place = (626, 14);
place = (626, 14);
type = Stem;
},
{
place = (155, 78);
place = (155, 78);
type = Stem;
},
{
place = (458, 75);
place = (458, 75);
type = Stem;
},
{
horizontal = 1;
place = (612, 28);
place = (612, 28);
type = Stem;
}
);
layerId = m01;
shapes = (
{
closed = 1;
nodes = (
(155,244,ls),
(155,162,o),
(155,95,o),
(150,60,cs),
(146,35,o),
(144,19,o),
(127,15,cs),
(119,13,o),
(108,11,o),
(100,11,cs),
(95,11,o),
(93,7,o),
(93,4,cs),
(93,-1,o),
(98,-3,o),
(107,-3,cs),
(134,-3,o),
(191,0,o),
(194,0,cs),
(198,0,o),
(256,-3,o),
(304,-3,cs),
(314,-3,o),
(318,0,o),
(318,4,cs),
(318,7,o),
(316,11,o),
(311,11,cs),
(303,11,o),
(284,13,o),
(272,15,cs),
(245,19,o),
(240,35,o),
(237,60,cs),
(233,95,o),
(233,162,o),
(233,244,cs),
(233,590,ls),
(233,599,o),
(235,605,o),
(240,606,cs),
(249,608,o),
(274,612,o),
(289,612,cs),
(309,612,o),
(362,617,o),
(408,571,cs),
(455,525,o),
(458,470,o),
(458,442,cs),
(458,365,o),
(390,305,o),
(295,305,cs),
(277,305,o),
(272,303,o),
(272,296,cs),
(272,292,o),
(277,288,o),
(281,288,cs),
(286,287,o),
(301,287,o),
(306,287,cs),
(441,287,o),
(533,368,o),
(533,490,cs),
(533,536,o),
(509,574,o),
(489,592,cs),
(474,605,o),
(434,640,o),
(321,640,cs),
(281,640,o),
(215,638,o),
(196,638,cs),
(189,638,o),
(134,640,o),
(94,640,cs),
(84,640,o),
(80,638,o),
(80,633,cs),
(80,630,o),
(84,626,o),
(87,626,cs),
(95,626,o),
(110,625,o),
(117,624,cs),
(146,620,o),
(151,606,o),
(153,577,cs),
(155,550,o),
(155,526,o),
(155,394,cs)
);
}
);
width = 586;
}
);
note = p;
unicode = 112;
},
{
glyphname = q;
kernLeft = c;
kernRight = q;
layers = (
{
hints = (
{
horizontal = 1;
place = (-179, 38);
place = (-179, 38);
type = Stem;
},
{
horizontal = 1;
place = (-14, 35);
place = (-14, 35);
type = Stem;
},
{
horizontal = 1;
place = (620, 32);
place = (620, 32);
type = Stem;
},
{
place = (54, 90);
place = (54, 90);
type = Stem;
},
{
place = (661, 90);
place = (661, 90);
type = Stem;
}
);
layerId = m01;
shapes = (
{
closed = 1;
nodes = (
(684,-67,ls),
(826,-144,o),
(941,-179,o),
(1048,-179,cs),
(1178,-179,o),
(1278,-142,o),
(1328,-120,cs),
(1333,-118,o),
(1335,-115,o),
(1335,-111,cs),
(1335,-109,o),
(1333,-105,o),
(1330,-105,cs),
(1327,-105,o),
(1323,-106,o),
(1317,-108,cs),
(1256,-130,o),
(1189,-141,o),
(1145,-141,cs),
(1101,-141,o),
(968,-136,o),
(776,-41,cs),
(596,48,l),
(654,84,o),
(751,184,o),
(751,333,cs),
(751,530,o),
(601,652,o),
(403,652,cs),
(160,652,o),
(54,457,o),
(54,320,cs),
(54,167,o),
(156,-14,o),
(399,-14,cs),
(446,-14,o),
(506,-4,o),
(538,12,c)
);
},
{
closed = 1;
nodes = (
(144,529,o),
(250,620,o),
(397,620,cs),
(536,620,o),
(661,511,o),
(661,309,cs),
(661,64,o),
(501,21,o),
(422,21,cs),
(263,21,o),
(144,147,o),
(144,343,cs)
);
}
);
width = 810;
}
);
note = q;
unicode = 113;
},
{
glyphname = r;
kernLeft = b;
kernRight = r;
layers = (
{
hints = (
{
horizontal = 1;
place = (-3, 14);
place = (-3, 14);
type = Stem;
},
{
horizontal = 1;
place = (268, 30);
place = (268, 30);
type = Stem;
},
{
horizontal = 1;
place = (610, 30);
place = (610, 30);
type = Stem;
},
{
place = (155, 76);
place = (155, 76);
type = Stem;
},
{
place = (453, 80);
place = (453, 80);
type = Stem;
},
{
horizontal = 1;
place = (626, 14);
place = (626, 14);
type = Stem;
}
);
layerId = m01;
shapes = (
{
closed = 1;
nodes = (
(155,244,ls),
(155,162,o),
(155,95,o),
(150,60,cs),
(146,35,o),
(144,19,o),
(127,15,cs),
(119,13,o),
(108,11,o),
(100,11,cs),
(95,11,o),
(93,7,o),
(93,4,cs),
(93,-1,o),
(98,-3,o),
(107,-3,cs),
(134,-3,o),
(193,0,o),
(194,0,cs),
(198,0,o),
(254,-3,o),
(302,-3,cs),
(312,-3,o),
(316,0,o),
(316,4,cs),
(316,7,o),
(315,11,o),
(309,11,cs),
(301,11,o),
(282,13,o),
(270,15,cs),
(243,19,o),
(238,35,o),
(235,60,cs),
(231,95,o),
(231,161,o),
(231,243,cs),
(231,263,ls),
(231,268,o),
(233,270,o),
(237,270,cs),
(349,268,ls),
(355,268,o),
(357,267,o),
(361,263,cs),
(380,240,o),
(419,185,o),
(456,139,cs),
(506,75,o),
(538,34,o),
(576,14,cs),
(598,2,o),
(620,-3,o),
(670,-3,cs),
(725,-3,ls),
(741,-3,o),
(746,-1,o),
(746,4,cs),
(746,7,o),
(743,11,o),
(738,11,cs),
(733,11,o),
(724,11,o),
(707,14,cs),
(685,17,o),
(656,25,o),
(609,73,cs),
(558,126,o),
(497,203,o),
(425,293,c),
(507,363,o),
(533,424,o),
(533,487,cs),
(533,546,o),
(494,587,o),
(472,603,cs),
(426,635,o),
(364,640,o),
(308,640,cs),
(281,640,o),
(207,638,o),
(198,638,cs),
(193,638,o),
(134,640,o),
(94,640,cs),
(84,640,o),
(80,638,o),
(80,633,cs),
(80,630,o),
(84,626,o),
(87,626,cs),
(95,626,o),
(110,625,o),
(117,624,cs),
(146,620,o),
(151,606,o),
(153,577,cs),
(155,550,o),
(155,526,o),
(155,394,cs)
);
},
{
closed = 1;
nodes = (
(231,595,ls),
(231,600,o),
(234,603,o),
(238,605,c),
(247,607,o),
(275,610,o),
(301,610,cs),
(395,610,o),
(453,549,o),
(453,443,cs),
(453,378,o),
(430,333,o),
(400,313,cs),
(379,299,o),
(355,298,o),
(334,298,cs),
(295,298,o),
(250,304,o),
(237,311,cs),
(233,314,o),
(231,317,o),
(231,322,cs)
);
}
);
width = 672;
}
);
note = r;
unicode = 114;
},
{
glyphname = s;
kernLeft = s;
kernRight = s;
layers = (
{
hints = (
{
horizontal = 1;
place = (-14, 34);
place = (-14, 34);
type = Stem;
},
{
horizontal = 1;
place = (619, 34);
place = (619, 34);
type = Stem;
},
{
place = (68, 20);
place = (68, 20);
type = Stem;
},
{
place = (362, 69);
place = (362, 69);
type = Stem;
},
{
place = (85, 63);
place = (85, 63);
type = Stem;
},
{
horizontal = 1;
place = (619, 20);
place = (619, 20);
type = Stem;
}
);
layerId = m01;
shapes = (
{
closed = 1;
nodes = (
(257,-14,o),
(312,-8,o),
(349,16,cs),
(412,57,o),
(431,111,o),
(431,161,cs),
(431,234,o),
(394,293,o),
(287,366,cs),
(262,383,ls),
(175,442,o),
(148,473,o),
(148,527,cs),
(148,587,o),
(201,619,o),
(265,619,cs),
(344,619,o),
(373,587,o),
(379,577,cs),
(384,568,o),
(391,545,o),
(392,535,cs),
(393,528,o),
(394,524,o),
(400,524,cs),
(406,524,o),
(407,530,o),
(407,543,cs),
(407,601,o),
(411,629,o),
(411,633,cs),
(411,638,o),
(409,639,o),
(402,639,cs),
(395,639,o),
(388,639,o),
(371,643,cs),
(350,648,o),
(315,653,o),
(280,653,cs),
(164,653,o),
(85,593,o),
(85,493,cs),
(85,434,o),
(116,382,o),
(211,311,cs),
(251,281,ls),
(329,223,o),
(362,194,o),
(362,133,cs),
(362,69,o),
(317,20,o),
(230,20,cs),
(171,20,o),
(105,42,o),
(91,104,cs),
(88,116,o),
(88,128,o),
(88,135,cs),
(88,142,o),
(85,145,o),
(80,145,cs),
(75,145,o),
(73,140,o),
(73,131,cs),
(72,117,o),
(68,83,o),
(68,41,cs),
(68,18,o),
(69,15,o),
(81,9,cs),
(117,-8,o),
(168,-14,o),
(209,-14,cs)
);
}
);
width = 524;
}
);
note = s;
unicode = 115;
},
{
glyphname = t;
kernLeft = t;
kernRight = t;
layers = (
{
hints = (
{
horizontal = 1;
place = (-3, 13);
place = (-3, 13);
type = Stem;
},
{
horizontal = 1;
place = (600, 38);
place = (600, 38);
type = Stem;
},
{
place = (267, 80);
place = (267, 80);
type = Stem;
},
{
place = (563.5, 18.5);
place = (563.5, 18.5);
type = Stem;
},
{
horizontal = 1;
place = (646, -20);
target = down;
type = TopGhost;
},
{
horizontal = 1;
place = (652, -20);
target = down;
type = TopGhost;
}
);
layerId = m01;
shapes = (
{
closed = 1;
nodes = (
(347,601,l),
(457,599,ls),
(541,597,o),
(560,578,o),
(563,552,cs),
(564,543,ls),
(565,531,o),
(567,528,o),
(571,528,cs),
(575,528,o),
(579,532,o),
(579,539,cs),
(579,549,o),
(582,610,o),
(582,636,cs),
(582,641,o),
(582,646,o),
(578,646,cs),
(574,646,o),
(566,644,o),
(553,642,cs),
(539,640,o),
(519,638,o),
(490,638,cs),
(158,638,ls),
(148,638,o),
(114,639,o),
(89,642,cs),
(65,645,o),
(56,652,o),
(50,652,cs),
(47,652,o),
(43,641,o),
(41,636,c),
(40,629,o),
(22,553,o),
(22,544,cs),
(22,539,o),
(26,537,o),
(28,537,cs),
(32,537,o),
(35,538,o),
(37,545,cs),
(40,551,o),
(41,557,o),
(51,572,cs),
(64,592,o),
(85,598,o),
(140,599,cs),
(267,601,l),
(267,244,ls),
(267,162,o),
(267,95,o),
(263,60,cs),
(260,35,o),
(255,18,o),
(237,14,cs),
(229,12,o),
(219,10,o),
(211,10,cs),
(206,10,o),
(204,7,o),
(204,4,cs),
(204,-1,o),
(208,-3,o),
(218,-3,cs),
(244,-3,o),
(305,0,o),
(309,0,cs),
(314,0,o),
(370,-3,o),
(418,-3,cs),
(428,-3,o),
(432,0,o),
(432,4,cs),
(432,7,o),
(431,11,o),
(425,11,cs),
(417,11,o),
(397,13,o),
(385,15,cs),
(358,19,o),
(354,35,o),
(351,60,cs),
(347,95,o),
(347,162,o),
(347,244,cs)
);
}
);
width = 610;
}
);
note = t;
unicode = 116;
},
{
glyphname = u;
kernLeft = u;
kernRight = u;
layers = (
{
hints = (
{
horizontal = 1;
place = (-14, 35);
place = (-14, 35);
type = Stem;
},
{
horizontal = 1;
place = (626, 14);
place = (626, 14);
type = Stem;
},
{
place = (110, 82);
place = (110, 82);
type = Stem;
},
{
place = (574, 62);
place = (574, 62);
type = Stem;
}
);
layerId = m01;
shapes = (
{
closed = 1;
nodes = (
(110,269,ls),
(110,145,o),
(144,86,o),
(187,46,cs),
(249,-12,o),
(341,-14,o),
(370,-14,cs),
(422,-14,o),
(490,-7,o),
(554,48,cs),
(624,108,o),
(636,211,o),
(636,303,cs),
(636,394,ls),
(636,526,o),
(635,550,o),
(637,577,cs),
(639,605,o),
(644,619,o),
(668,624,cs),
(679,626,o),
(684,626,o),
(690,626,cs),
(694,626,o),
(697,630,o),
(697,633,cs),
(697,638,o),
(693,640,o),
(683,640,cs),
(657,640,o),
(615,638,o),
(609,638,cs),
(604,638,o),
(553,640,o),
(514,640,cs),
(504,640,o),
(500,638,o),
(500,633,cs),
(500,630,o),
(503,626,o),
(507,626,cs),
(515,626,o),
(530,625,o),
(537,624,cs),
(566,620,o),
(571,604,o),
(572,577,cs),
(573,550,o),
(574,526,o),
(574,394,cs),
(574,287,ls),
(574,200,o),
(565,130,o),
(524,81,cs),
(494,45,o),
(442,21,o),
(388,21,cs),
(338,21,o),
(300,28,o),
(257,67,cs),
(219,101,o),
(192,152,o),
(192,275,cs),
(192,394,ls),
(192,526,o),
(192,550,o),
(194,577,cs),
(196,605,o),
(201,620,o),
(224,624,cs),
(235,626,o),
(240,626,o),
(246,626,cs),
(250,626,o),
(254,630,o),
(254,633,cs),
(254,638,o),
(249,640,o),
(239,640,cs),
(213,640,o),
(158,638,o),
(150,638,cs),
(142,638,o),
(89,640,o),
(49,640,cs),
(39,640,o),
(35,638,o),
(35,633,cs),
(35,630,o),
(39,626,o),
(42,626,cs),
(50,626,o),
(65,625,o),
(72,624,cs),
(101,620,o),
(106,604,o),
(108,577,cs),
(110,550,o),
(110,526,o),
(110,394,cs)
);
}
);
width = 732;
}
);
note = u;
unicode = 117;
},
{
glyphname = v;
kernLeft = v;
kernRight = v;
layers = (
{
hints = (
{
horizontal = 1;
place = (-14, 21);
target = up;
type = BottomGhost;
},
{
horizontal = 1;
place = (626, 14);
place = (626, 14);
type = Stem;
},
{
place = (-23, 701);
place = (-23, 701);
type = Stem;
}
);
layerId = m01;
shapes = (
{
closed = 1;
nodes = (
(182,536,ls),
(169,570,o),
(158,596,o),
(158,607,cs),
(158,613,o),
(159,618,o),
(168,622,cs),
(176,625,o),
(190,626,o),
(200,626,cs),
(206,626,o),
(209,630,o),
(209,634,cs),
(209,638,o),
(201,640,o),
(185,640,cs),
(151,640,o),
(112,638,o),
(103,638,cs),
(92,638,o),
(42,640,o),
(0,640,cs),
(-14,640,o),
(-23,639,o),
(-23,634,cs),
(-23,631,o),
(-21,626,o),
(-16,626,cs),
(-11,626,o),
(4,626,o),
(18,623,cs),
(47,616,o),
(59,607,o),
(79,559,cs),
(295,38,ls),
(312,-3,o),
(318,-14,o),
(328,-14,cs),
(337,-14,o),
(342,-1,o),
(366,50,cs),
(386,92,o),
(425,184,o),
(479,308,cs),
(524,412,o),
(567,514,o),
(577,538,cs),
(600,596,o),
(614,608,o),
(626,616,cs),
(642,626,o),
(662,626,o),
(668,626,cs),
(675,626,o),
(678,630,o),
(678,634,cs),
(678,638,o),
(673,640,o),
(664,640,cs),
(638,640,o),
(600,638,o),
(595,638,cs),
(584,638,o),
(544,640,o),
(509,640,cs),
(495,640,o),
(489,638,o),
(489,633,cs),
(489,629,o),
(494,626,o),
(499,626,cs),
(509,626,o),
(519,626,o),
(529,623,cs),
(538,620,o),
(541,612,o),
(541,605,cs),
(541,598,o),
(537,586,o),
(533,573,cs),
(514,512,o),
(399,222,o),
(348,108,c)
);
}
);
width = 653;
}
);
note = v;
unicode = 118;
},
{
glyphname = w;
kernLeft = w;
kernRight = w;
layers = (
{
hints = (
{
horizontal = 1;
place = (-14, 21);
target = up;
type = BottomGhost;
},
{
horizontal = 1;
place = (626, 14);
place = (626, 14);
type = Stem;
},
{
place = (-10, 991);
place = (-10, 991);
type = Stem;
},
{
horizontal = 1;
place = (637, -20);
target = down;
type = TopGhost;
}
);
layerId = m01;
shapes = (
{
closed = 1;
nodes = (
(530,597,ls),
(519,626,o),
(512,637,o),
(506,637,cs),
(501,637,o),
(495,632,o),
(482,598,cs),
(298,123,l),
(296,123,l),
(285,158,o),
(195,470,o),
(181,524,cs),
(171,562,o),
(164,592,o),
(164,603,cs),
(164,614,o),
(170,619,o),
(176,621,cs),
(186,626,o),
(200,626,o),
(207,626,cs),
(211,626,o),
(216,629,o),
(216,634,cs),
(216,638,o),
(212,640,o),
(200,640,cs),
(156,640,o),
(116,638,o),
(108,638,cs),
(99,638,o),
(50,640,o),
(4,640,cs),
(-4,640,o),
(-10,638,o),
(-10,634,cs),
(-10,629,o),
(-6,626,o),
(-2,626,cs),
(4,626,o),
(26,625,o),
(38,621,cs),
(61,613,o),
(70,602,o),
(84,557,cs),
(240,53,ls),
(258,-5,o),
(265,-14,o),
(274,-14,cs),
(284,-14,o),
(290,-5,o),
(305,31,cs),
(337,110,o),
(456,421,o),
(486,495,c),
(658,30,ls),
(670,-3,o),
(678,-14,o),
(687,-14,cs),
(697,-14,o),
(702,-4,o),
(725,59,cs),
(760,154,o),
(847,424,o),
(886,532,cs),
(903,579,o),
(917,613,o),
(943,622,cs),
(953,625,o),
(970,626,o),
(973,626,cs),
(979,626,o),
(981,631,o),
(981,635,cs),
(981,638,o),
(977,640,o),
(969,640,cs),
(942,640,o),
(904,638,o),
(898,638,cs),
(890,638,o),
(853,640,o),
(808,640,cs),
(797,640,o),
(793,638,o),
(793,634,cs),
(793,631,o),
(796,626,o),
(801,626,cs),
(841,626,o),
(848,616,o),
(848,601,cs),
(848,590,o),
(847,580,o),
(838,548,cs),
(807,439,o),
(728,193,o),
(706,123,c),
(702,123,l)
);
}
);
width = 968;
}
);
note = w;
unicode = 119;
},
{
glyphname = x;
kernLeft = x;
kernRight = x;
layers = (
{
hints = (
{
horizontal = 1;
place = (-3, 14);
place = (-3, 14);
type = Stem;
},
{
horizontal = 1;
place = (626, 14);
place = (626, 14);
type = Stem;
},
{
place = (-4, 616);
place = (-4, 616);
type = Stem;
}
);
layerId = m01;
shapes = (
{
closed = 1;
nodes = (
(108,82,ls),
(80,39,o),
(62,23,o),
(36,16,cs),
(23,13,o),
(10,11,o),
(3,11,cs),
(-2,11,o),
(-4,7,o),
(-4,3,cs),
(-4,0,o),
(-3,-3,o),
(4,-3,cs),
(33,-3,o),
(77,0,o),
(84,0,cs),
(92,0,o),
(150,-3,o),
(171,-3,cs),
(177,-3,o),
(182,-1,o),
(182,3,cs),
(182,7,o),
(179,11,o),
(174,11,cs),
(170,11,o),
(163,12,o),
(158,13,cs),
(150,15,o),
(144,19,o),
(144,27,cs),
(144,36,o),
(147,51,o),
(155,65,cs),
(290,288,l),
(343,202,o),
(391,120,o),
(439,37,cs),
(447,23,o),
(439,14,o),
(434,13,cs),
(431,12,o),
(429,9,o),
(429,6,cs),
(429,2,o),
(433,0,o),
(456,-1,cs),
(504,-3,o),
(546,-3,o),
(600,-3,cs),
(608,-3,o),
(612,0,o),
(612,4,cs),
(612,8,o),
(610,11,o),
(605,11,cs),
(600,11,o),
(587,13,o),
(575,16,cs),
(549,23,o),
(539,35,o),
(525,53,cs),
(506,76,o),
(356,323,o),
(339,349,c),
(480,555,ls),
(505,592,o),
(521,614,o),
(546,622,cs),
(556,625,o),
(569,626,o),
(576,626,cs),
(582,626,o),
(585,631,o),
(585,634,cs),
(585,638,o),
(581,640,o),
(571,640,cs),
(541,640,o),
(505,638,o),
(497,638,cs),
(489,638,o),
(452,640,o),
(419,640,cs),
(408,640,o),
(404,638,o),
(404,634,cs),
(404,630,o),
(407,626,o),
(412,626,cs),
(417,626,o),
(427,626,o),
(436,624,cs),
(445,621,o),
(451,616,o),
(451,610,cs),
(451,600,o),
(449,592,o),
(442,580,cs),
(434,562,o),
(341,419,o),
(315,382,c),
(269,455,o),
(236,516,o),
(199,583,cs),
(194,592,o),
(190,603,o),
(190,611,cs),
(190,617,o),
(193,623,o),
(201,624,cs),
(208,626,o),
(219,626,o),
(225,626,cs),
(230,626,o),
(233,630,o),
(233,634,cs),
(233,638,o),
(230,640,o),
(218,640,cs),
(188,640,o),
(140,638,o),
(132,638,cs),
(125,638,o),
(54,640,o),
(29,640,cs),
(18,640,o),
(14,638,o),
(14,634,cs),
(14,631,o),
(17,626,o),
(22,626,cs),
(27,626,o),
(45,624,o),
(59,620,cs),
(89,611,o),
(106,587,o),
(126,554,cs),
(266,326,l)
);
}
);
width = 611;
}
);
note = x;
unicode = 120;
},
{
glyphname = y;
kernLeft = y;
kernRight = y;
layers = (
{
hints = (
{
horizontal = 1;
place = (-3, 14);
place = (-3, 14);
type = Stem;
},
{
horizontal = 1;
place = (626, 14);
place = (626, 14);
type = Stem;
},
{
place = (255, 80);
place = (255, 80);
type = Stem;
}
);
layerId = m01;
shapes = (
{
closed = 1;
nodes = (
(255,145,ls),
(255,131,o),
(255,95,o),
(253,60,cs),
(251,35,o),
(245,19,o),
(227,15,cs),
(219,13,o),
(209,11,o),
(201,11,cs),
(196,11,o),
(194,7,o),
(194,4,cs),
(194,-1,o),
(198,-3,o),
(208,-3,cs),
(234,-3,o),
(290,0,o),
(294,0,cs),
(299,0,o),
(356,-3,o),
(405,-3,cs),
(414,-3,o),
(419,0,o),
(419,4,cs),
(419,7,o),
(417,11,o),
(412,11,cs),
(404,11,o),
(384,13,o),
(372,15,cs),
(346,19,o),
(340,35,o),
(338,60,cs),
(335,95,o),
(335,131,o),
(335,145,cs),
(335,218,ls),
(335,246,o),
(331,273,o),
(346,303,cs),
(364,339,o),
(488,539,o),
(517,573,cs),
(536,596,o),
(544,605,o),
(561,615,cs),
(575,623,o),
(592,626,o),
(602,626,cs),
(609,626,o),
(613,631,o),
(613,635,cs),
(613,638,o),
(608,640,o),
(602,640,cs),
(585,640,o),
(522,638,o),
(516,638,cs),
(509,638,o),
(478,640,o),
(455,640,cs),
(446,640,o),
(441,638,o),
(441,635,cs),
(441,631,o),
(446,627,o),
(454,625,cs),
(464,622,o),
(468,615,o),
(468,603,cs),
(468,592,o),
(464,578,o),
(453,559,cs),
(437,531,o),
(327,349,o),
(309,313,c),
(149,578,ls),
(143,589,o),
(137,599,o),
(137,611,cs),
(137,618,o),
(141,622,o),
(148,625,cs),
(156,628,o),
(162,631,o),
(162,634,cs),
(162,638,o),
(160,640,o),
(150,640,cs),
(116,640,o),
(80,638,o),
(74,638,cs),
(70,638,o),
(4,640,o),
(-13,640,cs),
(-21,640,o),
(-24,638,o),
(-24,634,cs),
(-24,630,o),
(-20,626,o),
(-15,626,cs),
(-8,626,o),
(9,622,o),
(22,614,cs),
(38,603,o),
(59,584,o),
(80,552,cs),
(110,507,o),
(229,318,o),
(236,305,cs),
(249,281,o),
(255,264,o),
(255,218,cs)
);
}
);
width = 576;
}
);
note = y;
unicode = 121;
},
{
glyphname = z;
kernRight = z;
layers = (
{
hints = (
{
horizontal = 1;
place = (-4, 41);
place = (-4, 41);
type = Stem;
},
{
horizontal = 1;
place = (602, 36);
place = (602, 36);
type = Stem;
},
{
place = (68, 510);
place = (68, 510);
type = Stem;
},
{
horizontal = 1;
place = (646, -20);
target = down;
type = TopGhost;
},
{
horizontal = 1;
place = (0, 37);
place = (0, 37);
type = Stem;
}
);
layerId = m01;
shapes = (
{
closed = 1;
nodes = (
(172,37,l),
(305,230,o),
(433,420,o),
(561,616,cs),
(565,621,o),
(566,627,o),
(566,631,cs),
(566,636,o),
(561,638,o),
(548,638,cs),
(302,638,ls),
(274,638,o),
(232,637,o),
(148,640,cs),
(125,641,o),
(119,646,o),
(111,646,cs),
(106,646,o),
(104,642,o),
(103,630,c),
(98,604,o),
(85,527,o),
(85,517,cs),
(85,510,o),
(86,506,o),
(90,506,cs),
(95,506,o),
(100,508,o),
(102,521,cs),
(105,541,o),
(121,572,o),
(152,588,cs),
(180,603,o),
(232,602,o),
(277,602,cs),
(463,602,l),
(342,413,o),
(212,224,o),
(80,33,cs),
(69,17,o),
(68,11,o),
(68,7,cs),
(68,1,o),
(74,0,o),
(84,0,cs),
(238,0,o),
(387,-4,o),
(534,-4,cs),
(554,-4,o),
(555,-3,o),
(560,18,cs),
(566,39,o),
(578,89,o),
(578,116,cs),
(578,132,o),
(576,135,o),
(571,135,cs),
(566,135,o),
(563,130,o),
(561,122,cs),
(558,110,o),
(552,87,o),
(543,76,cs),
(523,52,o),
(499,37,o),
(406,37,cs)
);
}
);
width = 609;
}
);
note = z;
unicode = 122;
},
{
glyphname = braceleft;
kernRight = parenleft;
layers = (
{
hints = (
{
horizontal = 1;
place = (-124, 868);
place = (-124, 868);
type = Stem;
},
{
place = (127, 75);
place = (127, 75);
type = Stem;
}
);
layerId = m01;
shapes = (
{
closed = 1;
nodes = (
(155,357,o),
(185,390,o),
(194,425,cs),
(205,466,o),
(202,515,o),
(202,605,cs),
(202,690,o),
(258,723,o),
(282,730,cs),
(294,734,o),
(298,735,o),
(298,739,cs),
(298,742,o),
(294,744,o),
(285,744,cs),
(264,744,o),
(222,731,o),
(191,703,cs),
(153,668,o),
(127,628,o),
(127,527,cs),
(127,503,o),
(137,457,o),
(137,420,cs),
(137,359,o),
(120,355,o),
(68,352,cs),
(57,351,o),
(56,349,o),
(56,343,cs),
(56,338,o),
(57,337,o),
(68,335,cs),
(96,330,o),
(117,327,o),
(127,310,cs),
(132,302,o),
(134,291,o),
(134,278,cs),
(134,245,o),
(127,201,o),
(127,171,cs),
(127,29,o),
(152,-21,o),
(178,-57,cs),
(215,-108,o),
(262,-124,o),
(281,-124,cs),
(296,-124,o),
(299,-123,o),
(299,-119,cs),
(299,-115,o),
(296,-113,o),
(277,-106,cs),
(243,-92,o),
(202,-48,o),
(202,120,cs),
(202,201,o),
(202,233,o),
(192,270,cs),
(181,310,o),
(155,338,o),
(134,349,c)
);
}
);
width = 360;
}
);
note = braceleft;
unicode = 123;
},
{
glyphname = bar;
layers = (
{
hints = (
{
horizontal = 1;
place = (-250, 21);
target = up;
type = BottomGhost;
},
{
horizontal = 1;
place = (750, -20);
target = down;
type = TopGhost;
},
{
place = (228, 54);
place = (228, 54);
type = Stem;
}
);
layerId = m01;
shapes = (
{
closed = 1;
nodes = (
(282,-250,l),
(282,750,l),
(228,750,l),
(228,-250,l)
);
}
);
width = 510;
}
);
note = bar;
unicode = 124;
},
{
glyphname = braceright;
kernLeft = parenright;
layers = (
{
hints = (
{
horizontal = 1;
place = (-124, 868);
place = (-124, 868);
type = Stem;
},
{
place = (158, 75);
place = (158, 75);
type = Stem;
}
);
layerId = m01;
shapes = (
{
closed = 1;
nodes = (
(205,338,o),
(179,310,o),
(168,270,cs),
(156,227,o),
(158,193,o),
(158,120,cs),
(158,-48,o),
(117,-94,o),
(83,-106,cs),
(64,-113,o),
(61,-115,o),
(61,-120,cs),
(61,-123,o),
(64,-124,o),
(79,-124,cs),
(98,-124,o),
(145,-108,o),
(182,-57,cs),
(208,-21,o),
(233,29,o),
(233,171,cs),
(233,214,o),
(217,284,o),
(233,310,cs),
(243,327,o),
(264,330,o),
(292,335,cs),
(303,337,o),
(304,338,o),
(304,343,cs),
(304,349,o),
(303,351,o),
(292,352,cs),
(277,353,o),
(253,350,o),
(234,368,cs),
(210,391,o),
(233,488,o),
(233,527,cs),
(233,628,o),
(207,668,o),
(169,703,cs),
(138,731,o),
(96,744,o),
(75,744,cs),
(66,744,o),
(62,742,o),
(62,738,cs),
(62,734,o),
(66,734,o),
(78,730,cs),
(101,723,o),
(158,690,o),
(158,605,cs),
(158,515,o),
(155,466,o),
(166,425,cs),
(175,390,o),
(205,357,o),
(226,349,c)
);
}
);
width = 360;
}
);
note = braceright;
unicode = 125;
},
{
glyphname = asciitilde;
layers = (
{
hints = (
{
horizontal = 1;
place = (267, 52);
place = (267, 52);
type = Stem;
},
{
place = (61, 49);
place = (61, 49);
type = Stem;
},
{
place = (399, 49);
place = (399, 49);
type = Stem;
},
{
horizontal = 1;
place = (199, 53);
place = (199, 53);
type = Stem;
}
);
layerId = m01;
shapes = (
{
closed = 1;
nodes = (
(110,201,l),
(111,247,o),
(127,267,o),
(154,267,cs),
(181,267,o),
(210,251,o),
(246,233,cs),
(297,208,o),
(325,199,o),
(356,199,cs),
(407,199,o),
(452,228,o),
(448,318,c),
(399,318,l),
(398,275,o),
(385,251,o),
(358,252,cs),
(332,252,o),
(303,267,o),
(265,285,cs),
(214,309,o),
(189,319,o),
(156,319,cs),
(101,319,o),
(59,282,o),
(61,200,c)
);
}
);
width = 510;
}
);
note = asciitilde;
unicode = 126;
},
{
glyphname = exclamdown;
layers = (
{
hints = (
{
horizontal = 1;
place = (565, 102);
place = (565, 102);
type = Stem;
},
{
place = (110, 102);
place = (110, 102);
type = Stem;
}
);
layerId = m01;
shapes = (
{
closed = 1;
nodes = (
(131,667,o),
(110,643,o),
(110,613,cs),
(110,584,o),
(132,565,o),
(161,565,cs),
(197,565,o),
(212,595,o),
(212,616,cs),
(212,639,o),
(197,667,o),
(162,667,cs)
);
},
{
closed = 1;
nodes = (
(173,444,ls),
(171,483,o),
(168,496,o),
(158,496,cs),
(148,496,o),
(147,478,o),
(146,464,cs),
(144,440,o),
(124,43,o),
(123,25,cs),
(118,-49,o),
(108,-100,o),
(108,-107,cs),
(108,-115,o),
(110,-117,o),
(114,-117,cs),
(118,-117,o),
(121,-116,o),
(129,-112,cs),
(157,-98,o),
(189,-68,o),
(203,-44,cs),
(206,-39,o),
(208,-35,o),
(208,-30,cs),
(208,-25,o),
(206,-19,o),
(204,-11,cs),
(196,20,o),
(190,163,o),
(189,178,cs)
);
}
);
width = 320;
}
);
note = exclamdown;
unicode = 161;
},
{
glyphname = cent;
layers = (
{
hints = (
{
horizontal = 1;
place = (116, 45);
place = (116, 45);
type = Stem;
},
{
horizontal = 1;
place = (598, 36);
place = (598, 36);
type = Stem;
},
{
place = (61, 74);
place = (61, 74);
type = Stem;
},
{
place = (497, 19);
place = (497, 19);
type = Stem;
}
);
layerId = m01;
shapes = (
{
closed = 1;
nodes = (
(364,597,l),
(424,594,o),
(464,573,o),
(477,558,cs),
(492,539,o),
(495,519,o),
(497,502,cs),
(497,494,o),
(498,490,o),
(502,490,cs),
(506,490,o),
(509,493,o),
(510,502,cs),
(512,516,o),
(516,571,o),
(516,594,cs),
(516,602,o),
(516,604,o),
(509,608,c),
(461,626,o),
(404,633,o),
(371,633,c),
(384,741,ls),
(385,746,o),
(381,748,o),
(374,747,cs),
(354,743,ls),
(346,741,o),
(345,739,o),
(344,734,cs),
(333,634,l),
(244,630,o),
(192,612,o),
(139,567,cs),
(110,542,o),
(61,477,o),
(61,381,cs),
(61,236,o),
(155,146,o),
(274,124,c),
(256,-28,ls),
(255,-34,o),
(258,-36,o),
(265,-34,cs),
(288,-29,ls),
(293,-28,o),
(296,-25,o),
(297,-18,cs),
(311,117,l),
(326,116,o),
(338,116,o),
(354,116,cs),
(391,116,o),
(442,120,o),
(487,132,cs),
(495,134,o),
(497,138,o),
(500,149,cs),
(504,168,o),
(513,234,o),
(513,241,cs),
(513,248,o),
(511,253,o),
(507,253,cs),
(503,253,o),
(500,248,o),
(498,238,cs),
(484,174,o),
(438,161,o),
(368,161,cs),
(351,161,o),
(336,162,o),
(319,163,c)
);
},
{
closed = 1;
nodes = (
(281,174,l),
(212,199,o),
(135,267,o),
(135,408,cs),
(135,515,o),
(207,598,o),
(326,598,c)
);
}
);
width = 571;
}
);
note = cent;
unicode = 162;
},
{
glyphname = sterling;
layers = (
{
hints = (
{
horizontal = 1;
place = (0, 57.5);
place = (0, 57.5);
type = Stem;
},
{
horizontal = 1;
place = (357, 36);
place = (357, 36);
type = Stem;
},
{
horizontal = 1;
place = (732, 35);
place = (732, 35);
type = Stem;
},
{
place = (528, 21);
place = (528, 21);
type = Stem;
},
{
horizontal = 1;
place = (-5, 62.5);
place = (-5, 62.5);
type = Stem;
},
{
horizontal = 1;
place = (750, -20);
target = down;
type = TopGhost;
}
);
layerId = m01;
shapes = (
{
closed = 1;
nodes = (
(251,0,ls),
(293,0,o),
(327,-1,o),
(360,-2,cs),
(393,-4,o),
(424,-5,o),
(461,-5,cs),
(518,-5,o),
(518,-2,o),
(522,15,cs),
(529,50,o),
(539,125,o),
(539,136,cs),
(539,148,o),
(536,151,o),
(532,151,cs),
(528,151,o),
(525,148,o),
(524,141,cs),
(514,81,o),
(486,60,o),
(431,59,cs),
(119,56,l),
(117,58,l),
(199,129,o),
(221,259,o),
(228,314,cs),
(233,356,l),
(373,356,ls),
(381,356,o),
(386,358,o),
(389,364,cs),
(400,388,ls),
(403,395,o),
(400,398,o),
(395,398,cs),
(390,398,o),
(376,393,o),
(348,393,cs),
(239,393,l),
(257,544,ls),
(271,665,o),
(327,732,o),
(405,732,cs),
(454,732,o),
(486,718,o),
(504,694,cs),
(520,673,o),
(528,641,o),
(528,627,cs),
(528,616,o),
(531,612,o),
(536,612,cs),
(541,612,o),
(543,617,o),
(544,624,cs),
(546,636,o),
(549,689,o),
(549,738,cs),
(549,744,o),
(547,749,o),
(542,750,cs),
(533,751,o),
(525,753,o),
(515,755,c),
(494,762,o),
(460,767,o),
(428,767,cs),
(390,767,o),
(332,759,o),
(277,711,cs),
(209,652,o),
(185,549,o),
(173,463,cs),
(163,393,l),
(84,393,ls),
(77,393,o),
(73,392,o),
(70,385,cs),
(58,364,l),
(56,359,o),
(57,355,o),
(61,355,cs),
(65,355,o),
(70,357,o),
(82,357,cs),
(157,357,l),
(144,252,ls),
(130,140,o),
(109,48,o),
(9,27,cs),
(-2,25,o),
(-11,20,o),
(-11,10,cs),
(-11,1,o),
(3,0,o),
(18,0,cs)
);
}
);
width = 571;
}
);
note = sterling;
unicode = 163;
},
{
glyphname = fraction;
layers = (
{
hints = (
{
horizontal = 1;
place = (-16, 744);
place = (-16, 744);
type = Stem;
},
{
place = (-250, 579);
place = (-250, 579);
type = Stem;
}
);
layerId = m01;
shapes = (
{
closed = 1;
nodes = (
(-227,-14,ls),
(-223,-17,o),
(-219,-17,o),
(-215,-11,cs),
(328,702,ls),
(330,705,o),
(330,709,o),
(326,712,cs),
(307,726,ls),
(301,730,o),
(300,728,o),
(296,723,cs),
(-246,16,ls),
(-251,10,o),
(-251,5,o),
(-247,3,c)
);
}
);
width = 80;
}
);
note = fraction;
unicode = 8260;
},
{
glyphname = yen;
layers = (
{
hints = (
{
horizontal = 1;
place = (-3, 15);
place = (-3, 15);
type = Stem;
},
{
horizontal = 1;
place = (306, 38);
place = (306, 38);
type = Stem;
},
{
horizontal = 1;
place = (738, 15);
place = (738, 15);
type = Stem;
},
{
place = (251, 72);
place = (251, 72);
type = Stem;
}
);
layerId = m01;
shapes = (
{
closed = 1;
nodes = (
(323,306,l),
(475,306,ls),
(482,306,o),
(487,307,o),
(489,312,cs),
(495,335,ls),
(497,340,o),
(494,344,o),
(486,344,cs),
(324,344,l),
(360,404,o),
(484,634,o),
(516,675,cs),
(536,702,o),
(546,715,o),
(568,726,cs),
(581,733,o),
(600,738,o),
(611,738,cs),
(618,738,o),
(623,741,o),
(623,746,cs),
(623,751,o),
(616,753,o),
(610,753,cs),
(592,753,o),
(523,750,o),
(517,750,cs),
(510,750,o),
(480,753,o),
(455,753,cs),
(446,753,o),
(439,751,o),
(439,746,cs),
(439,740,o),
(447,738,o),
(455,735,cs),
(467,730,o),
(471,723,o),
(471,712,cs),
(471,697,o),
(465,681,o),
(452,659,cs),
(432,625,o),
(322,418,o),
(301,383,c),
(279,415,o),
(147,652,o),
(131,680,cs),
(123,695,o),
(118,708,o),
(118,718,cs),
(118,726,o),
(124,734,o),
(132,736,cs),
(139,738,o),
(146,741,o),
(146,745,cs),
(146,751,o),
(139,753,o),
(133,753,cs),
(95,753,o),
(59,750,o),
(53,750,cs),
(48,750,o),
(-24,753,o),
(-42,753,cs),
(-48,753,o),
(-52,750,o),
(-52,745,cs),
(-52,740,o),
(-46,738,o),
(-41,738,cs),
(-35,738,o),
(-14,736,o),
(3,725,cs),
(19,714,o),
(44,687,o),
(65,651,cs),
(96,597,o),
(224,381,o),
(249,344,c),
(100,344,ls),
(94,344,o),
(91,343,o),
(89,338,cs),
(82,317,ls),
(80,310,o),
(80,306,o),
(89,306,cs),
(251,306,l),
(251,165,ls),
(251,129,o),
(251,89,o),
(250,67,cs),
(249,36,o),
(238,20,o),
(203,15,cs),
(190,13,o),
(167,12,o),
(157,12,cs),
(152,12,o),
(150,8,o),
(150,4,cs),
(150,-1,o),
(154,-3,o),
(167,-3,cs),
(220,-3,o),
(282,0,o),
(287,0,cs),
(290,0,o),
(354,-3,o),
(407,-3,cs),
(418,-3,o),
(423,-1,o),
(423,4,cs),
(423,8,o),
(418,12,o),
(414,12,cs),
(405,12,o),
(383,13,o),
(369,15,cs),
(335,20,o),
(324,36,o),
(323,67,cs),
(322,89,o),
(323,129,o),
(323,165,cs)
);
}
);
width = 571;
}
);
note = yen;
unicode = 165;
},
{
glyphname = florin;
layers = (
{
hints = (
{
horizontal = 1;
place = (-232, 19);
place = (-232, 19);
type = Stem;
},
{
horizontal = 1;
place = (341, 36);
place = (341, 36);
type = Stem;
},
{
horizontal = 1;
place = (733, 34);
place = (733, 34);
type = Stem;
},
{
place = (206, 75);
place = (206, 75);
type = Stem;
},
{
place = (552, 27);
place = (552, 27);
type = Stem;
}
);
layerId = m01;
shapes = (
{
closed = 1;
nodes = (
(200,342,l),
(168,61,ls),
(154,-62,o),
(140,-121,o),
(117,-159,cs),
(88,-207,o),
(50,-213,o),
(0,-213,cs),
(-4,-213,o),
(-7,-217,o),
(-7,-223,cs),
(-7,-229,o),
(4,-232,o),
(30,-232,cs),
(53,-232,o),
(82,-227,o),
(102,-217,cs),
(169,-185,o),
(207,-117,o),
(231,1,cs),
(248,85,o),
(266,258,o),
(278,341,c),
(348,341,ls),
(386,341,o),
(434,337,o),
(441,337,cs),
(449,337,o),
(457,340,o),
(461,347,cs),
(472,366,ls),
(477,375,o),
(474,381,o),
(467,381,cs),
(460,381,o),
(442,377,o),
(397,377,cs),
(281,377,l),
(292,476,o),
(307,594,o),
(331,650,cs),
(356,708,o),
(399,733,o),
(454,733,cs),
(497,733,o),
(525,713,o),
(536,692,cs),
(546,672,o),
(552,652,o),
(552,626,cs),
(552,612,o),
(553,607,o),
(559,607,cs),
(563,607,o),
(566,612,o),
(568,626,cs),
(576,684,o),
(579,720,o),
(579,734,cs),
(579,739,o),
(578,744,o),
(567,749,cs),
(539,761,o),
(508,767,o),
(467,767,cs),
(382,767,o),
(339,731,o),
(303,688,cs),
(247,620,o),
(219,520,o),
(206,377,c),
(145,377,ls),
(121,377,o),
(104,380,o),
(99,380,cs),
(93,380,o),
(88,374,o),
(85,368,cs),
(75,348,ls),
(72,342,o),
(77,338,o),
(84,339,cs),
(95,341,o),
(115,342,o),
(159,342,cs)
);
}
);
width = 571;
}
);
note = florin;
unicode = 402;
},
{
glyphname = section;
layers = (
{
hints = (
{
horizontal = 1;
place = (-214, 34);
place = (-214, 34);
type = Stem;
},
{
horizontal = 1;
place = (732, 34);
place = (732, 34);
type = Stem;
},
{
place = (87, 20);
place = (87, 20);
type = Stem;
},
{
place = (452, 58);
place = (452, 58);
type = Stem;
},
{
place = (391, 69);
place = (391, 69);
type = Stem;
},
{
place = (132, 63);
place = (132, 63);
type = Stem;
},
{
horizontal = 1;
place = (732, 20);
place = (732, 20);
type = Stem;
},
{
place = (85, 56);
place = (85, 56);
type = Stem;
}
);
layerId = m01;
shapes = (
{
closed = 1;
nodes = (
(466,126,o),
(510,179,o),
(510,260,cs),
(510,335,o),
(460,384,o),
(360,453,cs),
(334,471,ls),
(250,529,o),
(195,564,o),
(195,627,cs),
(195,700,o),
(256,732,o),
(319,732,cs),
(411,732,o),
(432,700,o),
(438,690,cs),
(443,681,o),
(450,658,o),
(451,648,cs),
(452,641,o),
(453,637,o),
(459,637,cs),
(465,637,o),
(466,643,o),
(466,656,cs),
(466,714,o),
(470,742,o),
(470,746,cs),
(470,751,o),
(468,752,o),
(461,752,cs),
(454,752,o),
(447,752,o),
(430,756,cs),
(409,761,o),
(388,766,o),
(335,766,cs),
(233,766,o),
(132,715,o),
(132,604,cs),
(132,558,o),
(157,518,o),
(200,476,c),
(146,454,o),
(85,401,o),
(85,324,cs),
(85,243,o),
(131,202,o),
(228,132,cs),
(260,109,ls),
(340,51,o),
(391,13,o),
(391,-59,cs),
(391,-133,o),
(335,-180,o),
(254,-180,cs),
(185,-180,o),
(124,-158,o),
(110,-96,cs),
(107,-84,o),
(107,-72,o),
(107,-65,cs),
(107,-58,o),
(104,-55,o),
(99,-55,cs),
(94,-55,o),
(92,-60,o),
(92,-69,cs),
(91,-83,o),
(87,-117,o),
(87,-159,cs),
(87,-182,o),
(88,-185,o),
(100,-191,cs),
(136,-208,o),
(175,-214,o),
(244,-214,cs),
(281,-214,o),
(339,-204,o),
(377,-179,cs),
(439,-138,o),
(460,-79,o),
(460,-31,cs),
(460,13,o),
(448,52,o),
(408,93,c)
);
},
{
closed = 1;
nodes = (
(361,137,o),
(328,159,o),
(298,179,cs),
(270,198,ls),
(184,256,o),
(141,286,o),
(141,346,cs),
(141,392,o),
(181,438,o),
(227,452,c),
(244,438,o),
(260,425,o),
(280,411,cs),
(322,381,ls),
(401,325,o),
(452,295,o),
(452,229,cs),
(452,191,o),
(426,140,o),
(383,116,c)
);
}
);
width = 596;
}
);
note = section;
unicode = 167;
},
{
glyphname = currency;
layers = (
{
hints = (
{
horizontal = 1;
place = (107, 61);
place = (107, 61);
type = Stem;
},
{
horizontal = 1;
place = (400, 61);
place = (400, 61);
type = Stem;
},
{
place = (117, 68);
place = (117, 68);
type = Stem;
},
{
place = (380, 67);
place = (380, 67);
type = Stem;
}
);
layerId = m01;
shapes = (
{
closed = 1;
nodes = (
(487,449,l),
(445,492,l),
(383,427,l),
(359,448,o),
(325,461,o),
(285,461,cs),
(284,461,ls),
(246,461,o),
(210,448,o),
(185,426,c),
(125,492,l),
(84,449,l),
(150,388,l),
(133,364,o),
(117,329,o),
(117,282,cs),
(117,239,o),
(132,203,o),
(149,180,c),
(86,119,l),
(126,76,l),
(185,142,l),
(208,120,o),
(248,106,o),
(283,107,cs),
(316,107,o),
(355,120,o),
(381,144,c),
(441,76,l),
(483,119,l),
(418,181,l),
(434,204,o),
(446,241,o),
(447,288,cs),
(447,330,o),
(434,365,o),
(419,388,c)
);
},
{
closed = 1;
nodes = (
(380,201,o),
(329,168,o),
(282,168,cs),
(239,168,o),
(185,203,o),
(185,284,cs),
(185,349,o),
(223,400,o),
(282,400,cs),
(283,400,ls),
(345,400,o),
(380,345,o),
(380,286,cs)
);
}
);
width = 571;
}
);
note = currency;
unicode = 164;
},
{
glyphname = quotesingle;
layers = (
{
hints = (
{
horizontal = 1;
place = (755, -20);
target = down;
type = TopGhost;
},
{
place = (58, 84);
place = (58, 84);
type = Stem;
}
);
layerId = m01;
shapes = (
{
closed = 1;
nodes = (
(75,755,o),
(58,755,o),
(58,741,cs),
(58,725,o),
(80,675,o),
(89,565,cs),
(92,525,o),
(95,520,o),
(100,520,cs),
(105,520,o),
(108,525,o),
(111,565,cs),
(120,675,o),
(142,725,o),
(142,741,cs),
(142,755,o),
(125,755,o),
(100,755,cs)
);
}
);
width = 200;
}
);
note = quotesingle;
unicode = 39;
},
{
glyphname = quotedblleft;
kernLeft = quoteleft;
kernRight = quoteleft;
layers = (
{
hints = (
{
horizontal = 1;
place = (571, 249);
place = (571, 249);
type = Stem;
},
{
place = (46, 67);
place = (46, 67);
type = Stem;
},
{
place = (176, 67);
place = (176, 67);
type = Stem;
}
);
layerId = m01;
shapes = (
{
closed = 1;
nodes = (
(243,716,o),
(261,770,o),
(276,802,cs),
(279,809,o),
(280,812,o),
(280,815,cs),
(280,818,o),
(277,820,o),
(275,820,cs),
(270,820,o),
(266,818,o),
(262,812,c),
(227,770,o),
(176,686,o),
(176,615,cs),
(176,600,o),
(181,595,o),
(193,589,cs),
(209,583,o),
(247,571,o),
(263,571,cs),
(267,571,o),
(272,574,o),
(272,577,cs),
(272,582,o),
(271,585,o),
(263,594,cs),
(256,602,o),
(243,628,o),
(243,659,cs)
);
},
{
closed = 1;
nodes = (
(113,716,o),
(131,770,o),
(146,802,cs),
(149,809,o),
(150,812,o),
(150,815,cs),
(150,818,o),
(147,820,o),
(145,820,cs),
(140,820,o),
(136,818,o),
(132,812,c),
(97,770,o),
(46,686,o),
(46,615,cs),
(46,600,o),
(51,595,o),
(63,589,cs),
(79,583,o),
(117,571,o),
(133,571,cs),
(137,571,o),
(142,574,o),
(142,577,cs),
(142,582,o),
(141,585,o),
(133,594,cs),
(126,602,o),
(113,628,o),
(113,659,cs)
);
}
);
width = 325;
}
);
note = quotedblleft;
unicode = 8220;
},
{
glyphname = guillemotleft;
layers = (
{
hints = (
{
horizontal = 1;
place = (305, 21);
target = up;
type = BottomGhost;
},
{
place = (75, 411);
place = (75, 411);
type = Stem;
}
);
layerId = m01;
shapes = (
{
closed = 1;
nodes = (
(481,140,ls),
(483,142,o),
(485,145,o),
(485,147,cs),
(485,149,o),
(482,152,o),
(471,162,cs),
(422,205,o),
(344,287,o),
(329,305,c),
(359,346,o),
(475,480,o),
(480,486,cs),
(483,489,o),
(486,494,o),
(486,499,cs),
(486,503,o),
(481,507,o),
(477,507,cs),
(472,507,o),
(467,503,o),
(459,496,cs),
(450,487,o),
(302,340,o),
(281,322,cs),
(267,310,o),
(262,303,o),
(262,300,cs),
(262,294,o),
(267,289,o),
(280,276,cs),
(300,256,o),
(397,150,o),
(420,124,cs),
(435,107,o),
(441,102,o),
(443,102,cs),
(445,102,o),
(449,104,o),
(451,107,c)
);
},
{
closed = 1;
nodes = (
(294,140,ls),
(296,142,o),
(298,145,o),
(298,147,cs),
(298,149,o),
(295,152,o),
(284,162,cs),
(235,205,o),
(157,287,o),
(142,305,c),
(172,346,o),
(288,480,o),
(293,486,cs),
(296,489,o),
(299,494,o),
(299,499,cs),
(299,503,o),
(294,507,o),
(290,507,cs),
(285,507,o),
(280,503,o),
(272,496,cs),
(263,487,o),
(115,340,o),
(94,322,cs),
(80,310,o),
(75,303,o),
(75,300,cs),
(75,294,o),
(80,289,o),
(93,276,cs),
(113,256,o),
(210,150,o),
(233,124,cs),
(248,107,o),
(254,102,o),
(256,102,cs),
(258,102,o),
(262,104,o),
(264,107,c)
);
}
);
width = 560;
}
);
note = guillemotleft;
unicode = 171;
},
{
glyphname = guilsinglleft;
layers = (
{
hints = (
{
horizontal = 1;
place = (305, 21);
target = up;
type = BottomGhost;
},
{
place = (75, 224);
place = (75, 224);
type = Stem;
}
);
layerId = m01;
shapes = (
{
closed = 1;
nodes = (
(294,140,ls),
(296,142,o),
(298,145,o),
(298,147,cs),
(298,149,o),
(295,152,o),
(284,162,cs),
(235,205,o),
(157,287,o),
(142,305,c),
(172,346,o),
(288,480,o),
(293,486,cs),
(296,489,o),
(299,494,o),
(299,499,cs),
(299,503,o),
(294,507,o),
(290,507,cs),
(285,507,o),
(280,503,o),
(272,496,cs),
(263,487,o),
(115,340,o),
(94,322,cs),
(80,310,o),
(75,303,o),
(75,300,cs),
(75,294,o),
(80,289,o),
(93,276,cs),
(113,256,o),
(210,150,o),
(233,124,cs),
(248,107,o),
(254,102,o),
(256,102,cs),
(258,102,o),
(262,104,o),
(264,107,c)
);
}
);
width = 375;
}
);
note = guilsinglleft;
unicode = 8249;
},
{
glyphname = guilsinglright;
layers = (
{
hints = (
{
horizontal = 1;
place = (304, 21);
target = up;
type = BottomGhost;
},
{
place = (76, 224);
place = (76, 224);
type = Stem;
}
);
layerId = m01;
shapes = (
{
closed = 1;
nodes = (
(81,469,ls),
(79,467,o),
(77,464,o),
(77,462,cs),
(77,460,o),
(80,457,o),
(91,447,cs),
(140,404,o),
(218,322,o),
(233,304,c),
(203,263,o),
(87,129,o),
(82,123,cs),
(79,120,o),
(76,115,o),
(76,110,cs),
(76,106,o),
(81,102,o),
(85,102,cs),
(90,102,o),
(95,106,o),
(103,113,cs),
(112,122,o),
(260,269,o),
(281,287,cs),
(295,299,o),
(300,306,o),
(300,309,cs),
(300,315,o),
(295,320,o),
(282,333,cs),
(262,353,o),
(165,459,o),
(142,485,cs),
(127,502,o),
(121,507,o),
(119,507,cs),
(117,507,o),
(113,505,o),
(111,502,c)
);
}
);
width = 375;
}
);
note = guilsinglright;
unicode = 8250;
},
{
glyphname = fi;
kernLeft = b;
kernRight = h;
layers = (
{
hints = (
{
horizontal = 1;
place = (-3, 14);
place = (-3, 14);
type = Stem;
},
{
horizontal = 1;
place = (320, 35);
place = (320, 35);
type = Stem;
},
{
horizontal = 1;
place = (626, 14);
place = (626, 14);
type = Stem;
},
{
place = (155, 80);
place = (155, 80);
type = Stem;
},
{
place = (433, 14);
place = (433, 14);
type = Stem;
},
{
place = (690, 80);
place = (690, 80);
type = Stem;
},
{
horizontal = 1;
place = (601, 37);
place = (601, 37);
type = Stem;
},
{
horizontal = 1;
place = (647, -20);
target = down;
type = TopGhost;
}
);
layerId = m01;
shapes = (
{
closed = 1;
nodes = (
(155,244,ls),
(155,162,o),
(155,95,o),
(150,60,cs),
(146,35,o),
(144,18,o),
(127,15,cs),
(119,14,o),
(108,11,o),
(100,11,cs),
(95,11,o),
(93,7,o),
(93,4,cs),
(93,-1,o),
(98,-3,o),
(107,-3,cs),
(134,-3,o),
(189,0,o),
(194,0,cs),
(198,0,o),
(255,-3,o),
(304,-3,cs),
(314,-3,o),
(318,0,o),
(318,4,cs),
(318,7,o),
(316,11,o),
(311,11,cs),
(303,11,o),
(284,13,o),
(271,15,cs),
(247,19,o),
(242,35,o),
(239,60,cs),
(235,93,o),
(235,160,o),
(235,244,cs),
(235,312,ls),
(235,318,o),
(236,320,o),
(241,320,cs),
(256,320,o),
(360,321,o),
(382,318,cs),
(409,314,o),
(423,303,o),
(427,291,cs),
(431,281,o),
(432,269,o),
(433,260,cs),
(433,256,o),
(434,252,o),
(439,252,cs),
(445,252,o),
(447,261,o),
(447,269,cs),
(447,275,o),
(448,309,o),
(450,326,cs),
(452,354,o),
(458,368,o),
(458,373,cs),
(458,377,o),
(457,380,o),
(453,380,cs),
(450,380,o),
(446,376,o),
(442,371,cs),
(434,361,o),
(422,358,o),
(401,356,cs),
(389,355,o),
(376,355,o),
(361,355,cs),
(241,354,ls),
(235,354,o),
(235,357,o),
(235,362,cs),
(235,594,ls),
(235,601,o),
(237,603,o),
(242,603,cs),
(386,601,ls),
(420,601,o),
(441,587,o),
(446,576,cs),
(451,565,o),
(454,551,o),
(454,544,cs),
(454,538,o),
(457,534,o),
(461,534,cs),
(465,534,o),
(468,539,o),
(469,543,cs),
(471,553,o),
(472,591,o),
(473,599,cs),
(476,623,o),
(480,633,o),
(480,639,cs),
(480,643,o),
(478,647,o),
(474,647,cs),
(471,647,o),
(467,643,o),
(462,642,cs),
(454,639,o),
(439,639,o),
(422,638,cs),
(402,637,o),
(211,638,o),
(194,638,cs),
(189,638,o),
(134,640,o),
(94,640,cs),
(84,640,o),
(80,638,o),
(80,633,cs),
(80,630,o),
(84,626,o),
(87,626,cs),
(95,626,o),
(110,625,o),
(117,624,cs),
(146,620,o),
(151,606,o),
(153,577,cs),
(155,550,o),
(155,526,o),
(155,394,cs)
);
},
{
closed = 1;
nodes = (
(770,394,ls),
(770,526,o),
(770,550,o),
(771,577,cs),
(773,607,o),
(778,619,o),
(802,624,cs),
(812,626,o),
(818,626,o),
(824,626,cs),
(827,626,o),
(831,630,o),
(831,633,cs),
(831,638,o),
(827,640,o),
(817,640,cs),
(790,640,o),
(733,638,o),
(729,638,cs),
(724,638,o),
(669,640,o),
(640,640,cs),
(630,640,o),
(626,638,o),
(626,633,cs),
(626,630,o),
(629,626,o),
(633,626,cs),
(639,626,o),
(650,625,o),
(660,623,cs),
(679,619,o),
(686,606,o),
(688,577,cs),
(690,550,o),
(690,526,o),
(690,394,cs),
(690,244,ls),
(690,162,o),
(689,95,o),
(685,60,cs),
(682,35,o),
(679,19,o),
(662,15,cs),
(654,13,o),
(643,11,o),
(635,11,cs),
(630,11,o),
(628,7,o),
(628,4,cs),
(628,-1,o),
(633,-3,o),
(642,-3,cs),
(669,-3,o),
(724,0,o),
(729,0,cs),
(733,0,o),
(790,-3,o),
(839,-3,cs),
(849,-3,o),
(853,0,o),
(853,4,cs),
(853,7,o),
(851,11,o),
(846,11,cs),
(838,11,o),
(819,13,o),
(806,15,cs),
(780,19,o),
(777,35,o),
(774,60,cs),
(770,95,o),
(770,162,o),
(770,244,cs)
);
}
);
width = 924;
}
);
note = fi;
unicode = 64257;
},
{
glyphname = fl;
kernLeft = b;
layers = (
{
hints = (
{
horizontal = 1;
place = (-3, 14);
place = (-3, 14);
type = Stem;
},
{
horizontal = 1;
place = (320, 35);
place = (320, 35);
type = Stem;
},
{
horizontal = 1;
place = (601, 37);
place = (601, 37);
type = Stem;
},
{
place = (155, 80);
place = (155, 80);
type = Stem;
},
{
place = (433, 14);
place = (433, 14);
type = Stem;
},
{
place = (690, 80);
place = (690, 80);
type = Stem;
},
{
horizontal = 1;
place = (-5, 20);
place = (-5, 20);
type = Stem;
},
{
horizontal = 1;
place = (627, 20);
place = (627, 20);
type = Stem;
},
{
horizontal = 1;
place = (627, 13);
place = (627, 13);
type = Stem;
},
{
horizontal = 1;
place = (0, 21);
target = up;
type = BottomGhost;
},
{
horizontal = 1;
place = (-5, 36);
place = (-5, 36);
type = Stem;
}
);
layerId = m01;
shapes = (
{
closed = 1;
nodes = (
(155,244,ls),
(155,162,o),
(155,95,o),
(150,60,cs),
(146,35,o),
(144,18,o),
(127,15,cs),
(119,14,o),
(108,11,o),
(100,11,cs),
(95,11,o),
(93,7,o),
(93,4,cs),
(93,-1,o),
(98,-3,o),
(107,-3,cs),
(134,-3,o),
(189,0,o),
(194,0,cs),
(198,0,o),
(255,-3,o),
(304,-3,cs),
(314,-3,o),
(318,0,o),
(318,4,cs),
(318,7,o),
(316,11,o),
(311,11,cs),
(303,11,o),
(284,13,o),
(271,15,cs),
(247,19,o),
(242,35,o),
(239,60,cs),
(235,93,o),
(235,160,o),
(235,244,cs),
(235,312,ls),
(235,318,o),
(236,320,o),
(241,320,cs),
(256,320,o),
(360,321,o),
(382,318,cs),
(409,314,o),
(423,303,o),
(427,291,cs),
(431,281,o),
(432,269,o),
(433,260,cs),
(433,256,o),
(434,252,o),
(439,252,cs),
(445,252,o),
(447,261,o),
(447,269,cs),
(447,275,o),
(448,309,o),
(450,326,cs),
(452,354,o),
(458,368,o),
(458,373,cs),
(458,377,o),
(457,380,o),
(453,380,cs),
(450,380,o),
(446,376,o),
(442,371,cs),
(434,361,o),
(422,358,o),
(401,356,cs),
(389,355,o),
(376,355,o),
(361,355,cs),
(241,354,ls),
(235,354,o),
(235,357,o),
(235,362,cs),
(235,594,ls),
(235,601,o),
(237,603,o),
(242,603,cs),
(386,601,ls),
(420,601,o),
(441,587,o),
(446,576,cs),
(451,565,o),
(454,551,o),
(454,544,cs),
(454,538,o),
(457,534,o),
(461,534,cs),
(465,534,o),
(468,539,o),
(469,543,cs),
(471,553,o),
(472,591,o),
(473,599,cs),
(476,623,o),
(480,633,o),
(480,639,cs),
(480,643,o),
(478,647,o),
(474,647,cs),
(471,647,o),
(467,643,o),
(462,642,cs),
(454,639,o),
(439,639,o),
(422,638,cs),
(402,637,o),
(211,638,o),
(194,638,cs),
(189,638,o),
(134,640,o),
(94,640,cs),
(84,640,o),
(80,638,o),
(80,633,cs),
(80,630,o),
(84,626,o),
(87,626,cs),
(95,626,o),
(110,625,o),
(117,624,cs),
(146,620,o),
(151,606,o),
(153,577,cs),
(155,550,o),
(155,526,o),
(155,394,cs)
);
},
{
closed = 1;
nodes = (
(770,394,ls),
(770,526,o),
(770,550,o),
(771,577,cs),
(773,607,o),
(778,620,o),
(804,625,cs),
(814,626,o),
(827,627,o),
(833,627,cs),
(836,627,o),
(840,630,o),
(840,633,cs),
(840,638,o),
(835,640,o),
(826,640,cs),
(799,640,o),
(733,638,o),
(729,638,cs),
(724,638,o),
(669,640,o),
(629,640,cs),
(619,640,o),
(615,638,o),
(615,633,cs),
(615,630,o),
(619,626,o),
(622,626,cs),
(630,626,o),
(645,625,o),
(652,624,cs),
(681,620,o),
(686,606,o),
(688,577,cs),
(690,550,o),
(690,526,o),
(690,394,cs),
(690,244,ls),
(690,162,o),
(690,95,o),
(685,60,cs),
(681,35,o),
(679,19,o),
(662,15,cs),
(654,13,o),
(643,11,o),
(635,11,cs),
(630,11,o),
(628,7,o),
(628,4,cs),
(628,-1,o),
(633,-3,o),
(642,-3,cs),
(656,-3,o),
(675,-2,o),
(693,-1,cs),
(710,0,o),
(725,0,o),
(729,0,cs),
(755,0,o),
(785,-1,o),
(825,-2,cs),
(866,-4,o),
(915,-5,o),
(978,-5,cs),
(1025,-5,o),
(1028,-2,o),
(1034,18,cs),
(1041,43,o),
(1047,94,o),
(1047,103,cs),
(1047,112,o),
(1045,116,o),
(1041,116,cs),
(1036,116,o),
(1033,111,o),
(1032,105,cs),
(1029,88,o),
(1022,70,o),
(1011,57,cs),
(990,32,o),
(951,31,o),
(905,31,cs),
(836,31,o),
(802,37,o),
(788,51,cs),
(772,66,o),
(770,117,o),
(770,242,cs)
);
}
);
width = 1070;
}
);
note = fl;
unicode = 64258;
},
{
glyphname = endash;
layers = (
{
hints = (
{
horizontal = 1;
place = (282, 46);
place = (282, 46);
type = Stem;
},
{
place = (0, 500);
place = (0, 500);
type = Stem;
}
);
layerId = m01;
shapes = (
{
closed = 1;
nodes = (
(0,282,l),
(500,282,l),
(500,328,l),
(0,328,l)
);
}
);
width = 500;
}
);
note = endash;
unicode = 8211;
},
{
glyphname = dagger;
layers = (
{
hints = (
{
horizontal = 1;
place = (392.5, 48);
place = (392.5, 48);
type = Stem;
},
{
horizontal = 1;
place = (767, -20);
target = down;
type = TopGhost;
},
{
place = (268, 67);
place = (268, 67);
type = Stem;
},
{
place = (267, 74);
place = (267, 74);
type = Stem;
}
);
layerId = m01;
shapes = (
{
closed = 1;
nodes = (
(130,442,ls),
(106,443,o),
(89,449,o),
(84,449,cs),
(78,449,o),
(72,443,o),
(70,437,cs),
(57,395,ls),
(54,384,o),
(57,380,o),
(64,381,cs),
(136,387,o),
(173,392,o),
(217,393,cs),
(268,394,l),
(268,378,o),
(278,-148,o),
(280,-180,cs),
(283,-219,o),
(287,-232,o),
(301,-232,cs),
(315,-232,o),
(318,-214,o),
(319,-200,cs),
(320,-184,o),
(327,153,o),
(335,394,c),
(441,391,ls),
(477,390,o),
(518,380,o),
(525,380,cs),
(533,380,o),
(542,383,o),
(545,390,cs),
(561,434,ls),
(565,444,o),
(563,449,o),
(556,449,cs),
(549,449,o),
(531,443,o),
(486,442,cs),
(336,439,l),
(339,542,o),
(341,620,o),
(341,625,cs),
(346,699,o),
(350,750,o),
(350,757,cs),
(350,765,o),
(348,767,o),
(344,767,cs),
(340,767,o),
(337,766,o),
(329,762,cs),
(301,748,o),
(274,722,o),
(260,702,cs),
(257,697,o),
(255,693,o),
(255,688,cs),
(255,683,o),
(257,677,o),
(259,669,cs),
(264,651,o),
(265,534,o),
(267,439,c)
);
}
);
width = 610;
}
);
note = dagger;
unicode = 8224;
},
{
glyphname = daggerdbl;
layers = (
{
hints = (
{
horizontal = 1;
place = (147.5, 44);
place = (147.5, 44);
type = Stem;
},
{
horizontal = 1;
place = (445.5, 44);
place = (445.5, 44);
type = Stem;
},
{
horizontal = 1;
place = (767, -20);
target = down;
type = TopGhost;
},
{
place = (275, 52);
place = (275, 52);
type = Stem;
},
{
place = (270, 70);
place = (270, 70);
type = Stem;
}
);
layerId = m01;
shapes = (
{
closed = 1;
nodes = (
(435,146,ls),
(471,145,o),
(511,140,o),
(518,140,cs),
(526,140,o),
(536,143,o),
(538,150,cs),
(548,183,ls),
(551,193,o),
(550,198,o),
(543,198,cs),
(536,198,o),
(523,194,o),
(478,193,cs),
(328,190,l),
(334,447,l),
(435,444,ls),
(471,443,o),
(518,436,o),
(525,436,cs),
(533,436,o),
(542,439,o),
(545,446,cs),
(559,481,ls),
(563,491,o),
(561,496,o),
(554,496,cs),
(547,496,o),
(531,492,o),
(486,491,cs),
(335,488,l),
(337,542,o),
(340,620,o),
(340,625,cs),
(343,699,o),
(347,750,o),
(347,757,cs),
(347,765,o),
(345,767,o),
(341,767,cs),
(337,767,o),
(334,765,o),
(326,762,cs),
(298,751,o),
(281,735,o),
(267,721,cs),
(262,716,o),
(262,712,o),
(262,707,cs),
(262,702,o),
(264,696,o),
(266,688,cs),
(271,670,o),
(268,534,o),
(270,488,c),
(130,491,ls),
(106,492,o),
(87,496,o),
(82,496,cs),
(76,496,o),
(70,490,o),
(68,484,cs),
(57,450,ls),
(53,439,o),
(57,435,o),
(64,436,cs),
(136,442,o),
(173,445,o),
(217,446,cs),
(270,447,l),
(270,416,o),
(272,307,o),
(274,190,c),
(138,192,ls),
(114,192,o),
(95,197,o),
(90,197,cs),
(84,197,o),
(78,191,o),
(76,185,cs),
(67,152,ls),
(64,141,o),
(67,137,o),
(74,138,cs),
(146,144,o),
(173,147,o),
(217,148,cs),
(275,149,l),
(278,-6,o),
(281,-163,o),
(282,-180,cs),
(283,-219,o),
(286,-232,o),
(300,-232,cs),
(314,-232,o),
(318,-214,o),
(319,-200,cs),
(320,-190,o),
(322,-40,o),
(327,149,c)
);
}
);
width = 610;
}
);
note = daggerdbl;
unicode = 8225;
},
{
glyphname = periodcentered;
layers = (
{
hints = (
{
horizontal = 1;
place = (232, 110);
place = (232, 110);
type = Stem;
},
{
place = (70, 110);
place = (70, 110);
type = Stem;
}
);
layerId = m01;
shapes = (
{
closed = 1;
nodes = (
(158,232,o),
(180,258,o),
(180,290,cs),
(180,322,o),
(156,342,o),
(125,342,cs),
(86,342,o),
(70,310,o),
(70,287,cs),
(70,262,o),
(86,232,o),
(124,232,cs)
);
}
);
width = 250;
}
);
note = periodcentered;
unicode = 183;
},
{
glyphname = paragraph;
layers = (
{
hints = (
{
horizontal = 1;
place = (301, 21);
target = up;
type = BottomGhost;
},
{
horizontal = 1;
place = (739, 14);
place = (739, 14);
type = Stem;
},
{
place = (384, 49);
place = (384, 49);
type = Stem;
},
{
place = (510, 49);
place = (510, 49);
type = Stem;
},
{
horizontal = 1;
place = (723, 30);
place = (723, 30);
type = Stem;
},
{
place = (53, 175);
place = (53, 175);
type = Stem;
}
);
layerId = m01;
shapes = (
{
closed = 1;
nodes = (
(384,74,ls),
(384,-22,o),
(382,-117,o),
(378,-158,cs),
(375,-186,o),
(372,-194,o),
(372,-196,cs),
(372,-201,o),
(376,-202,o),
(380,-202,cs),
(395,-202,o),
(417,-193,o),
(430,-181,cs),
(434,-177,o),
(437,-173,o),
(436,-168,cs),
(432,-126,o),
(433,-22,o),
(433,74,cs),
(433,463,ls),
(433,619,o),
(432,647,o),
(434,686,cs),
(436,713,o),
(448,723,o),
(471,723,cs),
(500,723,o),
(510,705,o),
(510,684,cs),
(510,70,ls),
(510,-26,o),
(507,-100,o),
(505,-122,cs),
(504,-143,o),
(500,-155,o),
(500,-160,cs),
(500,-163,o),
(501,-165,o),
(506,-165,cs),
(519,-165,o),
(541,-156,o),
(554,-144,cs),
(558,-140,o),
(561,-135,o),
(561,-130,cs),
(558,-88,o),
(559,-26,o),
(559,70,cs),
(559,463,ls),
(559,619,o),
(559,647,o),
(561,679,cs),
(563,713,o),
(571,729,o),
(597,736,cs),
(605,738,o),
(616,739,o),
(625,739,cs),
(629,739,o),
(633,741,o),
(633,745,cs),
(633,751,o),
(628,753,o),
(617,753,cs),
(572,753,o),
(466,750,o),
(456,750,cs),
(434,750,o),
(369,753,o),
(350,753,cs),
(229,753,o),
(162,717,o),
(121,678,cs),
(86,645,o),
(53,589,o),
(53,519,cs),
(53,385,o),
(158,300,o),
(300,300,cs),
(305,300,o),
(316,300,o),
(321,301,cs),
(326,301,o),
(332,303,o),
(332,308,cs),
(332,319,o),
(320,316,o),
(303,327,cs),
(256,358,o),
(228,427,o),
(228,519,cs),
(228,552,o),
(234,617,o),
(263,662,cs),
(287,700,o),
(334,723,o),
(367,723,cs),
(380,723,o),
(384,709,o),
(384,683,cs)
);
}
);
width = 712;
}
);
note = paragraph;
unicode = 182;
},
{
glyphname = bullet;
layers = (
{
hints = (
{
horizontal = 1;
place = (290, 192);
place = (290, 192);
type = Stem;
},
{
place = (123, 175);
place = (123, 175);
type = Stem;
}
);
layerId = m01;
shapes = (
{
closed = 1;
nodes = (
(172,375,o),
(168,339,o),
(161,315,cs),
(159,309,o),
(155,299,o),
(155,295,cs),
(155,292,o),
(158,290,o),
(160,290,cs),
(165,290,o),
(173,298,o),
(180,304,cs),
(221,341,o),
(262,377,o),
(292,423,cs),
(295,428,o),
(298,435,o),
(298,443,cs),
(298,450,o),
(289,456,o),
(268,460,cs),
(218,471,o),
(152,482,o),
(135,482,cs),
(127,482,o),
(123,480,o),
(123,474,cs),
(123,468,o),
(129,467,o),
(137,463,cs),
(149,457,o),
(172,441,o),
(172,395,cs)
);
}
);
width = 420;
}
);
note = bullet;
unicode = 8226;
},
{
glyphname = quotesinglbase;
layers = (
{
hints = (
{
horizontal = 1;
place = (-112, 249);
place = (-112, 249);
type = Stem;
},
{
place = (85, 67);
place = (85, 67);
type = Stem;
}
);
layerId = m01;
shapes = (
{
closed = 1;
nodes = (
(85,-8,o),
(67,-62,o),
(52,-94,cs),
(49,-101,o),
(48,-104,o),
(48,-107,cs),
(48,-110,o),
(51,-112,o),
(53,-112,cs),
(58,-112,o),
(62,-110,o),
(66,-104,c),
(101,-62,o),
(152,22,o),
(152,93,cs),
(152,108,o),
(147,113,o),
(135,119,cs),
(119,125,o),
(81,137,o),
(65,137,cs),
(61,137,o),
(56,134,o),
(56,131,cs),
(56,126,o),
(57,123,o),
(65,114,cs),
(72,106,o),
(85,80,o),
(85,49,cs)
);
}
);
width = 200;
}
);
note = quotesinglbase;
unicode = 8218;
},
{
glyphname = quotedblbase;
layers = (
{
hints = (
{
horizontal = 1;
place = (-112, 249);
place = (-112, 249);
type = Stem;
},
{
place = (82, 67);
place = (82, 67);
type = Stem;
},
{
place = (212, 67);
place = (212, 67);
type = Stem;
}
);
layerId = m01;
shapes = (
{
closed = 1;
nodes = (
(82,-8,o),
(64,-62,o),
(49,-94,cs),
(46,-101,o),
(45,-104,o),
(45,-107,cs),
(45,-110,o),
(48,-112,o),
(50,-112,cs),
(55,-112,o),
(59,-110,o),
(63,-104,c),
(98,-62,o),
(149,22,o),
(149,93,cs),
(149,108,o),
(144,113,o),
(132,119,cs),
(116,125,o),
(78,137,o),
(62,137,cs),
(58,137,o),
(53,134,o),
(53,131,cs),
(53,126,o),
(54,123,o),
(62,114,cs),
(69,106,o),
(82,80,o),
(82,49,cs)
);
},
{
closed = 1;
nodes = (
(212,-8,o),
(194,-62,o),
(179,-94,cs),
(176,-101,o),
(175,-104,o),
(175,-107,cs),
(175,-110,o),
(178,-112,o),
(180,-112,cs),
(185,-112,o),
(189,-110,o),
(193,-104,c),
(228,-62,o),
(279,22,o),
(279,93,cs),
(279,108,o),
(274,113,o),
(262,119,cs),
(246,125,o),
(208,137,o),
(192,137,cs),
(188,137,o),
(183,134,o),
(183,131,cs),
(183,126,o),
(184,123,o),
(192,114,cs),
(199,106,o),
(212,80,o),
(212,49,cs)
);
}
);
width = 325;
}
);
note = quotedblbase;
unicode = 8222;
},
{
glyphname = quotedblright;
kernLeft = quoteright;
kernRight = quoteright;
layers = (
{
hints = (
{
horizontal = 1;
place = (571, 249);
place = (571, 249);
type = Stem;
},
{
place = (82, 67);
place = (82, 67);
type = Stem;
},
{
place = (212, 67);
place = (212, 67);
type = Stem;
}
);
layerId = m01;
shapes = (
{
closed = 1;
nodes = (
(82,675,o),
(64,621,o),
(49,589,cs),
(46,582,o),
(45,579,o),
(45,576,cs),
(45,573,o),
(48,571,o),
(50,571,cs),
(55,571,o),
(59,573,o),
(63,579,c),
(98,621,o),
(149,705,o),
(149,776,cs),
(149,791,o),
(144,796,o),
(132,802,cs),
(116,808,o),
(78,820,o),
(62,820,cs),
(58,820,o),
(53,817,o),
(53,814,cs),
(53,809,o),
(54,806,o),
(62,797,cs),
(69,789,o),
(82,763,o),
(82,732,cs)
);
},
{
closed = 1;
nodes = (
(212,675,o),
(194,621,o),
(179,589,cs),
(176,582,o),
(175,579,o),
(175,576,cs),
(175,573,o),
(178,571,o),
(180,571,cs),
(185,571,o),
(189,573,o),
(193,579,c),
(228,621,o),
(279,705,o),
(279,776,cs),
(279,791,o),
(274,796,o),
(262,802,cs),
(246,808,o),
(208,820,o),
(192,820,cs),
(188,820,o),
(183,817,o),
(183,814,cs),
(183,809,o),
(184,806,o),
(192,797,cs),
(199,789,o),
(212,763,o),
(212,732,cs)
);
}
);
width = 325;
}
);
note = quotedblright;
unicode = 8221;
},
{
glyphname = guillemotright;
layers = (
{
hints = (
{
horizontal = 1;
place = (304, 21);
target = up;
type = BottomGhost;
},
{
place = (74, 411);
place = (74, 411);
type = Stem;
}
);
layerId = m01;
shapes = (
{
closed = 1;
nodes = (
(79,469,ls),
(77,467,o),
(75,464,o),
(75,462,cs),
(75,460,o),
(78,457,o),
(89,447,cs),
(138,404,o),
(216,322,o),
(231,304,c),
(201,263,o),
(85,129,o),
(80,123,cs),
(77,120,o),
(74,115,o),
(74,110,cs),
(74,106,o),
(79,102,o),
(83,102,cs),
(88,102,o),
(93,106,o),
(101,113,cs),
(110,122,o),
(258,269,o),
(279,287,cs),
(293,299,o),
(298,306,o),
(298,309,cs),
(298,315,o),
(293,320,o),
(280,333,cs),
(260,353,o),
(163,459,o),
(140,485,cs),
(125,502,o),
(119,507,o),
(117,507,cs),
(115,507,o),
(111,505,o),
(109,502,c)
);
},
{
closed = 1;
nodes = (
(266,469,ls),
(264,467,o),
(262,464,o),
(262,462,cs),
(262,460,o),
(265,457,o),
(276,447,cs),
(325,404,o),
(403,322,o),
(418,304,c),
(388,263,o),
(272,129,o),
(267,123,cs),
(264,120,o),
(261,115,o),
(261,110,cs),
(261,106,o),
(266,102,o),
(270,102,cs),
(275,102,o),
(280,106,o),
(288,113,cs),
(297,122,o),
(445,269,o),
(466,287,cs),
(480,299,o),
(485,306,o),
(485,309,cs),
(485,315,o),
(480,320,o),
(467,333,cs),
(447,353,o),
(350,459,o),
(327,485,cs),
(312,502,o),
(306,507,o),
(304,507,cs),
(302,507,o),
(298,505,o),
(296,502,c)
);
}
);
width = 560;
}
);
note = guillemotright;
unicode = 187;
},
{
glyphname = ellipsis;
kernLeft = comma;
layers = (
{
hints = (
{
horizontal = 1;
place = (0, 107);
place = (0, 107);
type = Stem;
},
{
place = (113, 107);
place = (113, 107);
type = Stem;
},
{
place = (447, 107);
place = (447, 107);
type = Stem;
},
{
place = (781, 107);
place = (781, 107);
type = Stem;
}
);
layerId = m01;
shapes = (
{
closed = 1;
nodes = (
(198,0,o),
(220,25,o),
(220,56,cs),
(220,87,o),
(197,107,o),
(166,107,cs),
(129,107,o),
(113,76,o),
(113,53,cs),
(113,29,o),
(129,0,o),
(166,0,cs)
);
},
{
closed = 1;
nodes = (
(532,0,o),
(554,25,o),
(554,56,cs),
(554,87,o),
(531,107,o),
(500,107,cs),
(463,107,o),
(447,76,o),
(447,53,cs),
(447,29,o),
(463,0,o),
(500,0,cs)
);
},
{
closed = 1;
nodes = (
(866,0,o),
(888,25,o),
(888,56,cs),
(888,87,o),
(865,107,o),
(834,107,cs),
(797,107,o),
(781,76,o),
(781,53,cs),
(781,29,o),
(797,0,o),
(834,0,cs)
);
}
);
width = 1000;
}
);
note = ellipsis;
unicode = 8230;
},
{
glyphname = perthousand;
layers = (
{
hints = (
{
horizontal = 1;
place = (0, 27);
place = (0, 27);
type = Stem;
},
{
horizontal = 1;
place = (322, 27);
place = (322, 27);
type = Stem;
},
{
horizontal = 1;
place = (686, 26);
place = (686, 26);
type = Stem;
},
{
place = (47, 59);
place = (47, 59);
type = Stem;
},
{
place = (310, 59);
place = (310, 59);
type = Stem;
},
{
place = (457, 59);
place = (457, 59);
type = Stem;
},
{
place = (720, 59);
place = (720, 59);
type = Stem;
},
{
place = (846, 59);
place = (846, 59);
type = Stem;
},
{
place = (1110, 58);
place = (1110, 58);
type = Stem;
},
{
horizontal = 1;
place = (-11, 21);
target = up;
type = BottomGhost;
},
{
horizontal = 1;
place = (363, 26);
place = (363, 26);
type = Stem;
}
);
layerId = m01;
shapes = (
{
closed = 1;
nodes = (
(729,0,o),
(779,95,o),
(779,181,cs),
(779,256,o),
(729,349,o),
(621,349,cs),
(505,349,o),
(457,254,o),
(457,167,cs),
(457,93,o),
(505,0,o),
(615,0,cs)
);
},
{
closed = 1;
nodes = (
(549,27,o),
(516,106,o),
(516,180,cs),
(516,257,o),
(545,322,o),
(617,322,cs),
(684,322,o),
(720,242,o),
(720,168,cs),
(720,92,o),
(691,27,o),
(618,27,cs)
);
},
{
closed = 1;
nodes = (
(285,-4,ls),
(290,-3,o),
(290,-1,o),
(294,8,cs),
(574,703,ls),
(580,717,o),
(584,726,o),
(584,731,cs),
(584,734,o),
(582,734,o),
(578,734,cs),
(553,734,o),
(378,712,o),
(217,712,cs),
(102,712,o),
(47,618,o),
(47,530,cs),
(47,456,o),
(95,363,o),
(205,363,cs),
(317,363,o),
(369,458,o),
(369,544,cs),
(369,605,o),
(341,656,o),
(307,680,c),
(307,682,l),
(323,681,o),
(471,694,o),
(531,697,c),
(522,677,o),
(326,212,o),
(231,-1,cs),
(228,-7,o),
(231,-13,o),
(241,-11,cs)
);
},
{
closed = 1;
nodes = (
(140,389,o),
(106,469,o),
(106,543,cs),
(106,620,o),
(135,686,o),
(207,686,cs),
(274,686,o),
(310,605,o),
(310,531,cs),
(310,455,o),
(282,389,o),
(209,389,cs)
);
},
{
closed = 1;
nodes = (
(1118,0,o),
(1168,95,o),
(1168,181,cs),
(1168,256,o),
(1119,349,o),
(1011,349,cs),
(895,349,o),
(846,254,o),
(846,167,cs),
(846,93,o),
(894,0,o),
(1004,0,cs)
);
},
{
closed = 1;
nodes = (
(939,27,o),
(905,106,o),
(905,180,cs),
(905,257,o),
(934,322,o),
(1006,322,cs),
(1073,322,o),
(1110,242,o),
(1110,168,cs),
(1110,92,o),
(1081,27,o),
(1008,27,cs)
);
}
);
width = 1216;
}
);
note = perthousand;
unicode = 8240;
},
{
glyphname = questiondown;
layers = (
{
hints = (
{
horizontal = 1;
place = (-117, 34);
place = (-117, 34);
type = Stem;
},
{
place = (60, 88);
place = (60, 88);
type = Stem;
},
{
place = (211, 102);
place = (211, 102);
type = Stem;
},
{
place = (273, 54);
place = (273, 54);
type = Stem;
},
{
horizontal = 1;
place = (565, 102);
place = (565, 102);
type = Stem;
}
);
layerId = m01;
shapes = (
{
closed = 1;
nodes = (
(174,-83,o),
(148,-3,o),
(148,44,cs),
(148,115,o),
(166,167,o),
(236,256,cs),
(258,284,o),
(282,309,o),
(305,339,cs),
(320,358,o),
(327,375,o),
(327,389,cs),
(327,407,o),
(318,423,o),
(298,448,cs),
(286,463,o),
(265,483,o),
(256,483,cs),
(252,483,o),
(245,478,o),
(245,474,cs),
(245,471,o),
(247,466,o),
(254,457,cs),
(268,438,o),
(273,421,o),
(273,406,cs),
(273,389,o),
(269,373,o),
(232,326,cs),
(136,207,o),
(60,155,o),
(60,39,cs),
(60,-31,o),
(108,-117,o),
(241,-117,cs),
(318,-117,o),
(377,-95,o),
(407,-77,cs),
(417,-71,o),
(418,-67,o),
(418,-61,cs),
(418,-22,o),
(417,43,o),
(414,56,cs),
(413,63,o),
(411,66,o),
(406,66,cs),
(401,66,o),
(399,59,o),
(398,49,cs),
(395,15,o),
(387,-15,o),
(363,-44,cs),
(347,-64,o),
(314,-83,o),
(265,-83,cs)
);
},
{
closed = 1;
nodes = (
(232,667,o),
(211,643,o),
(211,613,cs),
(211,584,o),
(233,565,o),
(262,565,cs),
(298,565,o),
(313,595,o),
(313,616,cs),
(313,639,o),
(298,667,o),
(263,667,cs)
);
}
);
width = 488;
}
);
note = questiondown;
unicode = 191;
},
{
glyphname = grave;
layers = (
{
hints = (
{
horizontal = 1;
place = (830, 108);
place = (830, 108);
type = Stem;
},
{
place = (296, 219);
place = (296, 219);
type = Stem;
}
);
layerId = m01;
shapes = (
{
closed = 1;
nodes = (
(511,830,o),
(515,832,o),
(515,835,cs),
(515,839,o),
(506,842,o),
(496,849,cs),
(455,875,o),
(406,914,o),
(398,922,cs),
(389,931,o),
(388,938,o),
(383,938,cs),
(379,938,o),
(375,936,o),
(367,933,cs),
(355,928,o),
(328,920,o),
(307,914,cs),
(300,912,o),
(296,911,o),
(296,906,cs),
(296,901,o),
(304,897,o),
(325,889,cs),
(341,883,o),
(488,830,o),
(506,830,cs)
);
}
);
width = 911;
}
);
note = grave;
unicode = 96;
},
{
glyphname = acute;
layers = (
{
hints = (
{
horizontal = 1;
place = (830, 112);
place = (830, 112);
type = Stem;
},
{
place = (402, 208);
place = (402, 208);
type = Stem;
},
{
horizontal = 1;
place = (877, 65);
place = (877, 65);
type = Stem;
}
);
layerId = m01;
shapes = (
{
closed = 1;
nodes = (
(578,940,o),
(576,942,o),
(573,942,cs),
(568,942,o),
(562,939,o),
(545,929,cs),
(538,925,o),
(445,869,o),
(409,844,cs),
(404,841,o),
(402,839,o),
(402,836,cs),
(402,832,o),
(405,830,o),
(407,830,cs),
(409,830,o),
(415,832,o),
(422,835,cs),
(455,849,o),
(525,872,o),
(574,877,cs),
(591,879,o),
(601,877,o),
(604,877,cs),
(608,877,o),
(613,880,o),
(608,889,cs),
(597,909,o),
(590,923,o),
(583,933,cs)
);
}
);
width = 911;
}
);
note = acute;
unicode = 180;
},
{
glyphname = circumflex;
layers = (
{
hints = (
{
horizontal = 1;
place = (895, 45);
place = (895, 45);
type = Stem;
},
{
place = (324, 263);
place = (324, 263);
type = Stem;
}
);
layerId = m01;
shapes = (
{
closed = 1;
nodes = (
(582,845,l),
(584,848,o),
(587,851,o),
(587,854,cs),
(587,856,o),
(584,858,o),
(575,864,cs),
(562,874,o),
(482,934,o),
(474,940,cs),
(466,946,o),
(462,950,o),
(458,950,cs),
(455,950,o),
(450,947,o),
(442,940,cs),
(431,930,o),
(340,846,o),
(330,836,cs),
(327,832,o),
(324,829,o),
(324,825,cs),
(324,821,o),
(327,817,o),
(331,817,cs),
(334,817,o),
(341,820,o),
(349,827,cs),
(373,847,o),
(411,878,o),
(434,890,cs),
(442,894,o),
(446,895,o),
(450,895,cs),
(453,895,o),
(456,893,o),
(460,891,cs),
(472,884,o),
(524,844,o),
(544,822,cs),
(547,818,o),
(549,817,o),
(552,817,cs),
(555,817,o),
(557,819,o),
(561,823,cs)
);
}
);
width = 911;
}
);
note = circumflex;
unicode = 710;
},
{
glyphname = tilde;
layers = (
{
hints = (
{
horizontal = 1;
place = (879, 47);
place = (879, 47);
type = Stem;
},
{
place = (298, 315);
place = (298, 315);
type = Stem;
},
{
horizontal = 1;
place = (830, 48);
place = (830, 48);
type = Stem;
}
);
layerId = m01;
shapes = (
{
closed = 1;
nodes = (
(557,830,o),
(601,883,o),
(609,899,cs),
(612,905,o),
(613,908,o),
(613,912,cs),
(613,915,o),
(610,918,o),
(606,918,cs),
(603,918,o),
(598,913,o),
(594,907,cs),
(591,903,o),
(570,878,o),
(533,878,cs),
(517,878,o),
(489,888,o),
(475,895,cs),
(444,910,o),
(415,926,o),
(391,926,cs),
(359,926,o),
(319,877,o),
(305,855,cs),
(301,849,o),
(298,845,o),
(298,840,cs),
(298,837,o),
(300,834,o),
(304,834,cs),
(308,834,o),
(313,837,o),
(318,843,cs),
(325,851,o),
(344,879,o),
(379,879,cs),
(410,879,o),
(429,864,o),
(447,856,cs),
(461,849,o),
(493,830,o),
(526,830,cs)
);
}
);
width = 911;
}
);
note = tilde;
unicode = 732;
},
{
glyphname = macron;
layers = (
{
hints = (
{
horizontal = 1;
place = (862, 38);
place = (862, 38);
type = Stem;
},
{
place = (324, 263);
place = (324, 263);
type = Stem;
}
);
layerId = m01;
shapes = (
{
closed = 1;
nodes = (
(343,900,ls),
(337,900,o),
(333,899,o),
(332,894,cs),
(324,869,l),
(323,863,o),
(327,862,o),
(334,862,cs),
(569,862,ls),
(574,862,o),
(577,864,o),
(578,868,cs),
(586,890,ls),
(588,895,o),
(586,900,o),
(578,900,cs)
);
}
);
width = 911;
}
);
note = macron;
unicode = 175;
},
{
glyphname = breve;
layers = (
{
hints = (
{
horizontal = 1;
place = (830, 40);
place = (830, 40);
type = Stem;
},
{
place = (309, 292);
place = (309, 292);
type = Stem;
}
);
layerId = m01;
shapes = (
{
closed = 1;
nodes = (
(316,904,ls),
(313,902,o),
(309,900,o),
(309,895,cs),
(309,888,o),
(330,870,o),
(345,859,cs),
(372,840,o),
(407,830,o),
(438,830,cs),
(481,830,o),
(508,840,o),
(539,859,cs),
(562,873,o),
(601,912,o),
(601,923,cs),
(601,928,o),
(598,931,o),
(593,931,cs),
(586,931,o),
(581,920,o),
(552,899,cs),
(533,884,o),
(505,870,o),
(464,870,cs),
(451,870,o),
(404,873,o),
(370,917,cs),
(364,924,o),
(363,933,o),
(357,933,cs),
(354,933,o),
(351,930,o),
(348,928,cs)
);
}
);
width = 911;
}
);
note = breve;
unicode = 728;
},
{
glyphname = dotaccent;
layers = (
{
hints = (
{
horizontal = 1;
place = (830, 103);
place = (830, 103);
type = Stem;
},
{
place = (404, 103);
place = (404, 103);
type = Stem;
}
);
layerId = m01;
shapes = (
{
closed = 1;
nodes = (
(486,830,o),
(507,854,o),
(507,884,cs),
(507,914,o),
(484,933,o),
(455,933,cs),
(419,933,o),
(404,903,o),
(404,881,cs),
(404,858,o),
(419,830,o),
(455,830,cs)
);
}
);
width = 911;
}
);
note = dotaccent;
unicode = 729;
},
{
glyphname = dieresis;
layers = (
{
hints = (
{
horizontal = 1;
place = (830, 86);
place = (830, 86);
type = Stem;
},
{
place = (312, 86);
place = (312, 86);
type = Stem;
},
{
place = (513, 86);
place = (513, 86);
type = Stem;
}
);
layerId = m01;
shapes = (
{
closed = 1;
nodes = (
(582,830,o),
(599,850,o),
(599,876,cs),
(599,901,o),
(580,916,o),
(556,916,cs),
(525,916,o),
(513,891,o),
(513,873,cs),
(513,854,o),
(525,830,o),
(555,830,cs)
);
},
{
closed = 1;
nodes = (
(381,830,o),
(398,850,o),
(398,876,cs),
(398,901,o),
(379,916,o),
(355,916,cs),
(324,916,o),
(312,891,o),
(312,873,cs),
(312,854,o),
(324,830,o),
(354,830,cs)
);
}
);
width = 911;
}
);
note = dieresis;
unicode = 168;
},
{
glyphname = ring;
layers = (
{
hints = (
{
horizontal = 1;
place = (820, 24);
place = (820, 24);
type = Stem;
},
{
horizontal = 1;
place = (941, 24);
place = (941, 24);
type = Stem;
},
{
place = (356, 44);
place = (356, 44);
type = Stem;
},
{
place = (509, 47);
place = (509, 47);
type = Stem;
}
);
layerId = m01;
shapes = (
{
closed = 1;
nodes = (
(492,820,o),
(557,853,o),
(556,908,cs),
(556,942,o),
(525,965,o),
(474,965,cs),
(405,965,o),
(356,924,o),
(356,879,cs),
(356,845,o),
(384,820,o),
(434,820,cs)
);
},
{
closed = 1;
nodes = (
(426,844,o),
(400,862,o),
(400,892,cs),
(400,926,o),
(434,941,o),
(457,941,cs),
(493,941,o),
(509,919,o),
(509,895,cs),
(509,867,o),
(483,844,o),
(450,844,cs)
);
}
);
width = 911;
}
);
note = ring;
unicode = 730;
},
{
glyphname = cedilla;
layers = (
{
hints = (
{
horizontal = 1;
place = (-239, 21);
target = up;
type = BottomGhost;
},
{
place = (469, 68);
place = (469, 68);
type = Stem;
}
);
layerId = m01;
shapes = (
{
closed = 1;
nodes = (
(472,0,l),
(395,-63,ls),
(386,-70,o),
(382,-74,o),
(382,-77,cs),
(382,-81,o),
(386,-83,o),
(397,-86,cs),
(456,-103,o),
(469,-130,o),
(469,-159,cs),
(469,-195,o),
(430,-216,o),
(395,-220,cs),
(384,-221,o),
(375,-222,o),
(375,-231,cs),
(375,-236,o),
(381,-239,o),
(388,-239,cs),
(407,-239,o),
(439,-233,o),
(466,-221,cs),
(500,-207,o),
(537,-178,o),
(537,-139,cs),
(537,-98,o),
(499,-74,o),
(437,-68,c),
(446,-58,o),
(502,-6,o),
(512,0,c)
);
}
);
width = 911;
}
);
note = cedilla;
unicode = 184;
},
{
glyphname = hungarumlaut;
layers = (
{
hints = (
{
horizontal = 1;
place = (830, 133);
place = (830, 133);
type = Stem;
},
{
place = (318, 277);
place = (318, 277);
type = Stem;
}
);
layerId = m01;
shapes = (
{
closed = 1;
nodes = (
(384,932,o),
(321,848,o),
(318,839,cs),
(316,834,o),
(318,830,o),
(321,830,cs),
(325,830,o),
(328,833,o),
(335,841,cs),
(359,866,o),
(403,897,o),
(433,916,cs),
(447,924,o),
(459,927,o),
(463,929,cs),
(466,930,o),
(467,934,o),
(460,938,cs),
(446,947,o),
(434,955,o),
(423,960,cs),
(418,962,o),
(414,963,o),
(410,963,cs),
(406,963,o),
(403,956,o),
(393,943,cs)
);
},
{
closed = 1;
nodes = (
(514,935,o),
(441,847,o),
(438,838,cs),
(436,833,o),
(438,830,o),
(441,830,cs),
(444,830,o),
(448,831,o),
(455,839,c),
(479,860,o),
(527,896,o),
(561,914,cs),
(575,922,o),
(589,923,o),
(592,924,cs),
(595,925,o),
(596,929,o),
(591,934,cs),
(576,946,o),
(566,953,o),
(556,959,cs),
(550,962,o),
(546,963,o),
(542,963,cs),
(538,963,o),
(534,957,o),
(523,945,cs)
);
}
);
width = 911;
}
);
note = hungarumlaut;
unicode = 733;
},
{
glyphname = ogonek;
layers = (
{
hints = (
{
horizontal = 1;
place = (-225, 46);
place = (-225, 46);
type = Stem;
},
{
place = (355, 78);
place = (355, 78);
type = Stem;
}
);
layerId = m01;
shapes = (
{
closed = 1;
nodes = (
(462,0,l),
(449,-8,o),
(355,-79,o),
(355,-155,cs),
(355,-194,o),
(381,-225,o),
(434,-225,cs),
(491,-225,o),
(542,-174,o),
(552,-163,cs),
(557,-157,o),
(560,-156,o),
(560,-149,cs),
(560,-146,o),
(558,-143,o),
(552,-143,cs),
(546,-143,o),
(515,-179,o),
(484,-179,cs),
(456,-179,o),
(433,-161,o),
(433,-129,cs),
(433,-73,o),
(463,-26,o),
(491,0,c)
);
}
);
width = 911;
}
);
note = ogonek;
unicode = 731;
},
{
glyphname = caron;
layers = (
{
hints = (
{
horizontal = 1;
place = (825, 45);
place = (825, 45);
type = Stem;
},
{
place = (324, 263);
place = (324, 263);
type = Stem;
}
);
layerId = m01;
shapes = (
{
closed = 1;
nodes = (
(329,920,l),
(327,917,o),
(324,914,o),
(324,911,cs),
(324,909,o),
(327,907,o),
(336,901,cs),
(349,891,o),
(429,831,o),
(437,825,cs),
(445,818,o),
(449,815,o),
(452,815,cs),
(456,815,o),
(461,818,o),
(469,825,cs),
(480,835,o),
(571,919,o),
(581,929,cs),
(584,933,o),
(587,936,o),
(587,940,cs),
(587,944,o),
(584,948,o),
(580,948,cs),
(577,948,o),
(570,945,o),
(562,938,cs),
(538,918,o),
(500,887,o),
(477,875,cs),
(469,871,o),
(465,870,o),
(461,870,cs),
(458,870,o),
(455,872,o),
(451,874,cs),
(438,880,o),
(387,921,o),
(367,943,cs),
(364,947,o),
(362,948,o),
(359,948,cs),
(356,948,o),
(354,946,o),
(350,942,cs)
);
}
);
width = 911;
}
);
note = caron;
unicode = 711;
},
{
glyphname = emdash;
layers = (
{
hints = (
{
horizontal = 1;
place = (282, 46);
place = (282, 46);
type = Stem;
},
{
place = (0, 1000);
place = (0, 1000);
type = Stem;
}
);
layerId = m01;
shapes = (
{
closed = 1;
nodes = (
(1000,282,l),
(1000,328,l),
(0,328,l),
(0,282,l)
);
}
);
width = 1000;
}
);
note = emdash;
unicode = 8212;
},
{
glyphname = AE;
kernLeft = A;
kernRight = E;
layers = (
{
hints = (
{
horizontal = 1;
place = (-3, 14);
place = (-3, 14);
type = Stem;
},
{
horizontal = 1;
place = (341, 36);
place = (341, 36);
type = Stem;
},
{
horizontal = 1;
place = (714, 36);
place = (714, 36);
type = Stem;
},
{
place = (482, 82);
place = (482, 82);
type = Stem;
},
{
place = (769, 15);
place = (769, 15);
type = Stem;
},
{
horizontal = 1;
place = (-6, 21);
target = up;
type = BottomGhost;
},
{
horizontal = 1;
place = (0, 21);
target = up;
type = BottomGhost;
},
{
horizontal = 1;
place = (-6, 40);
place = (-6, 40);
type = Stem;
},
{
horizontal = 1;
place = (761, -20);
target = down;
type = TopGhost;
},
{
horizontal = 1;
place = (753, -20);
target = down;
type = TopGhost;
}
);
layerId = m01;
shapes = (
{
closed = 1;
nodes = (
(473,341,ls),
(479,341,o),
(482,339,o),
(482,333,cs),
(482,287,ls),
(482,191,o),
(482,112,o),
(477,70,cs),
(473,41,o),
(468,19,o),
(448,15,cs),
(439,13,o),
(429,11,o),
(420,11,cs),
(414,11,o),
(412,8,o),
(412,5,cs),
(412,-1,o),
(417,-3,o),
(428,-3,cs),
(443,-3,o),
(464,-2,o),
(483,-1,cs),
(501,-1,o),
(517,0,o),
(522,0,cs),
(537,0,o),
(561,-1,o),
(600,-3,cs),
(639,-4,o),
(694,-6,o),
(769,-6,cs),
(808,-6,o),
(816,-6,o),
(823,20,cs),
(828,40,o),
(836,108,o),
(836,116,cs),
(836,123,o),
(836,131,o),
(830,131,cs),
(825,131,o),
(823,127,o),
(821,116,cs),
(814,75,o),
(802,56,o),
(776,45,cs),
(750,34,o),
(706,34,o),
(680,34,cs),
(582,34,o),
(567,47,o),
(564,115,cs),
(563,137,o),
(564,253,o),
(564,287,cs),
(564,332,ls),
(564,339,o),
(565,341,o),
(571,341,cs),
(588,341,o),
(687,341,o),
(707,339,cs),
(747,335,o),
(762,318,o),
(766,304,cs),
(769,293,o),
(769,285,o),
(769,280,cs),
(770,273,o),
(772,269,o),
(777,269,cs),
(784,269,o),
(784,280,o),
(784,285,cs),
(784,292,o),
(786,322,o),
(788,342,cs),
(791,375,o),
(796,392,o),
(796,398,cs),
(796,404,o),
(794,406,o),
(791,406,cs),
(787,406,o),
(783,401,o),
(776,393,cs),
(767,383,o),
(753,381,o),
(729,379,cs),
(706,377,o),
(583,377,o),
(570,377,cs),
(565,377,o),
(564,380,o),
(564,387,cs),
(564,704,ls),
(564,711,o),
(566,714,o),
(570,714,cs),
(581,714,o),
(690,713,o),
(707,711,cs),
(761,705,o),
(771,693,o),
(778,677,cs),
(783,665,o),
(784,648,o),
(784,641,cs),
(784,633,o),
(786,628,o),
(792,628,cs),
(796,628,o),
(798,634,o),
(799,639,cs),
(801,651,o),
(803,695,o),
(804,705,cs),
(807,733,o),
(812,745,o),
(812,752,cs),
(812,757,o),
(811,761,o),
(808,761,cs),
(803,761,o),
(799,757,o),
(794,756,cs),
(786,754,o),
(770,752,o),
(751,751,cs),
(728,750,o),
(529,750,o),
(522,750,cs),
(517,750,o),
(510,751,o),
(505,752,cs),
(499,752,o),
(494,753,o),
(490,753,cs),
(483,753,o),
(479,747,o),
(477,739,cs),
(475,732,o),
(473,725,o),
(455,697,cs),
(272,410,o),
(120,172,o),
(88,128,cs),
(50,75,o),
(27,43,o),
(-17,21,cs),
(-33,13,o),
(-52,11,o),
(-59,11,cs),
(-66,11,o),
(-70,9,o),
(-70,5,cs),
(-70,0,o),
(-67,-3,o),
(-57,-3,cs),
(-9,-3,o),
(48,0,o),
(56,0,cs),
(66,0,o),
(125,-3,o),
(181,-3,cs),
(190,-3,o),
(198,0,o),
(198,4,cs),
(198,9,o),
(193,11,o),
(186,11,cs),
(175,11,o),
(155,14,o),
(142,19,cs),
(130,24,o),
(122,34,o),
(122,48,cs),
(122,66,o),
(131,93,o),
(165,149,cs),
(182,178,o),
(268,319,o),
(279,334,cs),
(284,341,o),
(289,341,o),
(297,341,cs)
);
},
{
closed = 1;
nodes = (
(482,385,ls),
(482,380,o),
(480,377,o),
(473,377,cs),
(313,377,ls),
(307,377,o),
(305,379,o),
(309,386,cs),
(317,402,o),
(455,628,o),
(473,655,cs),
(477,661,o),
(482,661,o),
(482,655,cs)
);
}
);
width = 912;
}
);
note = AE;
unicode = 198;
},
{
glyphname = ordfeminine;
layers = (
{
hints = (
{
horizontal = 1;
place = (408, 9);
place = (408, 9);
type = Stem;
},
{
horizontal = 1;
place = (522, 30);
place = (522, 30);
type = Stem;
},
{
horizontal = 1;
place = (767, -20);
target = down;
type = TopGhost;
},
{
place = (-10, 419);
place = (-10, 419);
type = Stem;
}
);
layerId = m01;
shapes = (
{
closed = 1;
nodes = (
(245,522,ls),
(248,522,o),
(249,521,o),
(251,518,c),
(291,428,ls),
(293,423,o),
(290,419,o),
(287,418,cs),
(285,417,o),
(283,416,o),
(283,413,cs),
(283,411,o),
(289,410,o),
(300,410,cs),
(350,408,o),
(390,408,o),
(398,408,cs),
(404,408,o),
(409,409,o),
(409,413,cs),
(409,416,o),
(407,417,o),
(404,417,cs),
(398,417,o),
(390,417,o),
(382,419,cs),
(370,422,o),
(359,432,o),
(339,469,cs),
(302,539,o),
(218,733,o),
(210,750,cs),
(203,765,o),
(200,767,o),
(196,767,cs),
(191,767,o),
(187,764,o),
(183,755,cs),
(56,460,ls),
(46,436,o),
(34,420,o),
(11,418,cs),
(6,417,o),
(-1,417,o),
(-5,417,cs),
(-8,417,o),
(-10,416,o),
(-10,413,cs),
(-10,409,o),
(-7,408,o),
(0,408,cs),
(26,408,o),
(53,410,o),
(63,410,cs),
(72,410,o),
(95,408,o),
(108,408,cs),
(113,408,o),
(117,409,o),
(117,413,cs),
(117,416,o),
(115,417,o),
(111,417,cs),
(106,417,ls),
(100,417,o),
(92,422,o),
(92,431,cs),
(92,437,o),
(95,448,o),
(98,457,cs),
(120,517,ls),
(121,520,o),
(122,522,o),
(125,522,cs)
);
},
{
closed = 1;
nodes = (
(137,552,ls),
(135,552,o),
(134,554,o),
(135,556,cs),
(178,668,ls),
(181,675,o),
(185,675,o),
(188,668,cs),
(234,556,ls),
(235,554,o),
(234,552,o),
(231,552,cs)
);
}
);
width = 400;
}
);
note = ordfeminine;
unicode = 170;
},
{
glyphname = Lslash;
kernLeft = B;
kernRight = L;
layers = (
{
hints = (
{
horizontal = 1;
place = (-6, 39);
place = (-6, 39);
type = Stem;
},
{
horizontal = 1;
place = (300, 21);
target = up;
type = BottomGhost;
},
{
horizontal = 1;
place = (739, 14);
place = (739, 14);
type = Stem;
},
{
place = (178, 84);
place = (178, 84);
type = Stem;
},
{
horizontal = 1;
place = (-6, 21);
target = up;
type = BottomGhost;
},
{
horizontal = 1;
place = (-3, 14);
place = (-3, 14);
type = Stem;
},
{
horizontal = 1;
place = (0, 21);
target = up;
type = BottomGhost;
}
);
layerId = m01;
shapes = (
{
closed = 1;
nodes = (
(262,381,l),
(425,461,ls),
(430,463,o),
(432,466,o),
(430,470,cs),
(419,493,ls),
(418,496,o),
(415,498,o),
(411,496,cs),
(262,424,l),
(262,463,ls),
(262,619,o),
(262,647,o),
(264,679,cs),
(266,714,o),
(274,731,o),
(303,736,cs),
(315,738,o),
(329,739,o),
(336,739,cs),
(340,739,o),
(344,741,o),
(344,745,cs),
(344,751,o),
(339,753,o),
(328,753,cs),
(298,753,o),
(225,750,o),
(220,750,cs),
(215,750,o),
(152,753,o),
(107,753,cs),
(96,753,o),
(91,751,o),
(91,745,cs),
(91,741,o),
(95,739,o),
(99,739,cs),
(108,739,o),
(125,738,o),
(133,736,cs),
(166,729,o),
(174,713,o),
(176,679,cs),
(178,647,o),
(178,619,o),
(178,463,cs),
(178,385,l),
(72,330,l),
(69,329,o),
(69,325,o),
(70,322,cs),
(80,300,ls),
(83,295,o),
(86,296,o),
(89,297,c),
(178,343,l),
(178,287,ls),
(178,191,o),
(178,112,o),
(173,70,cs),
(169,41,o),
(164,19,o),
(144,15,cs),
(135,13,o),
(123,11,o),
(114,11,cs),
(108,11,o),
(106,8,o),
(106,5,cs),
(106,-1,o),
(111,-3,o),
(122,-3,cs),
(137,-3,o),
(159,-2,o),
(179,-1,cs),
(199,-1,o),
(216,0,o),
(220,0,cs),
(249,0,o),
(280,-1,o),
(322,-3,cs),
(364,-4,o),
(416,-6,o),
(488,-6,cs),
(541,-6,o),
(544,-2,o),
(551,21,cs),
(559,50,o),
(566,110,o),
(566,121,cs),
(566,132,o),
(565,136,o),
(560,136,cs),
(554,136,o),
(552,131,o),
(551,123,cs),
(548,104,o),
(538,79,o),
(525,63,cs),
(501,34,o),
(457,33,o),
(404,33,cs),
(326,33,o),
(300,40,o),
(284,56,cs),
(265,75,o),
(262,150,o),
(262,285,cs)
);
}
);
width = 592;
}
);
note = Lslash;
unicode = 321;
},
{
glyphname = Oslash;
kernLeft = O;
kernRight = O;
layers = (
{
hints = (
{
horizontal = 1;
place = (-17, 38);
place = (-17, 38);
type = Stem;
},
{
horizontal = 1;
place = (655, -20);
target = down;
type = TopGhost;
},
{
horizontal = 1;
place = (733, 34);
place = (733, 34);
type = Stem;
},
{
place = (64, 95);
place = (64, 95);
type = Stem;
},
{
place = (755, 96);
place = (755, 96);
type = Stem;
}
);
layerId = m01;
shapes = (
{
closed = 1;
nodes = (
(202,66,l),
(263,15,o),
(346,-17,o),
(452,-17,cs),
(693,-17,o),
(851,168,o),
(851,392,cs),
(851,502,o),
(814,591,o),
(751,655,c),
(832,742,ls),
(836,746,o),
(837,750,o),
(832,755,cs),
(812,771,ls),
(806,776,o),
(802,777,o),
(798,773,cs),
(716,685,l),
(649,738,o),
(567,767,o),
(458,767,cs),
(182,767,o),
(64,538,o),
(64,376,cs),
(64,279,o),
(97,172,o),
(170,96,c),
(83,2,ls),
(80,-1,o),
(81,-4,o),
(85,-8,cs),
(105,-27,ls),
(109,-31,o),
(112,-31,o),
(115,-27,cs)
);
},
{
closed = 1;
nodes = (
(695,595,l),
(732,537,o),
(755,459,o),
(755,364,cs),
(755,73,o),
(569,21,o),
(479,21,cs),
(390,21,o),
(312,57,o),
(254,122,c)
);
},
{
closed = 1;
nodes = (
(227,157,l),
(184,221,o),
(159,305,o),
(159,404,cs),
(159,623,o),
(284,733,o),
(450,733,cs),
(531,733,o),
(610,699,o),
(667,632,c)
);
}
);
width = 915;
}
);
note = Oslash;
unicode = 216;
},
{
glyphname = OE;
kernRight = E;
layers = (
{
hints = (
{
horizontal = 1;
place = (-17, 38);
place = (-17, 38);
type = Stem;
},
{
horizontal = 1;
place = (382, 36);
place = (382, 36);
type = Stem;
},
{
horizontal = 1;
place = (642, -20);
target = down;
type = TopGhost;
},
{
horizontal = 1;
place = (733, 34);
place = (733, 34);
type = Stem;
},
{
place = (64, 95);
place = (64, 95);
type = Stem;
},
{
place = (755, 84);
place = (755, 84);
type = Stem;
},
{
place = (1044, 15);
place = (1044, 15);
type = Stem;
},
{
horizontal = 1;
place = (716, 34);
place = (716, 34);
type = Stem;
},
{
horizontal = 1;
place = (761, -20);
target = down;
type = TopGhost;
},
{
horizontal = 1;
place = (-1, 21);
target = up;
type = BottomGhost;
},
{
horizontal = 1;
place = (0, 21);
target = up;
type = BottomGhost;
},
{
horizontal = 1;
place = (-6, 40);
place = (-6, 40);
type = Stem;
}
);
layerId = m01;
shapes = (
{
closed = 1;
nodes = (
(839,704,ls),
(839,713,o),
(841,716,o),
(845,716,cs),
(856,716,o),
(965,715,o),
(982,713,cs),
(1036,707,o),
(1046,695,o),
(1053,679,cs),
(1058,667,o),
(1059,650,o),
(1059,643,cs),
(1059,635,o),
(1061,630,o),
(1067,630,cs),
(1071,630,o),
(1073,636,o),
(1074,641,cs),
(1076,653,o),
(1078,697,o),
(1079,707,cs),
(1082,733,o),
(1087,745,o),
(1087,752,cs),
(1087,757,o),
(1086,761,o),
(1083,761,cs),
(1078,761,o),
(1074,757,o),
(1069,756,cs),
(1061,754,o),
(1045,752,o),
(1026,751,cs),
(1003,750,o),
(804,750,o),
(795,750,cs),
(787,750,o),
(781,751,o),
(775,752,cs),
(770,752,o),
(767,753,o),
(764,753,cs),
(758,753,o),
(754,749,o),
(754,744,cs),
(754,737,o),
(756,723,o),
(756,707,cs),
(756,642,l),
(752,642,l),
(711,694,o),
(623,767,o),
(464,767,cs),
(184,766,o),
(64,541,o),
(64,375,cs),
(64,194,o),
(179,-17,o),
(452,-17,cs),
(646,-17,o),
(728,92,o),
(755,122,c),
(758,122,l),
(756,34,ls),
(756,20,o),
(753,12,o),
(753,4,cs),
(753,0,o),
(757,-3,o),
(763,-3,cs),
(768,-3,o),
(772,-2,o),
(777,-1,cs),
(783,-1,o),
(789,0,o),
(797,0,cs),
(812,0,o),
(836,-1,o),
(875,-3,cs),
(914,-4,o),
(969,-6,o),
(1044,-6,cs),
(1083,-6,o),
(1091,-6,o),
(1098,20,cs),
(1103,40,o),
(1111,108,o),
(1111,116,cs),
(1111,123,o),
(1111,131,o),
(1105,131,cs),
(1100,131,o),
(1098,127,o),
(1096,116,cs),
(1089,75,o),
(1077,56,o),
(1051,45,cs),
(1025,34,o),
(981,34,o),
(955,34,cs),
(857,34,o),
(842,47,o),
(839,115,cs),
(838,137,o),
(839,253,o),
(839,328,cs),
(839,373,ls),
(839,380,o),
(840,382,o),
(846,382,cs),
(863,382,o),
(962,382,o),
(982,380,cs),
(1022,376,o),
(1037,359,o),
(1041,345,cs),
(1044,334,o),
(1044,326,o),
(1044,321,cs),
(1045,314,o),
(1047,310,o),
(1052,310,cs),
(1059,310,o),
(1059,321,o),
(1059,326,cs),
(1059,333,o),
(1061,363,o),
(1063,383,cs),
(1066,416,o),
(1071,433,o),
(1071,439,cs),
(1071,445,o),
(1069,447,o),
(1066,447,cs),
(1062,447,o),
(1058,442,o),
(1051,434,cs),
(1042,424,o),
(1028,422,o),
(1004,420,cs),
(981,418,o),
(858,418,o),
(845,418,cs),
(840,418,o),
(839,421,o),
(839,428,cs)
);
},
{
closed = 1;
nodes = (
(299,21,o),
(159,171,o),
(159,404,cs),
(159,623,o),
(284,733,o),
(450,733,cs),
(608,733,o),
(755,604,o),
(755,364,cs),
(755,73,o),
(568,21,o),
(478,21,cs)
);
}
);
width = 1187;
}
);
note = OE;
unicode = 338;
},
{
glyphname = ordmasculine;
layers = (
{
hints = (
{
horizontal = 1;
place = (405, 27);
place = (405, 27);
type = Stem;
},
{
horizontal = 1;
place = (741, 26);
place = (741, 26);
type = Stem;
},
{
place = (20, 71);
place = (20, 71);
type = Stem;
},
{
place = (347, 71);
place = (347, 71);
type = Stem;
}
);
layerId = m01;
shapes = (
{
closed = 1;
nodes = (
(339,405,o),
(418,490,o),
(418,594,cs),
(418,702,o),
(335,767,o),
(219,767,cs),
(84,767,o),
(20,667,o),
(20,586,cs),
(20,496,o),
(79,405,o),
(216,405,cs)
);
},
{
closed = 1;
nodes = (
(156,432,o),
(91,502,o),
(91,597,cs),
(91,695,o),
(153,741,o),
(210,741,cs),
(276,741,o),
(347,684,o),
(347,581,cs),
(347,454,o),
(266,432,o),
(230,432,cs)
);
}
);
width = 437;
}
);
note = ordmasculine;
unicode = 186;
},
{
glyphname = ae;
kernLeft = a;
kernRight = e;
layers = (
{
hints = (
{
horizontal = 1;
place = (-3, 12);
place = (-3, 12);
type = Stem;
},
{
horizontal = 1;
place = (286, 34);
place = (286, 34);
type = Stem;
},
{
horizontal = 1;
place = (604, 34);
place = (604, 34);
type = Stem;
},
{
place = (427, 75);
place = (427, 75);
type = Stem;
},
{
place = (685, 15);
place = (685, 15);
type = Stem;
},
{
horizontal = 1;
place = (-5, 20);
place = (-5, 20);
type = Stem;
},
{
horizontal = 1;
place = (0, 21);
target = up;
type = BottomGhost;
},
{
horizontal = 1;
place = (-5, 37);
place = (-5, 37);
type = Stem;
},
{
horizontal = 1;
place = (647, -20);
target = down;
type = TopGhost;
}
);
layerId = m01;
shapes = (
{
closed = 1;
nodes = (
(419,286,ls),
(425,286,o),
(427,284,o),
(427,279,cs),
(427,244,ls),
(427,162,o),
(427,95,o),
(423,60,cs),
(420,35,o),
(415,18,o),
(397,15,cs),
(389,14,o),
(378,11,o),
(370,11,cs),
(364,11,o),
(363,7,o),
(363,4,cs),
(363,-1,o),
(367,-3,o),
(377,-3,cs),
(390,-3,o),
(409,-2,o),
(425,-1,cs),
(441,-1,o),
(455,0,o),
(459,0,cs),
(472,0,o),
(496,-1,o),
(533,-2,cs),
(570,-4,o),
(621,-5,o),
(687,-5,cs),
(721,-5,o),
(728,-5,o),
(734,17,cs),
(739,34,o),
(746,92,o),
(746,99,cs),
(746,105,o),
(746,111,o),
(740,111,cs),
(736,111,o),
(732,108,o),
(730,99,cs),
(724,64,o),
(716,51,o),
(693,41,cs),
(670,32,o),
(631,32,o),
(608,32,cs),
(522,32,o),
(505,37,o),
(502,95,cs),
(501,113,o),
(502,215,o),
(502,244,cs),
(502,279,ls),
(502,285,o),
(503,287,o),
(508,287,cs),
(523,287,o),
(615,287,o),
(632,285,cs),
(667,282,o),
(679,270,o),
(682,258,cs),
(685,249,o),
(685,245,o),
(685,242,cs),
(685,234,o),
(689,229,o),
(694,229,cs),
(700,229,o),
(700,238,o),
(700,242,cs),
(700,248,o),
(701,274,o),
(703,291,cs),
(705,319,o),
(710,333,o),
(710,338,cs),
(710,343,o),
(709,345,o),
(706,345,cs),
(701,345,o),
(698,341,o),
(693,334,cs),
(686,325,o),
(673,325,o),
(652,323,cs),
(631,321,o),
(519,321,o),
(508,321,cs),
(503,321,o),
(502,324,o),
(502,330,cs),
(502,595,ls),
(502,601,o),
(504,604,o),
(508,604,cs),
(517,604,o),
(617,603,o),
(632,601,cs),
(680,595,o),
(686,589,o),
(693,575,cs),
(697,565,o),
(698,551,o),
(698,545,cs),
(698,538,o),
(702,534,o),
(707,534,cs),
(710,534,o),
(712,539,o),
(713,543,cs),
(715,553,o),
(717,591,o),
(718,599,cs),
(720,623,o),
(725,633,o),
(725,639,cs),
(725,643,o),
(724,647,o),
(721,647,cs),
(717,647,o),
(713,643,o),
(709,643,c),
(702,641,o),
(688,638,o),
(671,638,cs),
(459,638,ls),
(450,638,o),
(437,640,o),
(431,640,cs),
(425,640,o),
(422,635,o),
(420,628,cs),
(418,622,o),
(416,616,o),
(400,592,cs),
(239,349,o),
(106,146,o),
(77,109,cs),
(43,65,o),
(24,37,o),
(-15,18,cs),
(-29,11,o),
(-46,9,o),
(-52,9,cs),
(-58,9,o),
(-62,8,o),
(-62,4,cs),
(-62,0,o),
(-59,-3,o),
(-50,-3,cs),
(-8,-3,o),
(42,0,o),
(49,0,cs),
(58,0,o),
(111,-3,o),
(160,-3,cs),
(168,-3,o),
(175,0,o),
(175,3,cs),
(175,8,o),
(171,11,o),
(165,11,cs),
(155,11,o),
(138,14,o),
(127,18,cs),
(116,22,o),
(110,29,o),
(110,41,cs),
(110,56,o),
(119,79,o),
(149,127,cs),
(164,151,o),
(238,267,o),
(248,280,cs),
(252,286,o),
(256,286,o),
(263,286,cs)
);
},
{
closed = 1;
nodes = (
(427,327,ls),
(427,323,o),
(425,320,o),
(419,320,cs),
(278,320,ls),
(273,320,o),
(271,322,o),
(275,328,cs),
(283,342,o),
(403,534,o),
(419,557,cs),
(423,562,o),
(427,562,o),
(427,557,cs)
);
}
);
width = 815;
}
);
note = ae;
unicode = 230;
},
{
glyphname = dotlessi;
kernLeft = b;
kernRight = h;
layers = (
{
hints = (
{
horizontal = 1;
place = (-3, 14);
place = (-3, 14);
type = Stem;
},
{
horizontal = 1;
place = (626, 14);
place = (626, 14);
type = Stem;
},
{
place = (155, 80);
place = (155, 80);
type = Stem;
}
);
layerId = m01;
shapes = (
{
closed = 1;
nodes = (
(235,394,ls),
(235,526,o),
(235,550,o),
(236,577,cs),
(238,607,o),
(243,619,o),
(267,624,cs),
(277,626,o),
(283,626,o),
(289,626,cs),
(292,626,o),
(296,630,o),
(296,633,cs),
(296,638,o),
(292,640,o),
(282,640,cs),
(255,640,o),
(198,638,o),
(194,638,cs),
(189,638,o),
(134,640,o),
(105,640,cs),
(95,640,o),
(91,638,o),
(91,633,cs),
(91,630,o),
(94,626,o),
(98,626,cs),
(104,626,o),
(115,625,o),
(125,623,cs),
(144,619,o),
(151,606,o),
(153,577,cs),
(155,550,o),
(155,526,o),
(155,394,cs),
(155,244,ls),
(155,162,o),
(154,95,o),
(150,60,cs),
(147,35,o),
(144,19,o),
(127,15,cs),
(119,13,o),
(108,11,o),
(100,11,cs),
(95,11,o),
(93,7,o),
(93,4,cs),
(93,-1,o),
(98,-3,o),
(107,-3,cs),
(134,-3,o),
(189,0,o),
(194,0,cs),
(198,0,o),
(255,-3,o),
(304,-3,cs),
(314,-3,o),
(318,0,o),
(318,4,cs),
(318,7,o),
(316,11,o),
(311,11,cs),
(303,11,o),
(284,13,o),
(271,15,cs),
(245,19,o),
(242,35,o),
(239,60,cs),
(235,95,o),
(235,162,o),
(235,244,cs)
);
}
);
width = 389;
}
);
note = dotlessi;
unicode = 305;
},
